<?xml version="1.0" encoding="utf-8"?>
<svg xmlns="http://www.w3.org/2000/svg" xmlns:xlink="http://www.w3.org/1999/xlink" width="600" height="400" viewBox="0 0 2400 1600">
<defs>
  <clipPath id="clip990">
    <rect x="0" y="0" width="2400" height="1600"/>
  </clipPath>
</defs>
<path clip-path="url(#clip990)" d="M0 1600 L2400 1600 L2400 8.88178e-14 L0 8.88178e-14  Z" fill="#ffffff" fill-rule="evenodd" fill-opacity="1"/>
<defs>
  <clipPath id="clip991">
    <rect x="480" y="0" width="1681" height="1600"/>
  </clipPath>
</defs>
<path clip-path="url(#clip990)" d="M242.135 623.18 L2352.76 623.18 L2352.76 123.472 L242.135 123.472  Z" fill="#ffffff" fill-rule="evenodd" fill-opacity="1"/>
<defs>
  <clipPath id="clip992">
    <rect x="242" y="123" width="2112" height="501"/>
  </clipPath>
</defs>
<polyline clip-path="url(#clip992)" style="stroke:#000000; stroke-linecap:round; stroke-linejoin:round; stroke-width:2; stroke-opacity:0.1; fill:none" points="281.757,623.18 281.757,123.472 "/>
<polyline clip-path="url(#clip992)" style="stroke:#000000; stroke-linecap:round; stroke-linejoin:round; stroke-width:2; stroke-opacity:0.1; fill:none" points="784.573,623.18 784.573,123.472 "/>
<polyline clip-path="url(#clip992)" style="stroke:#000000; stroke-linecap:round; stroke-linejoin:round; stroke-width:2; stroke-opacity:0.1; fill:none" points="1287.39,623.18 1287.39,123.472 "/>
<polyline clip-path="url(#clip992)" style="stroke:#000000; stroke-linecap:round; stroke-linejoin:round; stroke-width:2; stroke-opacity:0.1; fill:none" points="1790.21,623.18 1790.21,123.472 "/>
<polyline clip-path="url(#clip992)" style="stroke:#000000; stroke-linecap:round; stroke-linejoin:round; stroke-width:2; stroke-opacity:0.1; fill:none" points="2293.02,623.18 2293.02,123.472 "/>
<polyline clip-path="url(#clip992)" style="stroke:#000000; stroke-linecap:round; stroke-linejoin:round; stroke-width:2; stroke-opacity:0.1; fill:none" points="242.135,585.771 2352.76,585.771 "/>
<polyline clip-path="url(#clip992)" style="stroke:#000000; stroke-linecap:round; stroke-linejoin:round; stroke-width:2; stroke-opacity:0.1; fill:none" points="242.135,436.343 2352.76,436.343 "/>
<polyline clip-path="url(#clip992)" style="stroke:#000000; stroke-linecap:round; stroke-linejoin:round; stroke-width:2; stroke-opacity:0.1; fill:none" points="242.135,286.916 2352.76,286.916 "/>
<polyline clip-path="url(#clip992)" style="stroke:#000000; stroke-linecap:round; stroke-linejoin:round; stroke-width:2; stroke-opacity:0.1; fill:none" points="242.135,137.488 2352.76,137.488 "/>
<polyline clip-path="url(#clip990)" style="stroke:#000000; stroke-linecap:round; stroke-linejoin:round; stroke-width:4; stroke-opacity:1; fill:none" points="242.135,623.18 2352.76,623.18 "/>
<polyline clip-path="url(#clip990)" style="stroke:#000000; stroke-linecap:round; stroke-linejoin:round; stroke-width:4; stroke-opacity:1; fill:none" points="281.757,623.18 281.757,604.282 "/>
<polyline clip-path="url(#clip990)" style="stroke:#000000; stroke-linecap:round; stroke-linejoin:round; stroke-width:4; stroke-opacity:1; fill:none" points="784.573,623.18 784.573,604.282 "/>
<polyline clip-path="url(#clip990)" style="stroke:#000000; stroke-linecap:round; stroke-linejoin:round; stroke-width:4; stroke-opacity:1; fill:none" points="1287.39,623.18 1287.39,604.282 "/>
<polyline clip-path="url(#clip990)" style="stroke:#000000; stroke-linecap:round; stroke-linejoin:round; stroke-width:4; stroke-opacity:1; fill:none" points="1790.21,623.18 1790.21,604.282 "/>
<polyline clip-path="url(#clip990)" style="stroke:#000000; stroke-linecap:round; stroke-linejoin:round; stroke-width:4; stroke-opacity:1; fill:none" points="2293.02,623.18 2293.02,604.282 "/>
<path clip-path="url(#clip990)" d="M281.757 654.099 Q278.145 654.099 276.317 657.663 Q274.511 661.205 274.511 668.335 Q274.511 675.441 276.317 679.006 Q278.145 682.547 281.757 682.547 Q285.391 682.547 287.196 679.006 Q289.025 675.441 289.025 668.335 Q289.025 661.205 287.196 657.663 Q285.391 654.099 281.757 654.099 M281.757 650.395 Q287.567 650.395 290.622 655.001 Q293.701 659.585 293.701 668.335 Q293.701 677.061 290.622 681.668 Q287.567 686.251 281.757 686.251 Q275.946 686.251 272.868 681.668 Q269.812 677.061 269.812 668.335 Q269.812 659.585 272.868 655.001 Q275.946 650.395 281.757 650.395 Z" fill="#000000" fill-rule="nonzero" fill-opacity="1" /><path clip-path="url(#clip990)" d="M759.272 651.02 L777.628 651.02 L777.628 654.955 L763.554 654.955 L763.554 663.427 Q764.573 663.08 765.591 662.918 Q766.61 662.733 767.628 662.733 Q773.415 662.733 776.795 665.904 Q780.175 669.075 780.175 674.492 Q780.175 680.071 776.702 683.172 Q773.23 686.251 766.911 686.251 Q764.735 686.251 762.466 685.881 Q760.221 685.51 757.814 684.77 L757.814 680.071 Q759.897 681.205 762.119 681.76 Q764.341 682.316 766.818 682.316 Q770.823 682.316 773.161 680.21 Q775.499 678.103 775.499 674.492 Q775.499 670.881 773.161 668.774 Q770.823 666.668 766.818 666.668 Q764.943 666.668 763.068 667.085 Q761.216 667.501 759.272 668.381 L759.272 651.02 Z" fill="#000000" fill-rule="nonzero" fill-opacity="1" /><path clip-path="url(#clip990)" d="M799.388 654.099 Q795.776 654.099 793.948 657.663 Q792.142 661.205 792.142 668.335 Q792.142 675.441 793.948 679.006 Q795.776 682.547 799.388 682.547 Q803.022 682.547 804.827 679.006 Q806.656 675.441 806.656 668.335 Q806.656 661.205 804.827 657.663 Q803.022 654.099 799.388 654.099 M799.388 650.395 Q805.198 650.395 808.253 655.001 Q811.332 659.585 811.332 668.335 Q811.332 677.061 808.253 681.668 Q805.198 686.251 799.388 686.251 Q793.577 686.251 790.499 681.668 Q787.443 677.061 787.443 668.335 Q787.443 659.585 790.499 655.001 Q793.577 650.395 799.388 650.395 Z" fill="#000000" fill-rule="nonzero" fill-opacity="1" /><path clip-path="url(#clip990)" d="M1247 681.645 L1254.63 681.645 L1254.63 655.279 L1246.32 656.946 L1246.32 652.687 L1254.59 651.02 L1259.26 651.02 L1259.26 681.645 L1266.9 681.645 L1266.9 685.58 L1247 685.58 L1247 681.645 Z" fill="#000000" fill-rule="nonzero" fill-opacity="1" /><path clip-path="url(#clip990)" d="M1286.35 654.099 Q1282.74 654.099 1280.91 657.663 Q1279.1 661.205 1279.1 668.335 Q1279.1 675.441 1280.91 679.006 Q1282.74 682.547 1286.35 682.547 Q1289.98 682.547 1291.79 679.006 Q1293.62 675.441 1293.62 668.335 Q1293.62 661.205 1291.79 657.663 Q1289.98 654.099 1286.35 654.099 M1286.35 650.395 Q1292.16 650.395 1295.21 655.001 Q1298.29 659.585 1298.29 668.335 Q1298.29 677.061 1295.21 681.668 Q1292.16 686.251 1286.35 686.251 Q1280.54 686.251 1277.46 681.668 Q1274.4 677.061 1274.4 668.335 Q1274.4 659.585 1277.46 655.001 Q1280.54 650.395 1286.35 650.395 Z" fill="#000000" fill-rule="nonzero" fill-opacity="1" /><path clip-path="url(#clip990)" d="M1316.51 654.099 Q1312.9 654.099 1311.07 657.663 Q1309.26 661.205 1309.26 668.335 Q1309.26 675.441 1311.07 679.006 Q1312.9 682.547 1316.51 682.547 Q1320.14 682.547 1321.95 679.006 Q1323.78 675.441 1323.78 668.335 Q1323.78 661.205 1321.95 657.663 Q1320.14 654.099 1316.51 654.099 M1316.51 650.395 Q1322.32 650.395 1325.37 655.001 Q1328.45 659.585 1328.45 668.335 Q1328.45 677.061 1325.37 681.668 Q1322.32 686.251 1316.51 686.251 Q1310.7 686.251 1307.62 681.668 Q1304.56 677.061 1304.56 668.335 Q1304.56 659.585 1307.62 655.001 Q1310.7 650.395 1316.51 650.395 Z" fill="#000000" fill-rule="nonzero" fill-opacity="1" /><path clip-path="url(#clip990)" d="M1749.81 681.645 L1757.45 681.645 L1757.45 655.279 L1749.14 656.946 L1749.14 652.687 L1757.4 651.02 L1762.08 651.02 L1762.08 681.645 L1769.72 681.645 L1769.72 685.58 L1749.81 685.58 L1749.81 681.645 Z" fill="#000000" fill-rule="nonzero" fill-opacity="1" /><path clip-path="url(#clip990)" d="M1779.21 651.02 L1797.57 651.02 L1797.57 654.955 L1783.49 654.955 L1783.49 663.427 Q1784.51 663.08 1785.53 662.918 Q1786.55 662.733 1787.57 662.733 Q1793.35 662.733 1796.73 665.904 Q1800.11 669.075 1800.11 674.492 Q1800.11 680.071 1796.64 683.172 Q1793.17 686.251 1786.85 686.251 Q1784.67 686.251 1782.4 685.881 Q1780.16 685.51 1777.75 684.77 L1777.75 680.071 Q1779.83 681.205 1782.06 681.76 Q1784.28 682.316 1786.76 682.316 Q1790.76 682.316 1793.1 680.21 Q1795.44 678.103 1795.44 674.492 Q1795.44 670.881 1793.1 668.774 Q1790.76 666.668 1786.76 666.668 Q1784.88 666.668 1783.01 667.085 Q1781.15 667.501 1779.21 668.381 L1779.21 651.02 Z" fill="#000000" fill-rule="nonzero" fill-opacity="1" /><path clip-path="url(#clip990)" d="M1819.33 654.099 Q1815.71 654.099 1813.89 657.663 Q1812.08 661.205 1812.08 668.335 Q1812.08 675.441 1813.89 679.006 Q1815.71 682.547 1819.33 682.547 Q1822.96 682.547 1824.77 679.006 Q1826.59 675.441 1826.59 668.335 Q1826.59 661.205 1824.77 657.663 Q1822.96 654.099 1819.33 654.099 M1819.33 650.395 Q1825.14 650.395 1828.19 655.001 Q1831.27 659.585 1831.27 668.335 Q1831.27 677.061 1828.19 681.668 Q1825.14 686.251 1819.33 686.251 Q1813.52 686.251 1810.44 681.668 Q1807.38 677.061 1807.38 668.335 Q1807.38 659.585 1810.44 655.001 Q1813.52 650.395 1819.33 650.395 Z" fill="#000000" fill-rule="nonzero" fill-opacity="1" /><path clip-path="url(#clip990)" d="M2256.71 681.645 L2273.03 681.645 L2273.03 685.58 L2251.09 685.58 L2251.09 681.645 Q2253.75 678.89 2258.33 674.26 Q2262.94 669.608 2264.12 668.265 Q2266.37 665.742 2267.25 664.006 Q2268.15 662.247 2268.15 660.557 Q2268.15 657.802 2266.2 656.066 Q2264.28 654.33 2261.18 654.33 Q2258.98 654.33 2256.53 655.094 Q2254.1 655.858 2251.32 657.409 L2251.32 652.687 Q2254.14 651.552 2256.6 650.974 Q2259.05 650.395 2261.09 650.395 Q2266.46 650.395 2269.65 653.08 Q2272.85 655.765 2272.85 660.256 Q2272.85 662.386 2272.04 664.307 Q2271.25 666.205 2269.14 668.798 Q2268.57 669.469 2265.46 672.686 Q2262.36 675.881 2256.71 681.645 Z" fill="#000000" fill-rule="nonzero" fill-opacity="1" /><path clip-path="url(#clip990)" d="M2292.85 654.099 Q2289.24 654.099 2287.41 657.663 Q2285.6 661.205 2285.6 668.335 Q2285.6 675.441 2287.41 679.006 Q2289.24 682.547 2292.85 682.547 Q2296.48 682.547 2298.29 679.006 Q2300.12 675.441 2300.12 668.335 Q2300.12 661.205 2298.29 657.663 Q2296.48 654.099 2292.85 654.099 M2292.85 650.395 Q2298.66 650.395 2301.71 655.001 Q2304.79 659.585 2304.79 668.335 Q2304.79 677.061 2301.71 681.668 Q2298.66 686.251 2292.85 686.251 Q2287.04 686.251 2283.96 681.668 Q2280.9 677.061 2280.9 668.335 Q2280.9 659.585 2283.96 655.001 Q2287.04 650.395 2292.85 650.395 Z" fill="#000000" fill-rule="nonzero" fill-opacity="1" /><path clip-path="url(#clip990)" d="M2323.01 654.099 Q2319.4 654.099 2317.57 657.663 Q2315.76 661.205 2315.76 668.335 Q2315.76 675.441 2317.57 679.006 Q2319.4 682.547 2323.01 682.547 Q2326.64 682.547 2328.45 679.006 Q2330.28 675.441 2330.28 668.335 Q2330.28 661.205 2328.45 657.663 Q2326.64 654.099 2323.01 654.099 M2323.01 650.395 Q2328.82 650.395 2331.88 655.001 Q2334.95 659.585 2334.95 668.335 Q2334.95 677.061 2331.88 681.668 Q2328.82 686.251 2323.01 686.251 Q2317.2 686.251 2314.12 681.668 Q2311.07 677.061 2311.07 668.335 Q2311.07 659.585 2314.12 655.001 Q2317.2 650.395 2323.01 650.395 Z" fill="#000000" fill-rule="nonzero" fill-opacity="1" /><path clip-path="url(#clip990)" d="M1312.37 746.528 L1312.37 768.044 L1306.52 768.044 L1306.52 746.719 Q1306.52 741.658 1304.54 739.144 Q1302.57 736.629 1298.62 736.629 Q1293.88 736.629 1291.14 739.653 Q1288.41 742.677 1288.41 747.896 L1288.41 768.044 L1282.52 768.044 L1282.52 732.396 L1288.41 732.396 L1288.41 737.934 Q1290.51 734.719 1293.34 733.128 Q1296.2 731.537 1299.93 731.537 Q1306.07 731.537 1309.22 735.356 Q1312.37 739.144 1312.37 746.528 Z" fill="#000000" fill-rule="nonzero" fill-opacity="1" /><polyline clip-path="url(#clip990)" style="stroke:#000000; stroke-linecap:round; stroke-linejoin:round; stroke-width:4; stroke-opacity:1; fill:none" points="242.135,623.18 242.135,123.472 "/>
<polyline clip-path="url(#clip990)" style="stroke:#000000; stroke-linecap:round; stroke-linejoin:round; stroke-width:4; stroke-opacity:1; fill:none" points="242.135,585.771 261.032,585.771 "/>
<polyline clip-path="url(#clip990)" style="stroke:#000000; stroke-linecap:round; stroke-linejoin:round; stroke-width:4; stroke-opacity:1; fill:none" points="242.135,436.343 261.032,436.343 "/>
<polyline clip-path="url(#clip990)" style="stroke:#000000; stroke-linecap:round; stroke-linejoin:round; stroke-width:4; stroke-opacity:1; fill:none" points="242.135,286.916 261.032,286.916 "/>
<polyline clip-path="url(#clip990)" style="stroke:#000000; stroke-linecap:round; stroke-linejoin:round; stroke-width:4; stroke-opacity:1; fill:none" points="242.135,137.488 261.032,137.488 "/>
<path clip-path="url(#clip990)" d="M115.256 586.223 L144.931 586.223 L144.931 590.158 L115.256 590.158 L115.256 586.223 Z" fill="#000000" fill-rule="nonzero" fill-opacity="1" /><path clip-path="url(#clip990)" d="M155.834 599.116 L163.473 599.116 L163.473 572.751 L155.163 574.417 L155.163 570.158 L163.427 568.491 L168.102 568.491 L168.102 599.116 L175.741 599.116 L175.741 603.051 L155.834 603.051 L155.834 599.116 Z" fill="#000000" fill-rule="nonzero" fill-opacity="1" /><path clip-path="url(#clip990)" d="M185.232 568.491 L203.588 568.491 L203.588 572.426 L189.514 572.426 L189.514 580.899 Q190.533 580.551 191.551 580.389 Q192.57 580.204 193.588 580.204 Q199.375 580.204 202.755 583.375 Q206.135 586.547 206.135 591.963 Q206.135 597.542 202.662 600.644 Q199.19 603.723 192.871 603.723 Q190.695 603.723 188.426 603.352 Q186.181 602.982 183.774 602.241 L183.774 597.542 Q185.857 598.676 188.079 599.232 Q190.301 599.787 192.778 599.787 Q196.783 599.787 199.121 597.681 Q201.459 595.574 201.459 591.963 Q201.459 588.352 199.121 586.246 Q196.783 584.139 192.778 584.139 Q190.903 584.139 189.028 584.556 Q187.176 584.973 185.232 585.852 L185.232 568.491 Z" fill="#000000" fill-rule="nonzero" fill-opacity="1" /><path clip-path="url(#clip990)" d="M114.26 436.795 L143.936 436.795 L143.936 440.73 L114.26 440.73 L114.26 436.795 Z" fill="#000000" fill-rule="nonzero" fill-opacity="1" /><path clip-path="url(#clip990)" d="M154.839 449.688 L162.477 449.688 L162.477 423.323 L154.167 424.989 L154.167 420.73 L162.431 419.063 L167.107 419.063 L167.107 449.688 L174.746 449.688 L174.746 453.623 L154.839 453.623 L154.839 449.688 Z" fill="#000000" fill-rule="nonzero" fill-opacity="1" /><path clip-path="url(#clip990)" d="M194.19 422.142 Q190.579 422.142 188.75 425.707 Q186.945 429.249 186.945 436.378 Q186.945 443.485 188.75 447.049 Q190.579 450.591 194.19 450.591 Q197.825 450.591 199.63 447.049 Q201.459 443.485 201.459 436.378 Q201.459 429.249 199.63 425.707 Q197.825 422.142 194.19 422.142 M194.19 418.438 Q200 418.438 203.056 423.045 Q206.135 427.628 206.135 436.378 Q206.135 445.105 203.056 449.711 Q200 454.295 194.19 454.295 Q188.38 454.295 185.301 449.711 Q182.246 445.105 182.246 436.378 Q182.246 427.628 185.301 423.045 Q188.38 418.438 194.19 418.438 Z" fill="#000000" fill-rule="nonzero" fill-opacity="1" /><path clip-path="url(#clip990)" d="M145.417 287.367 L175.093 287.367 L175.093 291.302 L145.417 291.302 L145.417 287.367 Z" fill="#000000" fill-rule="nonzero" fill-opacity="1" /><path clip-path="url(#clip990)" d="M185.232 269.636 L203.588 269.636 L203.588 273.571 L189.514 273.571 L189.514 282.043 Q190.533 281.696 191.551 281.534 Q192.57 281.349 193.588 281.349 Q199.375 281.349 202.755 284.52 Q206.135 287.691 206.135 293.108 Q206.135 298.686 202.662 301.788 Q199.19 304.867 192.871 304.867 Q190.695 304.867 188.426 304.497 Q186.181 304.126 183.774 303.385 L183.774 298.686 Q185.857 299.821 188.079 300.376 Q190.301 300.932 192.778 300.932 Q196.783 300.932 199.121 298.825 Q201.459 296.719 201.459 293.108 Q201.459 289.497 199.121 287.39 Q196.783 285.284 192.778 285.284 Q190.903 285.284 189.028 285.7 Q187.176 286.117 185.232 286.997 L185.232 269.636 Z" fill="#000000" fill-rule="nonzero" fill-opacity="1" /><path clip-path="url(#clip990)" d="M194.19 123.287 Q190.579 123.287 188.75 126.851 Q186.945 130.393 186.945 137.523 Q186.945 144.629 188.75 148.194 Q190.579 151.735 194.19 151.735 Q197.825 151.735 199.63 148.194 Q201.459 144.629 201.459 137.523 Q201.459 130.393 199.63 126.851 Q197.825 123.287 194.19 123.287 M194.19 119.583 Q200 119.583 203.056 124.189 Q206.135 128.773 206.135 137.523 Q206.135 146.249 203.056 150.856 Q200 155.439 194.19 155.439 Q188.38 155.439 185.301 150.856 Q182.246 146.249 182.246 137.523 Q182.246 128.773 185.301 124.189 Q188.38 119.583 194.19 119.583 Z" fill="#000000" fill-rule="nonzero" fill-opacity="1" /><path clip-path="url(#clip990)" d="M16.4842 449.571 L16.4842 419.525 L21.895 419.525 L21.895 443.142 L35.9632 443.142 L35.9632 420.512 L41.3741 420.512 L41.3741 443.142 L58.5933 443.142 L58.5933 418.952 L64.0042 418.952 L64.0042 449.571 L16.4842 449.571 Z" fill="#000000" fill-rule="nonzero" fill-opacity="1" /><path clip-path="url(#clip990)" d="M33.8307 387.983 Q33.2578 388.97 33.0032 390.147 Q32.7167 391.293 32.7167 392.694 Q32.7167 397.659 35.9632 400.332 Q39.1779 402.974 45.2253 402.974 L64.0042 402.974 L64.0042 408.863 L28.3562 408.863 L28.3562 402.974 L33.8944 402.974 Q30.6479 401.128 29.0883 398.168 Q27.4968 395.208 27.4968 390.975 Q27.4968 390.37 27.5923 389.638 Q27.656 388.906 27.8151 388.015 L33.8307 387.983 Z" fill="#000000" fill-rule="nonzero" fill-opacity="1" /><path clip-path="url(#clip990)" d="M33.8307 362.329 Q33.2578 363.316 33.0032 364.494 Q32.7167 365.639 32.7167 367.04 Q32.7167 372.005 35.9632 374.679 Q39.1779 377.32 45.2253 377.32 L64.0042 377.32 L64.0042 383.209 L28.3562 383.209 L28.3562 377.32 L33.8944 377.32 Q30.6479 375.474 29.0883 372.514 Q27.4968 369.554 27.4968 365.321 Q27.4968 364.716 27.5923 363.984 Q27.656 363.252 27.8151 362.361 L33.8307 362.329 Z" fill="#000000" fill-rule="nonzero" fill-opacity="1" /><path clip-path="url(#clip990)" d="M32.4621 343.805 Q32.4621 348.516 36.1542 351.253 Q39.8145 353.99 46.212 353.99 Q52.6095 353.99 56.3017 351.285 Q59.9619 348.547 59.9619 343.805 Q59.9619 339.126 56.2698 336.389 Q52.5777 333.652 46.212 333.652 Q39.8781 333.652 36.186 336.389 Q32.4621 339.126 32.4621 343.805 M27.4968 343.805 Q27.4968 336.166 32.4621 331.806 Q37.4273 327.445 46.212 327.445 Q54.9649 327.445 59.9619 331.806 Q64.9272 336.166 64.9272 343.805 Q64.9272 351.476 59.9619 355.836 Q54.9649 360.165 46.212 360.165 Q37.4273 360.165 32.4621 355.836 Q27.4968 351.476 27.4968 343.805 Z" fill="#000000" fill-rule="nonzero" fill-opacity="1" /><path clip-path="url(#clip990)" d="M33.8307 297.081 Q33.2578 298.067 33.0032 299.245 Q32.7167 300.391 32.7167 301.791 Q32.7167 306.757 35.9632 309.43 Q39.1779 312.072 45.2253 312.072 L64.0042 312.072 L64.0042 317.96 L28.3562 317.96 L28.3562 312.072 L33.8944 312.072 Q30.6479 310.226 29.0883 307.266 Q27.4968 304.306 27.4968 300.073 Q27.4968 299.468 27.5923 298.736 Q27.656 298.004 27.8151 297.113 L33.8307 297.081 Z" fill="#000000" fill-rule="nonzero" fill-opacity="1" /><path clip-path="url(#clip990)" d="M662.77 12.096 L670.953 12.096 L670.953 65.6895 L700.403 65.6895 L700.403 72.576 L662.77 72.576 L662.77 12.096 Z" fill="#000000" fill-rule="nonzero" fill-opacity="1" /><path clip-path="url(#clip990)" d="M724.789 32.4315 Q718.794 32.4315 715.31 37.1306 Q711.826 41.7891 711.826 49.9314 Q711.826 58.0738 715.27 62.7728 Q718.753 67.4314 724.789 67.4314 Q730.744 67.4314 734.228 62.7323 Q737.712 58.0333 737.712 49.9314 Q737.712 41.8701 734.228 37.1711 Q730.744 32.4315 724.789 32.4315 M724.789 26.1121 Q734.511 26.1121 740.061 32.4315 Q745.611 38.7509 745.611 49.9314 Q745.611 61.0714 740.061 67.4314 Q734.511 73.7508 724.789 73.7508 Q715.027 73.7508 709.477 67.4314 Q703.968 61.0714 703.968 49.9314 Q703.968 38.7509 709.477 32.4315 Q715.027 26.1121 724.789 26.1121 Z" fill="#000000" fill-rule="nonzero" fill-opacity="1" /><path clip-path="url(#clip990)" d="M787.821 49.3643 Q787.821 41.2625 784.459 36.8065 Q781.137 32.3505 775.101 32.3505 Q769.106 32.3505 765.744 36.8065 Q762.422 41.2625 762.422 49.3643 Q762.422 57.4256 765.744 61.8816 Q769.106 66.3376 775.101 66.3376 Q781.137 66.3376 784.459 61.8816 Q787.821 57.4256 787.821 49.3643 M795.275 66.9452 Q795.275 78.5308 790.13 84.1616 Q784.986 89.8329 774.372 89.8329 Q770.443 89.8329 766.959 89.2252 Q763.475 88.6581 760.194 87.4428 L760.194 80.1917 Q763.475 81.9741 766.676 82.8248 Q769.876 83.6755 773.198 83.6755 Q780.53 83.6755 784.175 79.8271 Q787.821 76.0193 787.821 68.282 L787.821 64.5957 Q785.512 68.6061 781.907 70.5911 Q778.302 72.576 773.279 72.576 Q764.934 72.576 759.83 66.2161 Q754.725 59.8562 754.725 49.3643 Q754.725 38.832 759.83 32.472 Q764.934 26.1121 773.279 26.1121 Q778.302 26.1121 781.907 28.0971 Q785.512 30.082 787.821 34.0924 L787.821 27.2059 L795.275 27.2059 L795.275 66.9452 Z" fill="#000000" fill-rule="nonzero" fill-opacity="1" /><path clip-path="url(#clip990)" d="M806.861 46.5287 L828.695 46.5287 L828.695 53.1722 L806.861 53.1722 L806.861 46.5287 Z" fill="#000000" fill-rule="nonzero" fill-opacity="1" /><path clip-path="url(#clip990)" d="M869.488 28.5427 L869.488 35.5912 Q866.328 33.9709 862.925 33.1607 Q859.522 32.3505 855.876 32.3505 Q850.327 32.3505 847.532 34.0519 Q844.777 35.7533 844.777 39.156 Q844.777 41.7486 846.762 43.2475 Q848.747 44.7058 854.742 46.0426 L857.294 46.6097 Q865.234 48.3111 868.556 51.4303 Q871.918 54.509 871.918 60.0587 Q871.918 66.3781 866.895 70.0644 Q861.912 73.7508 853.162 73.7508 Q849.517 73.7508 845.547 73.0216 Q841.617 72.3329 837.242 70.9151 L837.242 63.2184 Q841.374 65.3654 845.385 66.4591 Q849.395 67.5124 853.324 67.5124 Q858.591 67.5124 861.426 65.73 Q864.262 63.9071 864.262 60.6258 Q864.262 57.5877 862.196 55.9673 Q860.17 54.3469 853.243 52.8481 L850.651 52.2405 Q843.724 50.7821 840.645 47.7845 Q837.566 44.7463 837.566 39.4801 Q837.566 33.0797 842.103 29.5959 Q846.64 26.1121 854.985 26.1121 Q859.117 26.1121 862.763 26.7198 Q866.409 27.3274 869.488 28.5427 Z" fill="#000000" fill-rule="nonzero" fill-opacity="1" /><path clip-path="url(#clip990)" d="M916.437 28.9478 L916.437 35.9153 Q913.278 34.1734 910.078 33.3227 Q906.918 32.4315 903.677 32.4315 Q896.426 32.4315 892.416 37.0496 Q888.405 41.6271 888.405 49.9314 Q888.405 58.2358 892.416 62.8538 Q896.426 67.4314 903.677 67.4314 Q906.918 67.4314 910.078 66.5807 Q913.278 65.6895 916.437 63.9476 L916.437 70.8341 Q913.318 72.2924 909.956 73.0216 Q906.634 73.7508 902.867 73.7508 Q892.618 73.7508 886.582 67.3098 Q880.546 60.8689 880.546 49.9314 Q880.546 38.832 886.623 32.472 Q892.74 26.1121 903.353 26.1121 Q906.796 26.1121 910.078 26.8413 Q913.359 27.5299 916.437 28.9478 Z" fill="#000000" fill-rule="nonzero" fill-opacity="1" /><path clip-path="url(#clip990)" d="M950.019 49.7694 Q940.986 49.7694 937.502 51.8354 Q934.018 53.9013 934.018 58.8839 Q934.018 62.8538 936.611 65.2034 Q939.244 67.5124 943.741 67.5124 Q949.938 67.5124 953.665 63.1374 Q957.433 58.7219 957.433 51.4303 L957.433 49.7694 L950.019 49.7694 M964.886 46.6907 L964.886 72.576 L957.433 72.576 L957.433 65.6895 Q954.881 69.8214 951.073 71.8063 Q947.265 73.7508 941.756 73.7508 Q934.788 73.7508 930.656 69.8619 Q926.565 65.9325 926.565 59.3701 Q926.565 51.7138 931.669 47.825 Q936.814 43.9361 946.981 43.9361 L957.433 43.9361 L957.433 43.2069 Q957.433 38.0623 954.03 35.2672 Q950.668 32.4315 944.551 32.4315 Q940.662 32.4315 936.976 33.3632 Q933.289 34.295 929.886 36.1584 L929.886 29.2718 Q933.978 27.692 937.826 26.9223 Q941.675 26.1121 945.32 26.1121 Q955.164 26.1121 960.025 31.2163 Q964.886 36.3204 964.886 46.6907 Z" fill="#000000" fill-rule="nonzero" fill-opacity="1" /><path clip-path="url(#clip990)" d="M980.239 9.54393 L987.693 9.54393 L987.693 72.576 L980.239 72.576 L980.239 9.54393 Z" fill="#000000" fill-rule="nonzero" fill-opacity="1" /><path clip-path="url(#clip990)" d="M1042.1 48.0275 L1042.1 51.6733 L1007.83 51.6733 Q1008.31 59.3701 1012.44 63.421 Q1016.62 67.4314 1024.03 67.4314 Q1028.32 67.4314 1032.33 66.3781 Q1036.38 65.3249 1040.35 63.2184 L1040.35 70.267 Q1036.34 71.9684 1032.13 72.8596 Q1027.92 73.7508 1023.58 73.7508 Q1012.73 73.7508 1006.37 67.4314 Q1000.05 61.1119 1000.05 50.3365 Q1000.05 39.1965 1006.04 32.6746 Q1012.08 26.1121 1022.29 26.1121 Q1031.44 26.1121 1036.75 32.0264 Q1042.1 37.9003 1042.1 48.0275 M1034.64 45.84 Q1034.56 39.7232 1031.2 36.0774 Q1027.88 32.4315 1022.37 32.4315 Q1016.13 32.4315 1012.36 35.9558 Q1008.64 39.4801 1008.07 45.8805 L1034.64 45.84 Z" fill="#000000" fill-rule="nonzero" fill-opacity="1" /><path clip-path="url(#clip990)" d="M1105.57 17.6457 Q1096.66 17.6457 1091.4 24.2892 Q1086.17 30.9327 1086.17 42.3968 Q1086.17 53.8203 1091.4 60.4638 Q1096.66 67.1073 1105.57 67.1073 Q1114.49 67.1073 1119.67 60.4638 Q1124.9 53.8203 1124.9 42.3968 Q1124.9 30.9327 1119.67 24.2892 Q1114.49 17.6457 1105.57 17.6457 M1105.57 11.0023 Q1118.29 11.0023 1125.91 19.5497 Q1133.53 28.0566 1133.53 42.3968 Q1133.53 56.6965 1125.91 65.2439 Q1118.29 73.7508 1105.57 73.7508 Q1092.81 73.7508 1085.16 65.2439 Q1077.54 56.737 1077.54 42.3968 Q1077.54 28.0566 1085.16 19.5497 Q1092.81 11.0023 1105.57 11.0023 Z" fill="#000000" fill-rule="nonzero" fill-opacity="1" /><path clip-path="url(#clip990)" d="M1172.29 34.1734 Q1171.04 33.4443 1169.54 33.1202 Q1168.08 32.7556 1166.3 32.7556 Q1159.98 32.7556 1156.58 36.8875 Q1153.21 40.9789 1153.21 48.6757 L1153.21 72.576 L1145.72 72.576 L1145.72 27.2059 L1153.21 27.2059 L1153.21 34.2544 Q1155.56 30.1225 1159.33 28.1376 Q1163.1 26.1121 1168.48 26.1121 Q1169.25 26.1121 1170.19 26.2337 Q1171.12 26.3147 1172.25 26.5172 L1172.29 34.1734 Z" fill="#000000" fill-rule="nonzero" fill-opacity="1" /><path clip-path="url(#clip990)" d="M1187.48 14.324 L1187.48 27.2059 L1202.84 27.2059 L1202.84 32.9987 L1187.48 32.9987 L1187.48 57.6282 Q1187.48 63.1779 1188.98 64.7578 Q1190.52 66.3376 1195.18 66.3376 L1202.84 66.3376 L1202.84 72.576 L1195.18 72.576 Q1186.55 72.576 1183.27 69.3758 Q1179.99 66.1351 1179.99 57.6282 L1179.99 32.9987 L1174.52 32.9987 L1174.52 27.2059 L1179.99 27.2059 L1179.99 14.324 L1187.48 14.324 Z" fill="#000000" fill-rule="nonzero" fill-opacity="1" /><path clip-path="url(#clip990)" d="M1250.35 45.1919 L1250.35 72.576 L1242.9 72.576 L1242.9 45.4349 Q1242.9 38.994 1240.39 35.7938 Q1237.88 32.5936 1232.85 32.5936 Q1226.82 32.5936 1223.33 36.4419 Q1219.85 40.2903 1219.85 46.9338 L1219.85 72.576 L1212.36 72.576 L1212.36 9.54393 L1219.85 9.54393 L1219.85 34.2544 Q1222.52 30.163 1226.13 28.1376 Q1229.77 26.1121 1234.51 26.1121 Q1242.33 26.1121 1246.34 30.9732 Q1250.35 35.7938 1250.35 45.1919 Z" fill="#000000" fill-rule="nonzero" fill-opacity="1" /><path clip-path="url(#clip990)" d="M1282.8 32.4315 Q1276.81 32.4315 1273.32 37.1306 Q1269.84 41.7891 1269.84 49.9314 Q1269.84 58.0738 1273.28 62.7728 Q1276.77 67.4314 1282.8 67.4314 Q1288.76 67.4314 1292.24 62.7323 Q1295.72 58.0333 1295.72 49.9314 Q1295.72 41.8701 1292.24 37.1711 Q1288.76 32.4315 1282.8 32.4315 M1282.8 26.1121 Q1292.52 26.1121 1298.07 32.4315 Q1303.62 38.7509 1303.62 49.9314 Q1303.62 61.0714 1298.07 67.4314 Q1292.52 73.7508 1282.8 73.7508 Q1273.04 73.7508 1267.49 67.4314 Q1261.98 61.0714 1261.98 49.9314 Q1261.98 38.7509 1267.49 32.4315 Q1273.04 26.1121 1282.8 26.1121 Z" fill="#000000" fill-rule="nonzero" fill-opacity="1" /><path clip-path="url(#clip990)" d="M1353.69 45.1919 L1353.69 72.576 L1346.24 72.576 L1346.24 45.4349 Q1346.24 38.994 1343.73 35.7938 Q1341.22 32.5936 1336.19 32.5936 Q1330.16 32.5936 1326.67 36.4419 Q1323.19 40.2903 1323.19 46.9338 L1323.19 72.576 L1315.69 72.576 L1315.69 27.2059 L1323.19 27.2059 L1323.19 34.2544 Q1325.86 30.163 1329.47 28.1376 Q1333.11 26.1121 1337.85 26.1121 Q1345.67 26.1121 1349.68 30.9732 Q1353.69 35.7938 1353.69 45.1919 Z" fill="#000000" fill-rule="nonzero" fill-opacity="1" /><path clip-path="url(#clip990)" d="M1386.14 32.4315 Q1380.14 32.4315 1376.66 37.1306 Q1373.18 41.7891 1373.18 49.9314 Q1373.18 58.0738 1376.62 62.7728 Q1380.1 67.4314 1386.14 67.4314 Q1392.09 67.4314 1395.58 62.7323 Q1399.06 58.0333 1399.06 49.9314 Q1399.06 41.8701 1395.58 37.1711 Q1392.09 32.4315 1386.14 32.4315 M1386.14 26.1121 Q1395.86 26.1121 1401.41 32.4315 Q1406.96 38.7509 1406.96 49.9314 Q1406.96 61.0714 1401.41 67.4314 Q1395.86 73.7508 1386.14 73.7508 Q1376.38 73.7508 1370.83 67.4314 Q1365.32 61.0714 1365.32 49.9314 Q1365.32 38.7509 1370.83 32.4315 Q1376.38 26.1121 1386.14 26.1121 Z" fill="#000000" fill-rule="nonzero" fill-opacity="1" /><path clip-path="url(#clip990)" d="M1445.61 34.1734 Q1444.35 33.4443 1442.85 33.1202 Q1441.39 32.7556 1439.61 32.7556 Q1433.29 32.7556 1429.89 36.8875 Q1426.53 40.9789 1426.53 48.6757 L1426.53 72.576 L1419.03 72.576 L1419.03 27.2059 L1426.53 27.2059 L1426.53 34.2544 Q1428.88 30.1225 1432.64 28.1376 Q1436.41 26.1121 1441.8 26.1121 Q1442.57 26.1121 1443.5 26.2337 Q1444.43 26.3147 1445.57 26.5172 L1445.61 34.1734 Z" fill="#000000" fill-rule="nonzero" fill-opacity="1" /><path clip-path="url(#clip990)" d="M1487.29 35.9153 Q1490.09 30.8922 1493.97 28.5022 Q1497.86 26.1121 1503.13 26.1121 Q1510.22 26.1121 1514.07 31.0947 Q1517.92 36.0368 1517.92 45.1919 L1517.92 72.576 L1510.42 72.576 L1510.42 45.4349 Q1510.42 38.913 1508.11 35.7533 Q1505.8 32.5936 1501.06 32.5936 Q1495.27 32.5936 1491.91 36.4419 Q1488.55 40.2903 1488.55 46.9338 L1488.55 72.576 L1481.05 72.576 L1481.05 45.4349 Q1481.05 38.8725 1478.74 35.7533 Q1476.43 32.5936 1471.61 32.5936 Q1465.9 32.5936 1462.54 36.4824 Q1459.18 40.3308 1459.18 46.9338 L1459.18 72.576 L1451.68 72.576 L1451.68 27.2059 L1459.18 27.2059 L1459.18 34.2544 Q1461.73 30.082 1465.29 28.0971 Q1468.86 26.1121 1473.76 26.1121 Q1478.7 26.1121 1482.15 28.6237 Q1485.63 31.1352 1487.29 35.9153 Z" fill="#000000" fill-rule="nonzero" fill-opacity="1" /><path clip-path="url(#clip990)" d="M1553.4 49.7694 Q1544.37 49.7694 1540.88 51.8354 Q1537.4 53.9013 1537.4 58.8839 Q1537.4 62.8538 1539.99 65.2034 Q1542.63 67.5124 1547.12 67.5124 Q1553.32 67.5124 1557.05 63.1374 Q1560.81 58.7219 1560.81 51.4303 L1560.81 49.7694 L1553.4 49.7694 M1568.27 46.6907 L1568.27 72.576 L1560.81 72.576 L1560.81 65.6895 Q1558.26 69.8214 1554.45 71.8063 Q1550.65 73.7508 1545.14 73.7508 Q1538.17 73.7508 1534.04 69.8619 Q1529.95 65.9325 1529.95 59.3701 Q1529.95 51.7138 1535.05 47.825 Q1540.2 43.9361 1550.36 43.9361 L1560.81 43.9361 L1560.81 43.2069 Q1560.81 38.0623 1557.41 35.2672 Q1554.05 32.4315 1547.93 32.4315 Q1544.04 32.4315 1540.36 33.3632 Q1536.67 34.295 1533.27 36.1584 L1533.27 29.2718 Q1537.36 27.692 1541.21 26.9223 Q1545.06 26.1121 1548.7 26.1121 Q1558.55 26.1121 1563.41 31.2163 Q1568.27 36.3204 1568.27 46.6907 Z" fill="#000000" fill-rule="nonzero" fill-opacity="1" /><path clip-path="url(#clip990)" d="M1583.62 9.54393 L1591.08 9.54393 L1591.08 72.576 L1583.62 72.576 L1583.62 9.54393 Z" fill="#000000" fill-rule="nonzero" fill-opacity="1" /><path clip-path="url(#clip990)" d="M1606.67 27.2059 L1614.12 27.2059 L1614.12 72.576 L1606.67 72.576 L1606.67 27.2059 M1606.67 9.54393 L1614.12 9.54393 L1614.12 18.9825 L1606.67 18.9825 L1606.67 9.54393 Z" fill="#000000" fill-rule="nonzero" fill-opacity="1" /><path clip-path="url(#clip990)" d="M1637.09 14.324 L1637.09 27.2059 L1652.45 27.2059 L1652.45 32.9987 L1637.09 32.9987 L1637.09 57.6282 Q1637.09 63.1779 1638.59 64.7578 Q1640.13 66.3376 1644.79 66.3376 L1652.45 66.3376 L1652.45 72.576 L1644.79 72.576 Q1636.16 72.576 1632.88 69.3758 Q1629.6 66.1351 1629.6 57.6282 L1629.6 32.9987 L1624.13 32.9987 L1624.13 27.2059 L1629.6 27.2059 L1629.6 14.324 L1637.09 14.324 Z" fill="#000000" fill-rule="nonzero" fill-opacity="1" /><path clip-path="url(#clip990)" d="M1681.13 76.7889 Q1677.97 84.8907 1674.97 87.3618 Q1671.97 89.8329 1666.95 89.8329 L1660.99 89.8329 L1660.99 83.5945 L1665.37 83.5945 Q1668.45 83.5945 1670.15 82.1361 Q1671.85 80.6778 1673.92 75.2496 L1675.25 71.8468 L1656.9 27.2059 L1664.8 27.2059 L1678.98 62.6918 L1693.16 27.2059 L1701.06 27.2059 L1681.13 76.7889 Z" fill="#000000" fill-rule="nonzero" fill-opacity="1" /><path clip-path="url(#clip990)" d="M1738.04 12.096 L1776.28 12.096 L1776.28 18.9825 L1746.22 18.9825 L1746.22 36.8875 L1775.03 36.8875 L1775.03 43.7741 L1746.22 43.7741 L1746.22 65.6895 L1777.01 65.6895 L1777.01 72.576 L1738.04 72.576 L1738.04 12.096 Z" fill="#000000" fill-rule="nonzero" fill-opacity="1" /><path clip-path="url(#clip990)" d="M1816.43 34.1734 Q1815.17 33.4443 1813.67 33.1202 Q1812.21 32.7556 1810.43 32.7556 Q1804.11 32.7556 1800.71 36.8875 Q1797.35 40.9789 1797.35 48.6757 L1797.35 72.576 L1789.85 72.576 L1789.85 27.2059 L1797.35 27.2059 L1797.35 34.2544 Q1799.7 30.1225 1803.46 28.1376 Q1807.23 26.1121 1812.62 26.1121 Q1813.39 26.1121 1814.32 26.2337 Q1815.25 26.3147 1816.39 26.5172 L1816.43 34.1734 Z" fill="#000000" fill-rule="nonzero" fill-opacity="1" /><path clip-path="url(#clip990)" d="M1849.08 34.1734 Q1847.82 33.4443 1846.32 33.1202 Q1844.86 32.7556 1843.08 32.7556 Q1836.76 32.7556 1833.36 36.8875 Q1830 40.9789 1830 48.6757 L1830 72.576 L1822.5 72.576 L1822.5 27.2059 L1830 27.2059 L1830 34.2544 Q1832.35 30.1225 1836.11 28.1376 Q1839.88 26.1121 1845.27 26.1121 Q1846.04 26.1121 1846.97 26.2337 Q1847.9 26.3147 1849.04 26.5172 L1849.08 34.1734 Z" fill="#000000" fill-rule="nonzero" fill-opacity="1" /><path clip-path="url(#clip990)" d="M1872.65 32.4315 Q1866.66 32.4315 1863.17 37.1306 Q1859.69 41.7891 1859.69 49.9314 Q1859.69 58.0738 1863.13 62.7728 Q1866.62 67.4314 1872.65 67.4314 Q1878.61 67.4314 1882.09 62.7323 Q1885.58 58.0333 1885.58 49.9314 Q1885.58 41.8701 1882.09 37.1711 Q1878.61 32.4315 1872.65 32.4315 M1872.65 26.1121 Q1882.38 26.1121 1887.93 32.4315 Q1893.48 38.7509 1893.48 49.9314 Q1893.48 61.0714 1887.93 67.4314 Q1882.38 73.7508 1872.65 73.7508 Q1862.89 73.7508 1857.34 67.4314 Q1851.83 61.0714 1851.83 49.9314 Q1851.83 38.7509 1857.34 32.4315 Q1862.89 26.1121 1872.65 26.1121 Z" fill="#000000" fill-rule="nonzero" fill-opacity="1" /><path clip-path="url(#clip990)" d="M1932.12 34.1734 Q1930.86 33.4443 1929.37 33.1202 Q1927.91 32.7556 1926.13 32.7556 Q1919.81 32.7556 1916.4 36.8875 Q1913.04 40.9789 1913.04 48.6757 L1913.04 72.576 L1905.55 72.576 L1905.55 27.2059 L1913.04 27.2059 L1913.04 34.2544 Q1915.39 30.1225 1919.16 28.1376 Q1922.93 26.1121 1928.31 26.1121 Q1929.08 26.1121 1930.01 26.2337 Q1930.95 26.3147 1932.08 26.5172 L1932.12 34.1734 Z" fill="#000000" fill-rule="nonzero" fill-opacity="1" /><polyline clip-path="url(#clip992)" style="stroke:#009af9; stroke-linecap:round; stroke-linejoin:round; stroke-width:4; stroke-opacity:1; fill:none" points="301.869,605.303 311.926,605.303 321.982,605.303 332.038,604.422 342.095,596.307 352.151,598.969 362.207,597.418 372.263,590.145 382.32,586.873 392.376,586.046 402.432,593.769 412.489,591.872 422.545,586.853 432.601,585.545 442.658,589.396 452.714,589.371 462.77,585.603 472.827,581.497 482.883,578.964 492.939,581.994 502.996,581.631 513.052,577.865 523.108,575.943 533.165,572.408 543.221,568.472 553.277,566.714 563.334,568.269 573.39,573.796 583.446,573.323 593.503,573.285 603.559,568.6 613.615,569.386 623.672,574.986 633.728,572.337 643.784,567.316 653.841,567.954 663.897,569.38 673.953,569.556 684.01,568.551 694.066,569.093 704.122,572.951 714.179,574.874 724.235,569.304 734.291,571.531 744.347,573.808 754.404,570.15 764.46,567.12 774.516,567.467 784.573,562.018 794.629,559.301 804.685,557.117 814.742,556.081 824.798,557.062 834.854,559.98 844.911,563.535 854.967,563.222 865.023,561.932 875.08,560.721 885.136,562.477 895.192,563.077 905.249,562.924 915.305,563.463 925.361,563.316 935.418,561.957 945.474,555.569 955.53,557.713 965.587,558.88 975.643,561.634 985.699,562.186 995.756,558.506 1005.81,555.559 1015.87,555.828 1025.92,556.403 1035.98,560.891 1046.04,559.269 1056.09,559.286 1066.15,558.395 1076.21,558.225 1086.26,555.757 1096.32,559.211 1106.38,561.102 1116.43,557.581 1126.49,557.377 1136.54,555.137 1146.6,553.737 1156.66,554.418 1166.71,551.272 1176.77,549.924 1186.83,550.161 1196.88,551.768 1206.94,555.198 1216.99,556.281 1227.05,557.414 1237.11,555.226 1247.16,555.061 1257.22,553.748 1267.28,554.313 1277.33,556.371 1287.39,556.217 1297.45,554.25 1307.5,555.59 1317.56,555.04 1327.61,552.121 1337.67,552.629 1347.73,556.17 1357.78,553.734 1367.84,551.021 1377.9,551.041 1387.95,553.86 1398.01,552.885 1408.06,553.294 1418.12,556.065 1428.18,555.322 1438.23,554.502 1448.29,552.81 1458.35,554.054 1468.4,554.031 1478.46,550.636 1488.52,548.227 1498.57,547.605 1508.63,551.313 1518.68,551.835 1528.74,554.133 1538.8,552.817 1548.85,552.576 1558.91,549.283 1568.97,549.031 1579.02,553.818 1589.08,554.404 1599.13,552.983 1609.19,549.48 1619.25,549.567 1629.3,548.146 1639.36,550.831 1649.42,552.425 1659.47,554.189 1669.53,552.909 1679.59,549.684 1689.64,549.038 1699.7,548.809 1709.75,549.008 1719.81,547.432 1729.87,545.965 1739.92,545.057 1749.98,544.631 1760.04,544.659 1770.09,545.416 1780.15,547.677 1790.21,550.412 1800.26,551.743 1810.32,548.642 1820.37,550 1830.43,548.804 1840.49,545.119 1850.54,543.143 1860.6,542.674 1870.66,543.416 1880.71,545.373 1890.77,543.834 1900.82,542.564 1910.88,542.325 1920.94,542.986 1930.99,544.578 1941.05,544.9 1951.11,544.574 1961.16,544.902 1971.22,546.209 1981.28,544.102 1991.33,543.827 2001.39,544.936 2011.44,204.222 2021.5,184.142 2031.56,171.779 2041.61,163.047 2051.67,156.517 2061.73,151.544 2071.78,147.776 2081.84,144.976 2091.89,142.94 2101.95,141.485 2112.01,140.454 2122.06,139.723 2132.12,139.2 2142.18,138.822 2152.23,138.545 2162.29,138.338 2172.35,138.182 2182.4,138.061 2192.46,137.967 2202.51,137.893 2212.57,137.834 2222.63,137.786 2232.68,137.747 2242.74,137.714 2252.8,137.687 2262.85,137.665 2272.91,137.645 2282.97,137.629 2293.02,137.615 "/>
<polyline clip-path="url(#clip992)" style="stroke:#e26f46; stroke-linecap:round; stroke-linejoin:round; stroke-width:4; stroke-opacity:1; fill:none" points="301.869,605.303 311.926,609.037 321.982,605.303 332.038,593.098 342.095,600.839 352.151,596.199 362.207,590.01 372.263,583.954 382.32,581.981 392.376,582.073 402.432,583.828 412.489,575.312 422.545,574.946 432.601,578.339 442.658,571.08 452.714,573.008 462.77,572.785 472.827,566.9 482.883,568.702 492.939,574.395 502.996,571.717 513.052,567.062 523.108,570.733 533.165,568.344 543.221,559.162 553.277,562.832 563.334,557.399 573.39,562.695 583.446,566.498 593.503,562.108 603.559,558.738 613.615,561.021 623.672,564.649 633.728,557.744 643.784,562.114 653.841,559.946 663.897,566.455 673.953,558.549 684.01,566.052 694.066,562.941 704.122,563.351 714.179,558.343 724.235,555.289 734.291,553.926 744.347,556.423 754.404,556.904 764.46,556.563 774.516,561.056 784.573,553.823 794.629,554.089 804.685,558.305 814.742,553.024 824.798,561.278 834.854,557.78 844.911,554.599 854.967,550.775 865.023,555.952 875.08,555.407 885.136,556.285 895.192,557.389 905.249,555.667 915.305,551.073 925.361,553.66 935.418,550.225 945.474,554.327 955.53,555.834 965.587,552.532 975.643,553.454 985.699,552.148 995.756,552.776 1005.81,551.471 1015.87,551.472 1025.92,551.562 1035.98,553.509 1046.04,551.2 1056.09,552.744 1066.15,551.363 1076.21,552.03 1086.26,550.656 1096.32,551.803 1106.38,549.234 1116.43,549.993 1126.49,551.589 1136.54,549.064 1146.6,546.568 1156.66,550.147 1166.71,548.625 1176.77,547.417 1186.83,544.9 1196.88,545.149 1206.94,548.571 1216.99,547.667 1227.05,548.486 1237.11,548.732 1247.16,550.609 1257.22,547.872 1267.28,549.563 1277.33,546.08 1287.39,545.219 1297.45,541.915 1307.5,540.79 1317.56,545.59 1327.61,544.412 1337.67,543.735 1347.73,547.944 1357.78,546.029 1367.84,545.813 1377.9,543.846 1387.95,545.218 1398.01,543.63 1408.06,542.81 1418.12,542.458 1428.18,542.233 1438.23,545.833 1448.29,543.538 1458.35,545.504 1468.4,545.71 1478.46,539.584 1488.52,538.664 1498.57,541.12 1508.63,543.165 1518.68,544.816 1528.74,543.691 1538.8,542.538 1548.85,539.403 1558.91,540.84 1568.97,544.93 1579.02,543.517 1589.08,541.952 1599.13,540.106 1609.19,540.381 1619.25,541.665 1629.3,541.956 1639.36,541.204 1649.42,542.515 1659.47,543.4 1669.53,541.758 1679.59,542.521 1689.64,541.856 1699.7,541.717 1709.75,541.096 1719.81,541.534 1729.87,538.97 1739.92,542.018 1749.98,539.116 1760.04,541.766 1770.09,536.866 1780.15,539.77 1790.21,541.609 1800.26,537.823 1810.32,540.56 1820.37,537.093 1830.43,536.935 1840.49,542.376 1850.54,539.771 1860.6,538.546 1870.66,540.261 1880.71,537.153 1890.77,536.214 1900.82,535.069 1910.88,539.732 1920.94,535.962 1930.99,536.535 1941.05,533.868 1951.11,539.47 1961.16,538.276 1971.22,537.357 1981.28,536.44 1991.33,539.732 2001.39,536.18 2011.44,533.968 2021.5,537.388 2031.56,536.698 2041.61,536.322 2051.67,533.084 2061.73,532.892 2071.78,538.257 2081.84,538.038 2091.89,536.464 2101.95,537.171 2112.01,535.148 2122.06,537.244 2132.12,538.019 2142.18,533.292 2152.23,536.222 2162.29,538.798 2172.35,535.597 2182.4,535.627 2192.46,538.865 2202.51,534.442 2212.57,535.194 2222.63,537.716 2232.68,532.194 2242.74,530.475 2252.8,533.786 2262.85,538.268 2272.91,536.583 2282.97,531.027 2293.02,534.81 "/>
<path clip-path="url(#clip990)" d="M312.489 295.649 L756.258 295.649 L756.258 140.129 L312.489 140.129  Z" fill="#ffffff" fill-rule="evenodd" fill-opacity="1"/>
<polyline clip-path="url(#clip990)" style="stroke:#000000; stroke-linecap:round; stroke-linejoin:round; stroke-width:4; stroke-opacity:1; fill:none" points="312.489,295.649 756.258,295.649 756.258,140.129 312.489,140.129 312.489,295.649 "/>
<polyline clip-path="url(#clip990)" style="stroke:#009af9; stroke-linecap:round; stroke-linejoin:round; stroke-width:4; stroke-opacity:1; fill:none" points="335.94,191.969 476.648,191.969 "/>
<path clip-path="url(#clip990)" d="M515.933 179.296 L509.59 196.494 L522.298 196.494 L515.933 179.296 M513.294 174.689 L518.595 174.689 L531.766 209.249 L526.905 209.249 L523.757 200.383 L508.178 200.383 L505.03 209.249 L500.099 209.249 L513.294 174.689 Z" fill="#000000" fill-rule="nonzero" fill-opacity="1" /><path clip-path="url(#clip990)" d="M558.178 193.601 L558.178 209.249 L553.919 209.249 L553.919 193.74 Q553.919 190.059 552.483 188.231 Q551.048 186.402 548.178 186.402 Q544.729 186.402 542.738 188.601 Q540.747 190.8 540.747 194.596 L540.747 209.249 L536.465 209.249 L536.465 183.323 L540.747 183.323 L540.747 187.351 Q542.275 185.013 544.335 183.856 Q546.419 182.698 549.127 182.698 Q553.595 182.698 555.886 185.476 Q558.178 188.231 558.178 193.601 Z" fill="#000000" fill-rule="nonzero" fill-opacity="1" /><path clip-path="url(#clip990)" d="M578.456 196.217 Q573.294 196.217 571.303 197.397 Q569.312 198.578 569.312 201.425 Q569.312 203.694 570.794 205.036 Q572.298 206.356 574.868 206.356 Q578.409 206.356 580.539 203.856 Q582.692 201.332 582.692 197.166 L582.692 196.217 L578.456 196.217 M586.951 194.457 L586.951 209.249 L582.692 209.249 L582.692 205.314 Q581.233 207.675 579.057 208.809 Q576.881 209.92 573.733 209.92 Q569.752 209.92 567.391 207.698 Q565.053 205.453 565.053 201.703 Q565.053 197.328 567.969 195.106 Q570.909 192.883 576.719 192.883 L582.692 192.883 L582.692 192.467 Q582.692 189.527 580.747 187.93 Q578.826 186.309 575.331 186.309 Q573.108 186.309 571.002 186.842 Q568.895 187.374 566.951 188.439 L566.951 184.504 Q569.289 183.601 571.488 183.161 Q573.687 182.698 575.77 182.698 Q581.395 182.698 584.173 185.615 Q586.951 188.532 586.951 194.457 Z" fill="#000000" fill-rule="nonzero" fill-opacity="1" /><path clip-path="url(#clip990)" d="M595.724 173.231 L599.983 173.231 L599.983 209.249 L595.724 209.249 L595.724 173.231 Z" fill="#000000" fill-rule="nonzero" fill-opacity="1" /><path clip-path="url(#clip990)" d="M619.682 211.656 Q617.877 216.286 616.164 217.698 Q614.451 219.11 611.58 219.11 L608.178 219.11 L608.178 215.545 L610.678 215.545 Q612.437 215.545 613.409 214.712 Q614.381 213.879 615.562 210.777 L616.326 208.832 L605.84 183.323 L610.354 183.323 L618.455 203.601 L626.557 183.323 L631.071 183.323 L619.682 211.656 Z" fill="#000000" fill-rule="nonzero" fill-opacity="1" /><path clip-path="url(#clip990)" d="M641.164 175.962 L641.164 183.323 L649.937 183.323 L649.937 186.633 L641.164 186.633 L641.164 200.707 Q641.164 203.879 642.02 204.781 Q642.9 205.684 645.562 205.684 L649.937 205.684 L649.937 209.249 L645.562 209.249 Q640.631 209.249 638.756 207.42 Q636.881 205.569 636.881 200.707 L636.881 186.633 L633.756 186.633 L633.756 183.323 L636.881 183.323 L636.881 175.962 L641.164 175.962 Z" fill="#000000" fill-rule="nonzero" fill-opacity="1" /><path clip-path="url(#clip990)" d="M655.538 183.323 L659.798 183.323 L659.798 209.249 L655.538 209.249 L655.538 183.323 M655.538 173.231 L659.798 173.231 L659.798 178.624 L655.538 178.624 L655.538 173.231 Z" fill="#000000" fill-rule="nonzero" fill-opacity="1" /><path clip-path="url(#clip990)" d="M687.367 184.319 L687.367 188.3 Q685.561 187.305 683.733 186.819 Q681.927 186.309 680.075 186.309 Q675.932 186.309 673.64 188.948 Q671.349 191.564 671.349 196.309 Q671.349 201.055 673.64 203.694 Q675.932 206.309 680.075 206.309 Q681.927 206.309 683.733 205.823 Q685.561 205.314 687.367 204.319 L687.367 208.254 Q685.585 209.087 683.663 209.504 Q681.765 209.92 679.612 209.92 Q673.756 209.92 670.307 206.24 Q666.858 202.559 666.858 196.309 Q666.858 189.967 670.33 186.333 Q673.825 182.698 679.89 182.698 Q681.858 182.698 683.733 183.115 Q685.608 183.508 687.367 184.319 Z" fill="#000000" fill-rule="nonzero" fill-opacity="1" /><polyline clip-path="url(#clip990)" style="stroke:#e26f46; stroke-linecap:round; stroke-linejoin:round; stroke-width:4; stroke-opacity:1; fill:none" points="335.94,243.809 476.648,243.809 "/>
<path clip-path="url(#clip990)" d="M500.099 226.529 L506.396 226.529 L521.72 255.441 L521.72 226.529 L526.257 226.529 L526.257 261.089 L519.96 261.089 L504.636 232.177 L504.636 261.089 L500.099 261.089 L500.099 226.529 Z" fill="#000000" fill-rule="nonzero" fill-opacity="1" /><path clip-path="url(#clip990)" d="M534.937 250.858 L534.937 235.163 L539.196 235.163 L539.196 250.696 Q539.196 254.376 540.632 256.228 Q542.067 258.057 544.937 258.057 Q548.386 258.057 550.377 255.858 Q552.391 253.659 552.391 249.862 L552.391 235.163 L556.65 235.163 L556.65 261.089 L552.391 261.089 L552.391 257.108 Q550.84 259.469 548.78 260.626 Q546.743 261.76 544.034 261.76 Q539.567 261.76 537.252 258.983 Q534.937 256.205 534.937 250.858 M545.655 234.538 L545.655 234.538 Z" fill="#000000" fill-rule="nonzero" fill-opacity="1" /><path clip-path="url(#clip990)" d="M585.608 240.14 Q587.205 237.27 589.428 235.904 Q591.65 234.538 594.659 234.538 Q598.71 234.538 600.909 237.385 Q603.108 240.21 603.108 245.441 L603.108 261.089 L598.826 261.089 L598.826 245.58 Q598.826 241.853 597.506 240.047 Q596.187 238.242 593.479 238.242 Q590.168 238.242 588.247 240.441 Q586.326 242.64 586.326 246.436 L586.326 261.089 L582.043 261.089 L582.043 245.58 Q582.043 241.83 580.724 240.047 Q579.405 238.242 576.65 238.242 Q573.386 238.242 571.465 240.464 Q569.544 242.663 569.544 246.436 L569.544 261.089 L565.261 261.089 L565.261 235.163 L569.544 235.163 L569.544 239.191 Q571.002 236.807 573.039 235.673 Q575.076 234.538 577.877 234.538 Q580.701 234.538 582.668 235.973 Q584.659 237.409 585.608 240.14 Z" fill="#000000" fill-rule="nonzero" fill-opacity="1" /><path clip-path="url(#clip990)" d="M633.779 247.061 L633.779 249.145 L614.196 249.145 Q614.474 253.543 616.835 255.858 Q619.219 258.149 623.455 258.149 Q625.909 258.149 628.201 257.547 Q630.515 256.946 632.784 255.742 L632.784 259.77 Q630.492 260.742 628.085 261.251 Q625.678 261.76 623.201 261.76 Q616.997 261.76 613.363 258.149 Q609.752 254.538 609.752 248.381 Q609.752 242.015 613.178 238.288 Q616.627 234.538 622.46 234.538 Q627.691 234.538 630.724 237.918 Q633.779 241.274 633.779 247.061 M629.52 245.811 Q629.474 242.316 627.553 240.233 Q625.654 238.149 622.506 238.149 Q618.941 238.149 616.789 240.163 Q614.659 242.177 614.335 245.835 L629.52 245.811 Z" fill="#000000" fill-rule="nonzero" fill-opacity="1" /><path clip-path="url(#clip990)" d="M655.793 239.145 Q655.076 238.728 654.219 238.543 Q653.386 238.335 652.367 238.335 Q648.756 238.335 646.812 240.696 Q644.89 243.034 644.89 247.432 L644.89 261.089 L640.608 261.089 L640.608 235.163 L644.89 235.163 L644.89 239.191 Q646.233 236.83 648.386 235.696 Q650.538 234.538 653.617 234.538 Q654.057 234.538 654.589 234.608 Q655.122 234.654 655.77 234.77 L655.793 239.145 Z" fill="#000000" fill-rule="nonzero" fill-opacity="1" /><path clip-path="url(#clip990)" d="M660.261 235.163 L664.52 235.163 L664.52 261.089 L660.261 261.089 L660.261 235.163 M660.261 225.071 L664.52 225.071 L664.52 230.464 L660.261 230.464 L660.261 225.071 Z" fill="#000000" fill-rule="nonzero" fill-opacity="1" /><path clip-path="url(#clip990)" d="M692.089 236.159 L692.089 240.14 Q690.284 239.145 688.455 238.659 Q686.649 238.149 684.798 238.149 Q680.654 238.149 678.362 240.788 Q676.071 243.404 676.071 248.149 Q676.071 252.895 678.362 255.534 Q680.654 258.149 684.798 258.149 Q686.649 258.149 688.455 257.663 Q690.284 257.154 692.089 256.159 L692.089 260.094 Q690.307 260.927 688.386 261.344 Q686.487 261.76 684.335 261.76 Q678.478 261.76 675.029 258.08 Q671.58 254.399 671.58 248.149 Q671.58 241.807 675.052 238.173 Q678.548 234.538 684.612 234.538 Q686.58 234.538 688.455 234.955 Q690.33 235.348 692.089 236.159 Z" fill="#000000" fill-rule="nonzero" fill-opacity="1" /><path clip-path="url(#clip990)" d="M711.279 248.057 Q706.117 248.057 704.126 249.237 Q702.135 250.418 702.135 253.265 Q702.135 255.534 703.617 256.876 Q705.122 258.196 707.691 258.196 Q711.233 258.196 713.362 255.696 Q715.515 253.172 715.515 249.006 L715.515 248.057 L711.279 248.057 M719.774 246.297 L719.774 261.089 L715.515 261.089 L715.515 257.154 Q714.057 259.515 711.881 260.649 Q709.705 261.76 706.557 261.76 Q702.575 261.76 700.214 259.538 Q697.876 257.293 697.876 253.543 Q697.876 249.168 700.793 246.946 Q703.733 244.723 709.543 244.723 L715.515 244.723 L715.515 244.307 Q715.515 241.367 713.571 239.77 Q711.649 238.149 708.154 238.149 Q705.932 238.149 703.825 238.682 Q701.719 239.214 699.774 240.279 L699.774 236.344 Q702.112 235.441 704.311 235.001 Q706.51 234.538 708.594 234.538 Q714.219 234.538 716.996 237.455 Q719.774 240.372 719.774 246.297 Z" fill="#000000" fill-rule="nonzero" fill-opacity="1" /><path clip-path="url(#clip990)" d="M728.547 225.071 L732.807 225.071 L732.807 261.089 L728.547 261.089 L728.547 225.071 Z" fill="#000000" fill-rule="nonzero" fill-opacity="1" /><path clip-path="url(#clip990)" d="M242.135 1423.18 L2352.76 1423.18 L2352.76 923.472 L242.135 923.472  Z" fill="#ffffff" fill-rule="evenodd" fill-opacity="1"/>
<defs>
  <clipPath id="clip993">
    <rect x="242" y="923" width="2112" height="501"/>
  </clipPath>
</defs>
<polyline clip-path="url(#clip993)" style="stroke:#000000; stroke-linecap:round; stroke-linejoin:round; stroke-width:2; stroke-opacity:0.1; fill:none" points="281.757,1423.18 281.757,923.472 "/>
<polyline clip-path="url(#clip993)" style="stroke:#000000; stroke-linecap:round; stroke-linejoin:round; stroke-width:2; stroke-opacity:0.1; fill:none" points="784.573,1423.18 784.573,923.472 "/>
<polyline clip-path="url(#clip993)" style="stroke:#000000; stroke-linecap:round; stroke-linejoin:round; stroke-width:2; stroke-opacity:0.1; fill:none" points="1287.39,1423.18 1287.39,923.472 "/>
<polyline clip-path="url(#clip993)" style="stroke:#000000; stroke-linecap:round; stroke-linejoin:round; stroke-width:2; stroke-opacity:0.1; fill:none" points="1790.21,1423.18 1790.21,923.472 "/>
<polyline clip-path="url(#clip993)" style="stroke:#000000; stroke-linecap:round; stroke-linejoin:round; stroke-width:2; stroke-opacity:0.1; fill:none" points="2293.02,1423.18 2293.02,923.472 "/>
<polyline clip-path="url(#clip993)" style="stroke:#000000; stroke-linecap:round; stroke-linejoin:round; stroke-width:2; stroke-opacity:0.1; fill:none" points="242.135,1390.91 2352.76,1390.91 "/>
<polyline clip-path="url(#clip993)" style="stroke:#000000; stroke-linecap:round; stroke-linejoin:round; stroke-width:2; stroke-opacity:0.1; fill:none" points="242.135,1252.2 2352.76,1252.2 "/>
<polyline clip-path="url(#clip993)" style="stroke:#000000; stroke-linecap:round; stroke-linejoin:round; stroke-width:2; stroke-opacity:0.1; fill:none" points="242.135,1113.49 2352.76,1113.49 "/>
<polyline clip-path="url(#clip993)" style="stroke:#000000; stroke-linecap:round; stroke-linejoin:round; stroke-width:2; stroke-opacity:0.1; fill:none" points="242.135,974.776 2352.76,974.776 "/>
<polyline clip-path="url(#clip990)" style="stroke:#000000; stroke-linecap:round; stroke-linejoin:round; stroke-width:4; stroke-opacity:1; fill:none" points="242.135,1423.18 2352.76,1423.18 "/>
<polyline clip-path="url(#clip990)" style="stroke:#000000; stroke-linecap:round; stroke-linejoin:round; stroke-width:4; stroke-opacity:1; fill:none" points="281.757,1423.18 281.757,1404.28 "/>
<polyline clip-path="url(#clip990)" style="stroke:#000000; stroke-linecap:round; stroke-linejoin:round; stroke-width:4; stroke-opacity:1; fill:none" points="784.573,1423.18 784.573,1404.28 "/>
<polyline clip-path="url(#clip990)" style="stroke:#000000; stroke-linecap:round; stroke-linejoin:round; stroke-width:4; stroke-opacity:1; fill:none" points="1287.39,1423.18 1287.39,1404.28 "/>
<polyline clip-path="url(#clip990)" style="stroke:#000000; stroke-linecap:round; stroke-linejoin:round; stroke-width:4; stroke-opacity:1; fill:none" points="1790.21,1423.18 1790.21,1404.28 "/>
<polyline clip-path="url(#clip990)" style="stroke:#000000; stroke-linecap:round; stroke-linejoin:round; stroke-width:4; stroke-opacity:1; fill:none" points="2293.02,1423.18 2293.02,1404.28 "/>
<path clip-path="url(#clip990)" d="M281.757 1454.1 Q278.145 1454.1 276.317 1457.66 Q274.511 1461.2 274.511 1468.33 Q274.511 1475.44 276.317 1479.01 Q278.145 1482.55 281.757 1482.55 Q285.391 1482.55 287.196 1479.01 Q289.025 1475.44 289.025 1468.33 Q289.025 1461.2 287.196 1457.66 Q285.391 1454.1 281.757 1454.1 M281.757 1450.39 Q287.567 1450.39 290.622 1455 Q293.701 1459.58 293.701 1468.33 Q293.701 1477.06 290.622 1481.67 Q287.567 1486.25 281.757 1486.25 Q275.946 1486.25 272.868 1481.67 Q269.812 1477.06 269.812 1468.33 Q269.812 1459.58 272.868 1455 Q275.946 1450.39 281.757 1450.39 Z" fill="#000000" fill-rule="nonzero" fill-opacity="1" /><path clip-path="url(#clip990)" d="M759.272 1451.02 L777.628 1451.02 L777.628 1454.96 L763.554 1454.96 L763.554 1463.43 Q764.573 1463.08 765.591 1462.92 Q766.61 1462.73 767.628 1462.73 Q773.415 1462.73 776.795 1465.9 Q780.175 1469.08 780.175 1474.49 Q780.175 1480.07 776.702 1483.17 Q773.23 1486.25 766.911 1486.25 Q764.735 1486.25 762.466 1485.88 Q760.221 1485.51 757.814 1484.77 L757.814 1480.07 Q759.897 1481.2 762.119 1481.76 Q764.341 1482.32 766.818 1482.32 Q770.823 1482.32 773.161 1480.21 Q775.499 1478.1 775.499 1474.49 Q775.499 1470.88 773.161 1468.77 Q770.823 1466.67 766.818 1466.67 Q764.943 1466.67 763.068 1467.08 Q761.216 1467.5 759.272 1468.38 L759.272 1451.02 Z" fill="#000000" fill-rule="nonzero" fill-opacity="1" /><path clip-path="url(#clip990)" d="M799.388 1454.1 Q795.776 1454.1 793.948 1457.66 Q792.142 1461.2 792.142 1468.33 Q792.142 1475.44 793.948 1479.01 Q795.776 1482.55 799.388 1482.55 Q803.022 1482.55 804.827 1479.01 Q806.656 1475.44 806.656 1468.33 Q806.656 1461.2 804.827 1457.66 Q803.022 1454.1 799.388 1454.1 M799.388 1450.39 Q805.198 1450.39 808.253 1455 Q811.332 1459.58 811.332 1468.33 Q811.332 1477.06 808.253 1481.67 Q805.198 1486.25 799.388 1486.25 Q793.577 1486.25 790.499 1481.67 Q787.443 1477.06 787.443 1468.33 Q787.443 1459.58 790.499 1455 Q793.577 1450.39 799.388 1450.39 Z" fill="#000000" fill-rule="nonzero" fill-opacity="1" /><path clip-path="url(#clip990)" d="M1247 1481.64 L1254.63 1481.64 L1254.63 1455.28 L1246.32 1456.95 L1246.32 1452.69 L1254.59 1451.02 L1259.26 1451.02 L1259.26 1481.64 L1266.9 1481.64 L1266.9 1485.58 L1247 1485.58 L1247 1481.64 Z" fill="#000000" fill-rule="nonzero" fill-opacity="1" /><path clip-path="url(#clip990)" d="M1286.35 1454.1 Q1282.74 1454.1 1280.91 1457.66 Q1279.1 1461.2 1279.1 1468.33 Q1279.1 1475.44 1280.91 1479.01 Q1282.74 1482.55 1286.35 1482.55 Q1289.98 1482.55 1291.79 1479.01 Q1293.62 1475.44 1293.62 1468.33 Q1293.62 1461.2 1291.79 1457.66 Q1289.98 1454.1 1286.35 1454.1 M1286.35 1450.39 Q1292.16 1450.39 1295.21 1455 Q1298.29 1459.58 1298.29 1468.33 Q1298.29 1477.06 1295.21 1481.67 Q1292.16 1486.25 1286.35 1486.25 Q1280.54 1486.25 1277.46 1481.67 Q1274.4 1477.06 1274.4 1468.33 Q1274.4 1459.58 1277.46 1455 Q1280.54 1450.39 1286.35 1450.39 Z" fill="#000000" fill-rule="nonzero" fill-opacity="1" /><path clip-path="url(#clip990)" d="M1316.51 1454.1 Q1312.9 1454.1 1311.07 1457.66 Q1309.26 1461.2 1309.26 1468.33 Q1309.26 1475.44 1311.07 1479.01 Q1312.9 1482.55 1316.51 1482.55 Q1320.14 1482.55 1321.95 1479.01 Q1323.78 1475.44 1323.78 1468.33 Q1323.78 1461.2 1321.95 1457.66 Q1320.14 1454.1 1316.51 1454.1 M1316.51 1450.39 Q1322.32 1450.39 1325.37 1455 Q1328.45 1459.58 1328.45 1468.33 Q1328.45 1477.06 1325.37 1481.67 Q1322.32 1486.25 1316.51 1486.25 Q1310.7 1486.25 1307.62 1481.67 Q1304.56 1477.06 1304.56 1468.33 Q1304.56 1459.58 1307.62 1455 Q1310.7 1450.39 1316.51 1450.39 Z" fill="#000000" fill-rule="nonzero" fill-opacity="1" /><path clip-path="url(#clip990)" d="M1749.81 1481.64 L1757.45 1481.64 L1757.45 1455.28 L1749.14 1456.95 L1749.14 1452.69 L1757.4 1451.02 L1762.08 1451.02 L1762.08 1481.64 L1769.72 1481.64 L1769.72 1485.58 L1749.81 1485.58 L1749.81 1481.64 Z" fill="#000000" fill-rule="nonzero" fill-opacity="1" /><path clip-path="url(#clip990)" d="M1779.21 1451.02 L1797.57 1451.02 L1797.57 1454.96 L1783.49 1454.96 L1783.49 1463.43 Q1784.51 1463.08 1785.53 1462.92 Q1786.55 1462.73 1787.57 1462.73 Q1793.35 1462.73 1796.73 1465.9 Q1800.11 1469.08 1800.11 1474.49 Q1800.11 1480.07 1796.64 1483.17 Q1793.17 1486.25 1786.85 1486.25 Q1784.67 1486.25 1782.4 1485.88 Q1780.16 1485.51 1777.75 1484.77 L1777.75 1480.07 Q1779.83 1481.2 1782.06 1481.76 Q1784.28 1482.32 1786.76 1482.32 Q1790.76 1482.32 1793.1 1480.21 Q1795.44 1478.1 1795.44 1474.49 Q1795.44 1470.88 1793.1 1468.77 Q1790.76 1466.67 1786.76 1466.67 Q1784.88 1466.67 1783.01 1467.08 Q1781.15 1467.5 1779.21 1468.38 L1779.21 1451.02 Z" fill="#000000" fill-rule="nonzero" fill-opacity="1" /><path clip-path="url(#clip990)" d="M1819.33 1454.1 Q1815.71 1454.1 1813.89 1457.66 Q1812.08 1461.2 1812.08 1468.33 Q1812.08 1475.44 1813.89 1479.01 Q1815.71 1482.55 1819.33 1482.55 Q1822.96 1482.55 1824.77 1479.01 Q1826.59 1475.44 1826.59 1468.33 Q1826.59 1461.2 1824.77 1457.66 Q1822.96 1454.1 1819.33 1454.1 M1819.33 1450.39 Q1825.14 1450.39 1828.19 1455 Q1831.27 1459.58 1831.27 1468.33 Q1831.27 1477.06 1828.19 1481.67 Q1825.14 1486.25 1819.33 1486.25 Q1813.52 1486.25 1810.44 1481.67 Q1807.38 1477.06 1807.38 1468.33 Q1807.38 1459.58 1810.44 1455 Q1813.52 1450.39 1819.33 1450.39 Z" fill="#000000" fill-rule="nonzero" fill-opacity="1" /><path clip-path="url(#clip990)" d="M2256.71 1481.64 L2273.03 1481.64 L2273.03 1485.58 L2251.09 1485.58 L2251.09 1481.64 Q2253.75 1478.89 2258.33 1474.26 Q2262.94 1469.61 2264.12 1468.27 Q2266.37 1465.74 2267.25 1464.01 Q2268.15 1462.25 2268.15 1460.56 Q2268.15 1457.8 2266.2 1456.07 Q2264.28 1454.33 2261.18 1454.33 Q2258.98 1454.33 2256.53 1455.09 Q2254.1 1455.86 2251.32 1457.41 L2251.32 1452.69 Q2254.14 1451.55 2256.6 1450.97 Q2259.05 1450.39 2261.09 1450.39 Q2266.46 1450.39 2269.65 1453.08 Q2272.85 1455.77 2272.85 1460.26 Q2272.85 1462.39 2272.04 1464.31 Q2271.25 1466.2 2269.14 1468.8 Q2268.57 1469.47 2265.46 1472.69 Q2262.36 1475.88 2256.71 1481.64 Z" fill="#000000" fill-rule="nonzero" fill-opacity="1" /><path clip-path="url(#clip990)" d="M2292.85 1454.1 Q2289.24 1454.1 2287.41 1457.66 Q2285.6 1461.2 2285.6 1468.33 Q2285.6 1475.44 2287.41 1479.01 Q2289.24 1482.55 2292.85 1482.55 Q2296.48 1482.55 2298.29 1479.01 Q2300.12 1475.44 2300.12 1468.33 Q2300.12 1461.2 2298.29 1457.66 Q2296.48 1454.1 2292.85 1454.1 M2292.85 1450.39 Q2298.66 1450.39 2301.71 1455 Q2304.79 1459.58 2304.79 1468.33 Q2304.79 1477.06 2301.71 1481.67 Q2298.66 1486.25 2292.85 1486.25 Q2287.04 1486.25 2283.96 1481.67 Q2280.9 1477.06 2280.9 1468.33 Q2280.9 1459.58 2283.96 1455 Q2287.04 1450.39 2292.85 1450.39 Z" fill="#000000" fill-rule="nonzero" fill-opacity="1" /><path clip-path="url(#clip990)" d="M2323.01 1454.1 Q2319.4 1454.1 2317.57 1457.66 Q2315.76 1461.2 2315.76 1468.33 Q2315.76 1475.44 2317.57 1479.01 Q2319.4 1482.55 2323.01 1482.55 Q2326.64 1482.55 2328.45 1479.01 Q2330.28 1475.44 2330.28 1468.33 Q2330.28 1461.2 2328.45 1457.66 Q2326.64 1454.1 2323.01 1454.1 M2323.01 1450.39 Q2328.82 1450.39 2331.88 1455 Q2334.95 1459.58 2334.95 1468.33 Q2334.95 1477.06 2331.88 1481.67 Q2328.82 1486.25 2323.01 1486.25 Q2317.2 1486.25 2314.12 1481.67 Q2311.07 1477.06 2311.07 1468.33 Q2311.07 1459.58 2314.12 1455 Q2317.2 1450.39 2323.01 1450.39 Z" fill="#000000" fill-rule="nonzero" fill-opacity="1" /><path clip-path="url(#clip990)" d="M1312.37 1546.53 L1312.37 1568.04 L1306.52 1568.04 L1306.52 1546.72 Q1306.52 1541.66 1304.54 1539.14 Q1302.57 1536.63 1298.62 1536.63 Q1293.88 1536.63 1291.14 1539.65 Q1288.41 1542.68 1288.41 1547.9 L1288.41 1568.04 L1282.52 1568.04 L1282.52 1532.4 L1288.41 1532.4 L1288.41 1537.93 Q1290.51 1534.72 1293.34 1533.13 Q1296.2 1531.54 1299.93 1531.54 Q1306.07 1531.54 1309.22 1535.36 Q1312.37 1539.14 1312.37 1546.53 Z" fill="#000000" fill-rule="nonzero" fill-opacity="1" /><polyline clip-path="url(#clip990)" style="stroke:#000000; stroke-linecap:round; stroke-linejoin:round; stroke-width:4; stroke-opacity:1; fill:none" points="242.135,1423.18 242.135,923.472 "/>
<polyline clip-path="url(#clip990)" style="stroke:#000000; stroke-linecap:round; stroke-linejoin:round; stroke-width:4; stroke-opacity:1; fill:none" points="242.135,1390.91 261.032,1390.91 "/>
<polyline clip-path="url(#clip990)" style="stroke:#000000; stroke-linecap:round; stroke-linejoin:round; stroke-width:4; stroke-opacity:1; fill:none" points="242.135,1252.2 261.032,1252.2 "/>
<polyline clip-path="url(#clip990)" style="stroke:#000000; stroke-linecap:round; stroke-linejoin:round; stroke-width:4; stroke-opacity:1; fill:none" points="242.135,1113.49 261.032,1113.49 "/>
<polyline clip-path="url(#clip990)" style="stroke:#000000; stroke-linecap:round; stroke-linejoin:round; stroke-width:4; stroke-opacity:1; fill:none" points="242.135,974.776 261.032,974.776 "/>
<path clip-path="url(#clip990)" d="M115.256 1391.36 L144.931 1391.36 L144.931 1395.29 L115.256 1395.29 L115.256 1391.36 Z" fill="#000000" fill-rule="nonzero" fill-opacity="1" /><path clip-path="url(#clip990)" d="M155.834 1404.25 L163.473 1404.25 L163.473 1377.89 L155.163 1379.55 L155.163 1375.29 L163.427 1373.63 L168.102 1373.63 L168.102 1404.25 L175.741 1404.25 L175.741 1408.19 L155.834 1408.19 L155.834 1404.25 Z" fill="#000000" fill-rule="nonzero" fill-opacity="1" /><path clip-path="url(#clip990)" d="M185.232 1373.63 L203.588 1373.63 L203.588 1377.56 L189.514 1377.56 L189.514 1386.03 Q190.533 1385.69 191.551 1385.52 Q192.57 1385.34 193.588 1385.34 Q199.375 1385.34 202.755 1388.51 Q206.135 1391.68 206.135 1397.1 Q206.135 1402.68 202.662 1405.78 Q199.19 1408.86 192.871 1408.86 Q190.695 1408.86 188.426 1408.49 Q186.181 1408.12 183.774 1407.38 L183.774 1402.68 Q185.857 1403.81 188.079 1404.37 Q190.301 1404.92 192.778 1404.92 Q196.783 1404.92 199.121 1402.82 Q201.459 1400.71 201.459 1397.1 Q201.459 1393.49 199.121 1391.38 Q196.783 1389.27 192.778 1389.27 Q190.903 1389.27 189.028 1389.69 Q187.176 1390.11 185.232 1390.99 L185.232 1373.63 Z" fill="#000000" fill-rule="nonzero" fill-opacity="1" /><path clip-path="url(#clip990)" d="M114.26 1252.65 L143.936 1252.65 L143.936 1256.58 L114.26 1256.58 L114.26 1252.65 Z" fill="#000000" fill-rule="nonzero" fill-opacity="1" /><path clip-path="url(#clip990)" d="M154.839 1265.54 L162.477 1265.54 L162.477 1239.18 L154.167 1240.84 L154.167 1236.58 L162.431 1234.92 L167.107 1234.92 L167.107 1265.54 L174.746 1265.54 L174.746 1269.48 L154.839 1269.48 L154.839 1265.54 Z" fill="#000000" fill-rule="nonzero" fill-opacity="1" /><path clip-path="url(#clip990)" d="M194.19 1237.99 Q190.579 1237.99 188.75 1241.56 Q186.945 1245.1 186.945 1252.23 Q186.945 1259.34 188.75 1262.9 Q190.579 1266.44 194.19 1266.44 Q197.825 1266.44 199.63 1262.9 Q201.459 1259.34 201.459 1252.23 Q201.459 1245.1 199.63 1241.56 Q197.825 1237.99 194.19 1237.99 M194.19 1234.29 Q200 1234.29 203.056 1238.9 Q206.135 1243.48 206.135 1252.23 Q206.135 1260.96 203.056 1265.56 Q200 1270.15 194.19 1270.15 Q188.38 1270.15 185.301 1265.56 Q182.246 1260.96 182.246 1252.23 Q182.246 1243.48 185.301 1238.9 Q188.38 1234.29 194.19 1234.29 Z" fill="#000000" fill-rule="nonzero" fill-opacity="1" /><path clip-path="url(#clip990)" d="M145.417 1113.94 L175.093 1113.94 L175.093 1117.87 L145.417 1117.87 L145.417 1113.94 Z" fill="#000000" fill-rule="nonzero" fill-opacity="1" /><path clip-path="url(#clip990)" d="M185.232 1096.21 L203.588 1096.21 L203.588 1100.14 L189.514 1100.14 L189.514 1108.61 Q190.533 1108.27 191.551 1108.1 Q192.57 1107.92 193.588 1107.92 Q199.375 1107.92 202.755 1111.09 Q206.135 1114.26 206.135 1119.68 Q206.135 1125.26 202.662 1128.36 Q199.19 1131.44 192.871 1131.44 Q190.695 1131.44 188.426 1131.07 Q186.181 1130.7 183.774 1129.96 L183.774 1125.26 Q185.857 1126.39 188.079 1126.95 Q190.301 1127.5 192.778 1127.5 Q196.783 1127.5 199.121 1125.4 Q201.459 1123.29 201.459 1119.68 Q201.459 1116.07 199.121 1113.96 Q196.783 1111.85 192.778 1111.85 Q190.903 1111.85 189.028 1112.27 Q187.176 1112.69 185.232 1113.57 L185.232 1096.21 Z" fill="#000000" fill-rule="nonzero" fill-opacity="1" /><path clip-path="url(#clip990)" d="M194.19 960.575 Q190.579 960.575 188.75 964.14 Q186.945 967.682 186.945 974.811 Q186.945 981.918 188.75 985.482 Q190.579 989.024 194.19 989.024 Q197.825 989.024 199.63 985.482 Q201.459 981.918 201.459 974.811 Q201.459 967.682 199.63 964.14 Q197.825 960.575 194.19 960.575 M194.19 956.871 Q200 956.871 203.056 961.478 Q206.135 966.061 206.135 974.811 Q206.135 983.538 203.056 988.144 Q200 992.728 194.19 992.728 Q188.38 992.728 185.301 988.144 Q182.246 983.538 182.246 974.811 Q182.246 966.061 185.301 961.478 Q188.38 956.871 194.19 956.871 Z" fill="#000000" fill-rule="nonzero" fill-opacity="1" /><path clip-path="url(#clip990)" d="M16.4842 1249.57 L16.4842 1219.53 L21.895 1219.53 L21.895 1243.14 L35.9632 1243.14 L35.9632 1220.51 L41.3741 1220.51 L41.3741 1243.14 L58.5933 1243.14 L58.5933 1218.95 L64.0042 1218.95 L64.0042 1249.57 L16.4842 1249.57 Z" fill="#000000" fill-rule="nonzero" fill-opacity="1" /><path clip-path="url(#clip990)" d="M33.8307 1187.98 Q33.2578 1188.97 33.0032 1190.15 Q32.7167 1191.29 32.7167 1192.69 Q32.7167 1197.66 35.9632 1200.33 Q39.1779 1202.97 45.2253 1202.97 L64.0042 1202.97 L64.0042 1208.86 L28.3562 1208.86 L28.3562 1202.97 L33.8944 1202.97 Q30.6479 1201.13 29.0883 1198.17 Q27.4968 1195.21 27.4968 1190.97 Q27.4968 1190.37 27.5923 1189.64 Q27.656 1188.91 27.8151 1188.01 L33.8307 1187.98 Z" fill="#000000" fill-rule="nonzero" fill-opacity="1" /><path clip-path="url(#clip990)" d="M33.8307 1162.33 Q33.2578 1163.32 33.0032 1164.49 Q32.7167 1165.64 32.7167 1167.04 Q32.7167 1172.01 35.9632 1174.68 Q39.1779 1177.32 45.2253 1177.32 L64.0042 1177.32 L64.0042 1183.21 L28.3562 1183.21 L28.3562 1177.32 L33.8944 1177.32 Q30.6479 1175.47 29.0883 1172.51 Q27.4968 1169.55 27.4968 1165.32 Q27.4968 1164.72 27.5923 1163.98 Q27.656 1163.25 27.8151 1162.36 L33.8307 1162.33 Z" fill="#000000" fill-rule="nonzero" fill-opacity="1" /><path clip-path="url(#clip990)" d="M32.4621 1143.81 Q32.4621 1148.52 36.1542 1151.25 Q39.8145 1153.99 46.212 1153.99 Q52.6095 1153.99 56.3017 1151.28 Q59.9619 1148.55 59.9619 1143.81 Q59.9619 1139.13 56.2698 1136.39 Q52.5777 1133.65 46.212 1133.65 Q39.8781 1133.65 36.186 1136.39 Q32.4621 1139.13 32.4621 1143.81 M27.4968 1143.81 Q27.4968 1136.17 32.4621 1131.81 Q37.4273 1127.45 46.212 1127.45 Q54.9649 1127.45 59.9619 1131.81 Q64.9272 1136.17 64.9272 1143.81 Q64.9272 1151.48 59.9619 1155.84 Q54.9649 1160.16 46.212 1160.16 Q37.4273 1160.16 32.4621 1155.84 Q27.4968 1151.48 27.4968 1143.81 Z" fill="#000000" fill-rule="nonzero" fill-opacity="1" /><path clip-path="url(#clip990)" d="M33.8307 1097.08 Q33.2578 1098.07 33.0032 1099.25 Q32.7167 1100.39 32.7167 1101.79 Q32.7167 1106.76 35.9632 1109.43 Q39.1779 1112.07 45.2253 1112.07 L64.0042 1112.07 L64.0042 1117.96 L28.3562 1117.96 L28.3562 1112.07 L33.8944 1112.07 Q30.6479 1110.23 29.0883 1107.27 Q27.4968 1104.31 27.4968 1100.07 Q27.4968 1099.47 27.5923 1098.74 Q27.656 1098 27.8151 1097.11 L33.8307 1097.08 Z" fill="#000000" fill-rule="nonzero" fill-opacity="1" /><path clip-path="url(#clip990)" d="M656.086 812.096 L664.269 812.096 L664.269 865.689 L693.719 865.689 L693.719 872.576 L656.086 872.576 L656.086 812.096 Z" fill="#000000" fill-rule="nonzero" fill-opacity="1" /><path clip-path="url(#clip990)" d="M718.105 832.432 Q712.11 832.432 708.626 837.131 Q705.142 841.789 705.142 849.931 Q705.142 858.074 708.586 862.773 Q712.069 867.431 718.105 867.431 Q724.06 867.431 727.544 862.732 Q731.028 858.033 731.028 849.931 Q731.028 841.87 727.544 837.171 Q724.06 832.432 718.105 832.432 M718.105 826.112 Q727.827 826.112 733.377 832.432 Q738.927 838.751 738.927 849.931 Q738.927 861.071 733.377 867.431 Q727.827 873.751 718.105 873.751 Q708.343 873.751 702.793 867.431 Q697.284 861.071 697.284 849.931 Q697.284 838.751 702.793 832.432 Q708.343 826.112 718.105 826.112 Z" fill="#000000" fill-rule="nonzero" fill-opacity="1" /><path clip-path="url(#clip990)" d="M781.137 849.364 Q781.137 841.263 777.775 836.807 Q774.453 832.351 768.417 832.351 Q762.422 832.351 759.06 836.807 Q755.738 841.263 755.738 849.364 Q755.738 857.426 759.06 861.882 Q762.422 866.338 768.417 866.338 Q774.453 866.338 777.775 861.882 Q781.137 857.426 781.137 849.364 M788.591 866.945 Q788.591 878.531 783.446 884.162 Q778.302 889.833 767.688 889.833 Q763.759 889.833 760.275 889.225 Q756.791 888.658 753.51 887.443 L753.51 880.192 Q756.791 881.974 759.992 882.825 Q763.192 883.675 766.514 883.675 Q773.846 883.675 777.491 879.827 Q781.137 876.019 781.137 868.282 L781.137 864.596 Q778.828 868.606 775.223 870.591 Q771.618 872.576 766.595 872.576 Q758.25 872.576 753.146 866.216 Q748.041 859.856 748.041 849.364 Q748.041 838.832 753.146 832.472 Q758.25 826.112 766.595 826.112 Q771.618 826.112 775.223 828.097 Q778.828 830.082 781.137 834.092 L781.137 827.206 L788.591 827.206 L788.591 866.945 Z" fill="#000000" fill-rule="nonzero" fill-opacity="1" /><path clip-path="url(#clip990)" d="M800.177 846.529 L822.011 846.529 L822.011 853.172 L800.177 853.172 L800.177 846.529 Z" fill="#000000" fill-rule="nonzero" fill-opacity="1" /><path clip-path="url(#clip990)" d="M862.804 828.543 L862.804 835.591 Q859.644 833.971 856.241 833.161 Q852.838 832.351 849.192 832.351 Q843.643 832.351 840.848 834.052 Q838.093 835.753 838.093 839.156 Q838.093 841.749 840.078 843.247 Q842.063 844.706 848.058 846.043 L850.61 846.61 Q858.55 848.311 861.872 851.43 Q865.234 854.509 865.234 860.059 Q865.234 866.378 860.211 870.064 Q855.228 873.751 846.478 873.751 Q842.833 873.751 838.863 873.022 Q834.933 872.333 830.558 870.915 L830.558 863.218 Q834.69 865.365 838.701 866.459 Q842.711 867.512 846.64 867.512 Q851.907 867.512 854.742 865.73 Q857.578 863.907 857.578 860.626 Q857.578 857.588 855.512 855.967 Q853.486 854.347 846.559 852.848 L843.967 852.24 Q837.04 850.782 833.961 847.784 Q830.882 844.746 830.882 839.48 Q830.882 833.08 835.419 829.596 Q839.956 826.112 848.301 826.112 Q852.433 826.112 856.079 826.72 Q859.725 827.327 862.804 828.543 Z" fill="#000000" fill-rule="nonzero" fill-opacity="1" /><path clip-path="url(#clip990)" d="M909.753 828.948 L909.753 835.915 Q906.594 834.173 903.394 833.323 Q900.234 832.432 896.993 832.432 Q889.742 832.432 885.732 837.05 Q881.721 841.627 881.721 849.931 Q881.721 858.236 885.732 862.854 Q889.742 867.431 896.993 867.431 Q900.234 867.431 903.394 866.581 Q906.594 865.689 909.753 863.948 L909.753 870.834 Q906.634 872.292 903.272 873.022 Q899.95 873.751 896.183 873.751 Q885.934 873.751 879.898 867.31 Q873.862 860.869 873.862 849.931 Q873.862 838.832 879.939 832.472 Q886.056 826.112 896.669 826.112 Q900.112 826.112 903.394 826.841 Q906.675 827.53 909.753 828.948 Z" fill="#000000" fill-rule="nonzero" fill-opacity="1" /><path clip-path="url(#clip990)" d="M943.335 849.769 Q934.302 849.769 930.818 851.835 Q927.334 853.901 927.334 858.884 Q927.334 862.854 929.927 865.203 Q932.56 867.512 937.057 867.512 Q943.254 867.512 946.981 863.137 Q950.749 858.722 950.749 851.43 L950.749 849.769 L943.335 849.769 M958.202 846.691 L958.202 872.576 L950.749 872.576 L950.749 865.689 Q948.197 869.821 944.389 871.806 Q940.581 873.751 935.072 873.751 Q928.104 873.751 923.972 869.862 Q919.881 865.933 919.881 859.37 Q919.881 851.714 924.985 847.825 Q930.13 843.936 940.297 843.936 L950.749 843.936 L950.749 843.207 Q950.749 838.062 947.346 835.267 Q943.984 832.432 937.867 832.432 Q933.978 832.432 930.292 833.363 Q926.605 834.295 923.202 836.158 L923.202 829.272 Q927.294 827.692 931.142 826.922 Q934.991 826.112 938.636 826.112 Q948.48 826.112 953.341 831.216 Q958.202 836.32 958.202 846.691 Z" fill="#000000" fill-rule="nonzero" fill-opacity="1" /><path clip-path="url(#clip990)" d="M973.555 809.544 L981.009 809.544 L981.009 872.576 L973.555 872.576 L973.555 809.544 Z" fill="#000000" fill-rule="nonzero" fill-opacity="1" /><path clip-path="url(#clip990)" d="M1035.41 848.028 L1035.41 851.673 L1001.14 851.673 Q1001.63 859.37 1005.76 863.421 Q1009.93 867.431 1017.35 867.431 Q1021.64 867.431 1025.65 866.378 Q1029.7 865.325 1033.67 863.218 L1033.67 870.267 Q1029.66 871.968 1025.45 872.86 Q1021.23 873.751 1016.9 873.751 Q1006.04 873.751 999.684 867.431 Q993.364 861.112 993.364 850.337 Q993.364 839.197 999.359 832.675 Q1005.4 826.112 1015.6 826.112 Q1024.76 826.112 1030.07 832.026 Q1035.41 837.9 1035.41 848.028 M1027.96 845.84 Q1027.88 839.723 1024.52 836.077 Q1021.19 832.432 1015.68 832.432 Q1009.45 832.432 1005.68 835.956 Q1001.95 839.48 1001.38 845.881 L1027.96 845.84 Z" fill="#000000" fill-rule="nonzero" fill-opacity="1" /><path clip-path="url(#clip990)" d="M1082.52 818.821 L1082.52 865.851 L1092.41 865.851 Q1104.93 865.851 1110.72 860.18 Q1116.55 854.509 1116.55 842.275 Q1116.55 830.123 1110.72 824.492 Q1104.93 818.821 1092.41 818.821 L1082.52 818.821 M1074.34 812.096 L1091.15 812.096 Q1108.73 812.096 1116.96 819.428 Q1125.18 826.72 1125.18 842.275 Q1125.18 857.912 1116.92 865.244 Q1108.65 872.576 1091.15 872.576 L1074.34 872.576 L1074.34 812.096 Z" fill="#000000" fill-rule="nonzero" fill-opacity="1" /><path clip-path="url(#clip990)" d="M1137.9 827.206 L1145.35 827.206 L1145.35 872.576 L1137.9 872.576 L1137.9 827.206 M1137.9 809.544 L1145.35 809.544 L1145.35 818.983 L1137.9 818.983 L1137.9 809.544 Z" fill="#000000" fill-rule="nonzero" fill-opacity="1" /><path clip-path="url(#clip990)" d="M1181.57 849.769 Q1172.54 849.769 1169.05 851.835 Q1165.57 853.901 1165.57 858.884 Q1165.57 862.854 1168.16 865.203 Q1170.79 867.512 1175.29 867.512 Q1181.49 867.512 1185.21 863.137 Q1188.98 858.722 1188.98 851.43 L1188.98 849.769 L1181.57 849.769 M1196.44 846.691 L1196.44 872.576 L1188.98 872.576 L1188.98 865.689 Q1186.43 869.821 1182.62 871.806 Q1178.81 873.751 1173.31 873.751 Q1166.34 873.751 1162.21 869.862 Q1158.11 865.933 1158.11 859.37 Q1158.11 851.714 1163.22 847.825 Q1168.36 843.936 1178.53 843.936 L1188.98 843.936 L1188.98 843.207 Q1188.98 838.062 1185.58 835.267 Q1182.22 832.432 1176.1 832.432 Q1172.21 832.432 1168.53 833.363 Q1164.84 834.295 1161.44 836.158 L1161.44 829.272 Q1165.53 827.692 1169.38 826.922 Q1173.22 826.112 1176.87 826.112 Q1186.71 826.112 1191.57 831.216 Q1196.44 836.32 1196.44 846.691 Z" fill="#000000" fill-rule="nonzero" fill-opacity="1" /><path clip-path="url(#clip990)" d="M1241.64 849.364 Q1241.64 841.263 1238.28 836.807 Q1234.96 832.351 1228.92 832.351 Q1222.93 832.351 1219.57 836.807 Q1216.24 841.263 1216.24 849.364 Q1216.24 857.426 1219.57 861.882 Q1222.93 866.338 1228.92 866.338 Q1234.96 866.338 1238.28 861.882 Q1241.64 857.426 1241.64 849.364 M1249.1 866.945 Q1249.1 878.531 1243.95 884.162 Q1238.81 889.833 1228.2 889.833 Q1224.27 889.833 1220.78 889.225 Q1217.3 888.658 1214.02 887.443 L1214.02 880.192 Q1217.3 881.974 1220.5 882.825 Q1223.7 883.675 1227.02 883.675 Q1234.35 883.675 1238 879.827 Q1241.64 876.019 1241.64 868.282 L1241.64 864.596 Q1239.34 868.606 1235.73 870.591 Q1232.12 872.576 1227.1 872.576 Q1218.76 872.576 1213.65 866.216 Q1208.55 859.856 1208.55 849.364 Q1208.55 838.832 1213.65 832.472 Q1218.76 826.112 1227.1 826.112 Q1232.12 826.112 1235.73 828.097 Q1239.34 830.082 1241.64 834.092 L1241.64 827.206 L1249.1 827.206 L1249.1 866.945 Z" fill="#000000" fill-rule="nonzero" fill-opacity="1" /><path clip-path="url(#clip990)" d="M1282.03 832.432 Q1276.04 832.432 1272.55 837.131 Q1269.07 841.789 1269.07 849.931 Q1269.07 858.074 1272.51 862.773 Q1276 867.431 1282.03 867.431 Q1287.99 867.431 1291.47 862.732 Q1294.95 858.033 1294.95 849.931 Q1294.95 841.87 1291.47 837.171 Q1287.99 832.432 1282.03 832.432 M1282.03 826.112 Q1291.75 826.112 1297.3 832.432 Q1302.85 838.751 1302.85 849.931 Q1302.85 861.071 1297.3 867.431 Q1291.75 873.751 1282.03 873.751 Q1272.27 873.751 1266.72 867.431 Q1261.21 861.071 1261.21 849.931 Q1261.21 838.751 1266.72 832.432 Q1272.27 826.112 1282.03 826.112 Z" fill="#000000" fill-rule="nonzero" fill-opacity="1" /><path clip-path="url(#clip990)" d="M1352.92 845.192 L1352.92 872.576 L1345.47 872.576 L1345.47 845.435 Q1345.47 838.994 1342.96 835.794 Q1340.45 832.594 1335.42 832.594 Q1329.39 832.594 1325.9 836.442 Q1322.42 840.29 1322.42 846.934 L1322.42 872.576 L1314.92 872.576 L1314.92 827.206 L1322.42 827.206 L1322.42 834.254 Q1325.09 830.163 1328.7 828.138 Q1332.34 826.112 1337.08 826.112 Q1344.9 826.112 1348.91 830.973 Q1352.92 835.794 1352.92 845.192 Z" fill="#000000" fill-rule="nonzero" fill-opacity="1" /><path clip-path="url(#clip990)" d="M1388.41 849.769 Q1379.37 849.769 1375.89 851.835 Q1372.41 853.901 1372.41 858.884 Q1372.41 862.854 1375 865.203 Q1377.63 867.512 1382.13 867.512 Q1388.33 867.512 1392.05 863.137 Q1395.82 858.722 1395.82 851.43 L1395.82 849.769 L1388.41 849.769 M1403.28 846.691 L1403.28 872.576 L1395.82 872.576 L1395.82 865.689 Q1393.27 869.821 1389.46 871.806 Q1385.65 873.751 1380.14 873.751 Q1373.18 873.751 1369.05 869.862 Q1364.95 865.933 1364.95 859.37 Q1364.95 851.714 1370.06 847.825 Q1375.2 843.936 1385.37 843.936 L1395.82 843.936 L1395.82 843.207 Q1395.82 838.062 1392.42 835.267 Q1389.06 832.432 1382.94 832.432 Q1379.05 832.432 1375.36 833.363 Q1371.68 834.295 1368.28 836.158 L1368.28 829.272 Q1372.37 827.692 1376.22 826.922 Q1380.06 826.112 1383.71 826.112 Q1393.55 826.112 1398.41 831.216 Q1403.28 836.32 1403.28 846.691 Z" fill="#000000" fill-rule="nonzero" fill-opacity="1" /><path clip-path="url(#clip990)" d="M1418.63 809.544 L1426.08 809.544 L1426.08 872.576 L1418.63 872.576 L1418.63 809.544 Z" fill="#000000" fill-rule="nonzero" fill-opacity="1" /><path clip-path="url(#clip990)" d="M1441.68 827.206 L1449.13 827.206 L1449.13 872.576 L1441.68 872.576 L1441.68 827.206 M1441.68 809.544 L1449.13 809.544 L1449.13 818.983 L1441.68 818.983 L1441.68 809.544 Z" fill="#000000" fill-rule="nonzero" fill-opacity="1" /><path clip-path="url(#clip990)" d="M1461.49 827.206 L1496.89 827.206 L1496.89 834.011 L1468.86 866.621 L1496.89 866.621 L1496.89 872.576 L1460.47 872.576 L1460.47 865.77 L1488.51 833.161 L1461.49 833.161 L1461.49 827.206 Z" fill="#000000" fill-rule="nonzero" fill-opacity="1" /><path clip-path="url(#clip990)" d="M1528.89 849.769 Q1519.86 849.769 1516.38 851.835 Q1512.89 853.901 1512.89 858.884 Q1512.89 862.854 1515.49 865.203 Q1518.12 867.512 1522.61 867.512 Q1528.81 867.512 1532.54 863.137 Q1536.31 858.722 1536.31 851.43 L1536.31 849.769 L1528.89 849.769 M1543.76 846.691 L1543.76 872.576 L1536.31 872.576 L1536.31 865.689 Q1533.75 869.821 1529.95 871.806 Q1526.14 873.751 1520.63 873.751 Q1513.66 873.751 1509.53 869.862 Q1505.44 865.933 1505.44 859.37 Q1505.44 851.714 1510.54 847.825 Q1515.69 843.936 1525.86 843.936 L1536.31 843.936 L1536.31 843.207 Q1536.31 838.062 1532.9 835.267 Q1529.54 832.432 1523.42 832.432 Q1519.54 832.432 1515.85 833.363 Q1512.16 834.295 1508.76 836.158 L1508.76 829.272 Q1512.85 827.692 1516.7 826.922 Q1520.55 826.112 1524.19 826.112 Q1534.04 826.112 1538.9 831.216 Q1543.76 836.32 1543.76 846.691 Z" fill="#000000" fill-rule="nonzero" fill-opacity="1" /><path clip-path="url(#clip990)" d="M1566.49 814.324 L1566.49 827.206 L1581.84 827.206 L1581.84 832.999 L1566.49 832.999 L1566.49 857.628 Q1566.49 863.178 1567.98 864.758 Q1569.52 866.338 1574.18 866.338 L1581.84 866.338 L1581.84 872.576 L1574.18 872.576 Q1565.55 872.576 1562.27 869.376 Q1558.99 866.135 1558.99 857.628 L1558.99 832.999 L1553.52 832.999 L1553.52 827.206 L1558.99 827.206 L1558.99 814.324 L1566.49 814.324 Z" fill="#000000" fill-rule="nonzero" fill-opacity="1" /><path clip-path="url(#clip990)" d="M1591.64 827.206 L1599.1 827.206 L1599.1 872.576 L1591.64 872.576 L1591.64 827.206 M1591.64 809.544 L1599.1 809.544 L1599.1 818.983 L1591.64 818.983 L1591.64 809.544 Z" fill="#000000" fill-rule="nonzero" fill-opacity="1" /><path clip-path="url(#clip990)" d="M1632.27 832.432 Q1626.28 832.432 1622.79 837.131 Q1619.31 841.789 1619.31 849.931 Q1619.31 858.074 1622.75 862.773 Q1626.24 867.431 1632.27 867.431 Q1638.23 867.431 1641.71 862.732 Q1645.2 858.033 1645.2 849.931 Q1645.2 841.87 1641.71 837.171 Q1638.23 832.432 1632.27 832.432 M1632.27 826.112 Q1641.99 826.112 1647.54 832.432 Q1653.09 838.751 1653.09 849.931 Q1653.09 861.071 1647.54 867.431 Q1641.99 873.751 1632.27 873.751 Q1622.51 873.751 1616.96 867.431 Q1611.45 861.071 1611.45 849.931 Q1611.45 838.751 1616.96 832.432 Q1622.51 826.112 1632.27 826.112 Z" fill="#000000" fill-rule="nonzero" fill-opacity="1" /><path clip-path="url(#clip990)" d="M1703.16 845.192 L1703.16 872.576 L1695.71 872.576 L1695.71 845.435 Q1695.71 838.994 1693.2 835.794 Q1690.69 832.594 1685.66 832.594 Q1679.63 832.594 1676.14 836.442 Q1672.66 840.29 1672.66 846.934 L1672.66 872.576 L1665.17 872.576 L1665.17 827.206 L1672.66 827.206 L1672.66 834.254 Q1675.33 830.163 1678.94 828.138 Q1682.59 826.112 1687.32 826.112 Q1695.14 826.112 1699.15 830.973 Q1703.16 835.794 1703.16 845.192 Z" fill="#000000" fill-rule="nonzero" fill-opacity="1" /><path clip-path="url(#clip990)" d="M1744.73 812.096 L1782.97 812.096 L1782.97 818.983 L1752.91 818.983 L1752.91 836.888 L1781.71 836.888 L1781.71 843.774 L1752.91 843.774 L1752.91 865.689 L1783.7 865.689 L1783.7 872.576 L1744.73 872.576 L1744.73 812.096 Z" fill="#000000" fill-rule="nonzero" fill-opacity="1" /><path clip-path="url(#clip990)" d="M1823.11 834.173 Q1821.86 833.444 1820.36 833.12 Q1818.9 832.756 1817.12 832.756 Q1810.8 832.756 1807.39 836.888 Q1804.03 840.979 1804.03 848.676 L1804.03 872.576 L1796.54 872.576 L1796.54 827.206 L1804.03 827.206 L1804.03 834.254 Q1806.38 830.123 1810.15 828.138 Q1813.92 826.112 1819.3 826.112 Q1820.07 826.112 1821 826.234 Q1821.94 826.315 1823.07 826.517 L1823.11 834.173 Z" fill="#000000" fill-rule="nonzero" fill-opacity="1" /><path clip-path="url(#clip990)" d="M1855.76 834.173 Q1854.51 833.444 1853.01 833.12 Q1851.55 832.756 1849.77 832.756 Q1843.45 832.756 1840.04 836.888 Q1836.68 840.979 1836.68 848.676 L1836.68 872.576 L1829.19 872.576 L1829.19 827.206 L1836.68 827.206 L1836.68 834.254 Q1839.03 830.123 1842.8 828.138 Q1846.57 826.112 1851.95 826.112 Q1852.72 826.112 1853.65 826.234 Q1854.59 826.315 1855.72 826.517 L1855.76 834.173 Z" fill="#000000" fill-rule="nonzero" fill-opacity="1" /><path clip-path="url(#clip990)" d="M1879.34 832.432 Q1873.34 832.432 1869.86 837.131 Q1866.37 841.789 1866.37 849.931 Q1866.37 858.074 1869.82 862.773 Q1873.3 867.431 1879.34 867.431 Q1885.29 867.431 1888.78 862.732 Q1892.26 858.033 1892.26 849.931 Q1892.26 841.87 1888.78 837.171 Q1885.29 832.432 1879.34 832.432 M1879.34 826.112 Q1889.06 826.112 1894.61 832.432 Q1900.16 838.751 1900.16 849.931 Q1900.16 861.071 1894.61 867.431 Q1889.06 873.751 1879.34 873.751 Q1869.57 873.751 1864.03 867.431 Q1858.52 861.071 1858.52 849.931 Q1858.52 838.751 1864.03 832.432 Q1869.57 826.112 1879.34 826.112 Z" fill="#000000" fill-rule="nonzero" fill-opacity="1" /><path clip-path="url(#clip990)" d="M1938.8 834.173 Q1937.55 833.444 1936.05 833.12 Q1934.59 832.756 1932.81 832.756 Q1926.49 832.756 1923.09 836.888 Q1919.72 840.979 1919.72 848.676 L1919.72 872.576 L1912.23 872.576 L1912.23 827.206 L1919.72 827.206 L1919.72 834.254 Q1922.07 830.123 1925.84 828.138 Q1929.61 826.112 1935 826.112 Q1935.77 826.112 1936.7 826.234 Q1937.63 826.315 1938.76 826.517 L1938.8 834.173 Z" fill="#000000" fill-rule="nonzero" fill-opacity="1" /><polyline clip-path="url(#clip993)" style="stroke:#009af9; stroke-linecap:round; stroke-linejoin:round; stroke-width:4; stroke-opacity:1; fill:none" points="301.869,1409.04 311.926,1404.15 321.982,1409.04 332.038,1398.62 342.095,1400.69 352.151,1388.26 362.207,1391.29 372.263,1383.98 382.32,1376.34 392.376,1373.58 402.432,1381.94 412.489,1378.85 422.545,1370.53 432.601,1369.03 442.658,1371.83 452.714,1374.84 462.77,1375.75 472.827,1366.4 482.883,1371.58 492.939,1372.38 502.996,1365.29 513.052,1359.03 523.108,1359.64 533.165,1362.96 543.221,1362.14 553.277,1361.11 563.334,1361.56 573.39,1361.18 583.446,1361.64 593.503,1362.54 603.559,1357.22 613.615,1362.41 623.672,1359.03 633.728,1353.57 643.784,1358.78 653.841,1361.3 663.897,1353.65 673.953,1360.64 684.01,1350.26 694.066,1350.91 704.122,1356.36 714.179,1358.33 724.235,1352.27 734.291,1354.17 744.347,1353.21 754.404,1347.66 764.46,1348.18 774.516,1348.98 784.573,1348.15 794.629,1348.99 804.685,1348.4 814.742,1349.74 824.798,1345.88 834.854,1346.08 844.911,1338.83 854.967,1338.76 865.023,1338.32 875.08,1341.2 885.136,1343.58 895.192,1345.45 905.249,1342.56 915.305,1338.84 925.361,1339.07 935.418,1339.37 945.474,1330.49 955.53,1332.33 965.587,1333.94 975.643,1335.65 985.699,1338.38 995.756,1333.27 1005.81,1330.13 1015.87,1329.94 1025.92,1330.36 1035.98,1335.41 1046.04,1333.76 1056.09,1334.77 1066.15,1334.01 1076.21,1332.33 1086.26,1329.99 1096.32,1334.13 1106.38,1335.41 1116.43,1332.17 1126.49,1331.55 1136.54,1329.26 1146.6,1326.98 1156.66,1327.51 1166.71,1331.98 1176.77,1331.88 1186.83,1329.19 1196.88,1328.1 1206.94,1328.53 1216.99,1330.98 1227.05,1331.05 1237.11,1329.5 1247.16,1332.26 1257.22,1332.2 1267.28,1328.27 1277.33,1330.45 1287.39,1330.66 1297.45,1332.37 1307.5,1329.43 1317.56,1332.59 1327.61,1327.06 1337.67,1328.48 1347.73,1329.65 1357.78,1325.63 1367.84,1322.91 1377.9,1322.84 1387.95,1325.38 1398.01,1324.4 1408.06,1326 1418.12,1328.56 1428.18,1328.33 1438.23,1327.36 1448.29,1325.26 1458.35,1325.81 1468.4,1325.12 1478.46,1321.92 1488.52,1319.72 1498.57,1318.93 1508.63,1322.27 1518.68,1322.81 1528.74,1325.58 1538.8,1324.76 1548.85,1323.71 1558.91,1321.23 1568.97,1320.43 1579.02,1326.26 1589.08,1325.68 1599.13,1323.51 1609.19,1320.22 1619.25,1320.2 1629.3,1318.85 1639.36,1321.33 1649.42,1324.61 1659.47,1324.77 1669.53,1323.45 1679.59,1321.06 1689.64,1319.57 1699.7,1319.51 1709.75,1319.61 1719.81,1322.13 1729.87,1325.71 1739.92,1321.75 1749.98,1323.05 1760.04,1320.9 1770.09,1320.73 1780.15,1323.62 1790.21,1320.99 1800.26,1323.18 1810.32,1322.84 1820.37,1322.07 1830.43,1321 1840.49,1321 1850.54,1324.05 1860.6,1323.83 1870.66,1321.91 1880.71,1321.37 1890.77,1322.31 1900.82,1325.16 1910.88,1324.69 1920.94,1321.68 1930.99,1324.68 1941.05,1325.13 1951.11,1321.75 1961.16,1322.21 1971.22,1326.53 1981.28,1324.68 1991.33,1324.12 2001.39,1323.28 2011.44,989.64 2021.5,973.897 2031.56,963.983 2041.61,956.895 2051.67,951.571 2061.73,947.526 2071.78,944.494 2081.84,942.287 2091.89,940.736 2101.95,939.684 2112.01,938.995 2122.06,938.56 2132.12,938.298 2142.18,938.154 2152.23,938.088 2162.29,938.077 2172.35,938.102 2182.4,938.151 2192.46,938.217 2202.51,938.089 2212.57,937.896 2222.63,937.803 2232.68,937.777 2242.74,937.796 2252.8,937.845 2262.85,937.914 2272.91,937.864 2282.97,937.692 2293.02,937.615 "/>
<polyline clip-path="url(#clip993)" style="stroke:#e26f46; stroke-linecap:round; stroke-linejoin:round; stroke-width:4; stroke-opacity:1; fill:none" points="301.869,1409.04 311.926,1380.94 321.982,1379.11 332.038,1386.7 342.095,1373.09 352.151,1366.96 362.207,1370.42 372.263,1370.33 382.32,1371.46 392.376,1369.34 402.432,1366.48 412.489,1368.85 422.545,1367.25 432.601,1359.22 442.658,1359.6 452.714,1366.24 462.77,1354.81 472.827,1357.7 482.883,1354.36 492.939,1361.5 502.996,1362.22 513.052,1360.15 523.108,1359.68 533.165,1355.12 543.221,1358.6 553.277,1353.09 563.334,1349.61 573.39,1354.21 583.446,1353.78 593.503,1355.27 603.559,1346.6 613.615,1342.37 623.672,1349.52 633.728,1347.32 643.784,1349.79 653.841,1348.75 663.897,1350.91 673.953,1344.53 684.01,1350.67 694.066,1345.86 704.122,1343.94 714.179,1337.96 724.235,1341.66 734.291,1344.87 744.347,1343.5 754.404,1344.72 764.46,1341.19 774.516,1342.66 784.573,1342.16 794.629,1341.74 804.685,1344.39 814.742,1343.44 824.798,1345.52 834.854,1341.4 844.911,1335.94 854.967,1337.85 865.023,1334.79 875.08,1338.11 885.136,1339.79 895.192,1335.97 905.249,1336.78 915.305,1335.17 925.361,1334.29 935.418,1338.32 945.474,1332.73 955.53,1338.07 965.587,1332.99 975.643,1335.75 985.699,1329.82 995.756,1337.03 1005.81,1332.65 1015.87,1329.51 1025.92,1331.91 1035.98,1333.96 1046.04,1330.87 1056.09,1332.46 1066.15,1329.85 1076.21,1331.28 1086.26,1329.54 1096.32,1332.38 1106.38,1334.16 1116.43,1327.4 1126.49,1329.99 1136.54,1326.71 1146.6,1330.71 1156.66,1330.53 1166.71,1329.78 1176.77,1329.88 1186.83,1328.34 1196.88,1327.25 1206.94,1330.85 1216.99,1326.49 1227.05,1326 1237.11,1329.91 1247.16,1329.65 1257.22,1329.62 1267.28,1329.37 1277.33,1326.05 1287.39,1327.3 1297.45,1322.52 1307.5,1327.35 1317.56,1329.69 1327.61,1330.32 1337.67,1325.45 1347.73,1325 1357.78,1325.24 1367.84,1323.84 1377.9,1327.77 1387.95,1327.51 1398.01,1321.81 1408.06,1321.61 1418.12,1324.57 1428.18,1319.58 1438.23,1325.1 1448.29,1321.2 1458.35,1326.76 1468.4,1322.19 1478.46,1320.41 1488.52,1322.18 1498.57,1322.22 1508.63,1324.59 1518.68,1328.7 1528.74,1321.93 1538.8,1317.91 1548.85,1319.24 1558.91,1323.26 1568.97,1326.14 1579.02,1320.32 1589.08,1321.53 1599.13,1313.92 1609.19,1317.36 1619.25,1325.27 1629.3,1320.57 1639.36,1319.49 1649.42,1321.73 1659.47,1320.31 1669.53,1316.88 1679.59,1324.76 1689.64,1323.02 1699.7,1320.75 1709.75,1316.9 1719.81,1322.85 1729.87,1319.98 1739.92,1318.57 1749.98,1317.48 1760.04,1321.63 1770.09,1319.81 1780.15,1317.77 1790.21,1319.04 1800.26,1319.2 1810.32,1315.87 1820.37,1309.96 1830.43,1315.47 1840.49,1318.28 1850.54,1318.42 1860.6,1314.06 1870.66,1317.97 1880.71,1313.31 1890.77,1313.83 1900.82,1310.36 1910.88,1314.52 1920.94,1314.93 1930.99,1317.43 1941.05,1313.11 1951.11,1317.22 1961.16,1312.55 1971.22,1313.62 1981.28,1314.29 1991.33,1318.24 2001.39,1317.04 2011.44,1316.84 2021.5,1316.87 2031.56,1310.59 2041.61,1312.06 2051.67,1313.13 2061.73,1317.04 2071.78,1311.64 2081.84,1313.87 2091.89,1311.51 2101.95,1310.36 2112.01,1315.86 2122.06,1314.47 2132.12,1313.67 2142.18,1310.28 2152.23,1312.9 2162.29,1315.16 2172.35,1311.74 2182.4,1316.01 2192.46,1313.01 2202.51,1315.11 2212.57,1313.48 2222.63,1311.21 2232.68,1310.06 2242.74,1310.33 2252.8,1309.43 2262.85,1314.03 2272.91,1312.41 2282.97,1311.42 2293.02,1313.21 "/>
<path clip-path="url(#clip990)" d="M312.489 1095.65 L756.258 1095.65 L756.258 940.129 L312.489 940.129  Z" fill="#ffffff" fill-rule="evenodd" fill-opacity="1"/>
<polyline clip-path="url(#clip990)" style="stroke:#000000; stroke-linecap:round; stroke-linejoin:round; stroke-width:4; stroke-opacity:1; fill:none" points="312.489,1095.65 756.258,1095.65 756.258,940.129 312.489,940.129 312.489,1095.65 "/>
<polyline clip-path="url(#clip990)" style="stroke:#009af9; stroke-linecap:round; stroke-linejoin:round; stroke-width:4; stroke-opacity:1; fill:none" points="335.94,991.969 476.648,991.969 "/>
<path clip-path="url(#clip990)" d="M515.933 979.296 L509.59 996.494 L522.298 996.494 L515.933 979.296 M513.294 974.689 L518.595 974.689 L531.766 1009.25 L526.905 1009.25 L523.757 1000.38 L508.178 1000.38 L505.03 1009.25 L500.099 1009.25 L513.294 974.689 Z" fill="#000000" fill-rule="nonzero" fill-opacity="1" /><path clip-path="url(#clip990)" d="M558.178 993.601 L558.178 1009.25 L553.919 1009.25 L553.919 993.74 Q553.919 990.059 552.483 988.231 Q551.048 986.402 548.178 986.402 Q544.729 986.402 542.738 988.601 Q540.747 990.8 540.747 994.596 L540.747 1009.25 L536.465 1009.25 L536.465 983.323 L540.747 983.323 L540.747 987.351 Q542.275 985.013 544.335 983.856 Q546.419 982.698 549.127 982.698 Q553.595 982.698 555.886 985.476 Q558.178 988.231 558.178 993.601 Z" fill="#000000" fill-rule="nonzero" fill-opacity="1" /><path clip-path="url(#clip990)" d="M578.456 996.217 Q573.294 996.217 571.303 997.397 Q569.312 998.578 569.312 1001.43 Q569.312 1003.69 570.794 1005.04 Q572.298 1006.36 574.868 1006.36 Q578.409 1006.36 580.539 1003.86 Q582.692 1001.33 582.692 997.166 L582.692 996.217 L578.456 996.217 M586.951 994.457 L586.951 1009.25 L582.692 1009.25 L582.692 1005.31 Q581.233 1007.67 579.057 1008.81 Q576.881 1009.92 573.733 1009.92 Q569.752 1009.92 567.391 1007.7 Q565.053 1005.45 565.053 1001.7 Q565.053 997.328 567.969 995.106 Q570.909 992.883 576.719 992.883 L582.692 992.883 L582.692 992.467 Q582.692 989.527 580.747 987.93 Q578.826 986.309 575.331 986.309 Q573.108 986.309 571.002 986.842 Q568.895 987.374 566.951 988.439 L566.951 984.504 Q569.289 983.601 571.488 983.161 Q573.687 982.698 575.77 982.698 Q581.395 982.698 584.173 985.615 Q586.951 988.532 586.951 994.457 Z" fill="#000000" fill-rule="nonzero" fill-opacity="1" /><path clip-path="url(#clip990)" d="M595.724 973.231 L599.983 973.231 L599.983 1009.25 L595.724 1009.25 L595.724 973.231 Z" fill="#000000" fill-rule="nonzero" fill-opacity="1" /><path clip-path="url(#clip990)" d="M619.682 1011.66 Q617.877 1016.29 616.164 1017.7 Q614.451 1019.11 611.58 1019.11 L608.178 1019.11 L608.178 1015.55 L610.678 1015.55 Q612.437 1015.55 613.409 1014.71 Q614.381 1013.88 615.562 1010.78 L616.326 1008.83 L605.84 983.323 L610.354 983.323 L618.455 1003.6 L626.557 983.323 L631.071 983.323 L619.682 1011.66 Z" fill="#000000" fill-rule="nonzero" fill-opacity="1" /><path clip-path="url(#clip990)" d="M641.164 975.962 L641.164 983.323 L649.937 983.323 L649.937 986.633 L641.164 986.633 L641.164 1000.71 Q641.164 1003.88 642.02 1004.78 Q642.9 1005.68 645.562 1005.68 L649.937 1005.68 L649.937 1009.25 L645.562 1009.25 Q640.631 1009.25 638.756 1007.42 Q636.881 1005.57 636.881 1000.71 L636.881 986.633 L633.756 986.633 L633.756 983.323 L636.881 983.323 L636.881 975.962 L641.164 975.962 Z" fill="#000000" fill-rule="nonzero" fill-opacity="1" /><path clip-path="url(#clip990)" d="M655.538 983.323 L659.798 983.323 L659.798 1009.25 L655.538 1009.25 L655.538 983.323 M655.538 973.231 L659.798 973.231 L659.798 978.624 L655.538 978.624 L655.538 973.231 Z" fill="#000000" fill-rule="nonzero" fill-opacity="1" /><path clip-path="url(#clip990)" d="M687.367 984.319 L687.367 988.3 Q685.561 987.305 683.733 986.819 Q681.927 986.309 680.075 986.309 Q675.932 986.309 673.64 988.948 Q671.349 991.564 671.349 996.309 Q671.349 1001.05 673.64 1003.69 Q675.932 1006.31 680.075 1006.31 Q681.927 1006.31 683.733 1005.82 Q685.561 1005.31 687.367 1004.32 L687.367 1008.25 Q685.585 1009.09 683.663 1009.5 Q681.765 1009.92 679.612 1009.92 Q673.756 1009.92 670.307 1006.24 Q666.858 1002.56 666.858 996.309 Q666.858 989.967 670.33 986.333 Q673.825 982.698 679.89 982.698 Q681.858 982.698 683.733 983.115 Q685.608 983.508 687.367 984.319 Z" fill="#000000" fill-rule="nonzero" fill-opacity="1" /><polyline clip-path="url(#clip990)" style="stroke:#e26f46; stroke-linecap:round; stroke-linejoin:round; stroke-width:4; stroke-opacity:1; fill:none" points="335.94,1043.81 476.648,1043.81 "/>
<path clip-path="url(#clip990)" d="M500.099 1026.53 L506.396 1026.53 L521.72 1055.44 L521.72 1026.53 L526.257 1026.53 L526.257 1061.09 L519.96 1061.09 L504.636 1032.18 L504.636 1061.09 L500.099 1061.09 L500.099 1026.53 Z" fill="#000000" fill-rule="nonzero" fill-opacity="1" /><path clip-path="url(#clip990)" d="M534.937 1050.86 L534.937 1035.16 L539.196 1035.16 L539.196 1050.7 Q539.196 1054.38 540.632 1056.23 Q542.067 1058.06 544.937 1058.06 Q548.386 1058.06 550.377 1055.86 Q552.391 1053.66 552.391 1049.86 L552.391 1035.16 L556.65 1035.16 L556.65 1061.09 L552.391 1061.09 L552.391 1057.11 Q550.84 1059.47 548.78 1060.63 Q546.743 1061.76 544.034 1061.76 Q539.567 1061.76 537.252 1058.98 Q534.937 1056.2 534.937 1050.86 M545.655 1034.54 L545.655 1034.54 Z" fill="#000000" fill-rule="nonzero" fill-opacity="1" /><path clip-path="url(#clip990)" d="M585.608 1040.14 Q587.205 1037.27 589.428 1035.9 Q591.65 1034.54 594.659 1034.54 Q598.71 1034.54 600.909 1037.39 Q603.108 1040.21 603.108 1045.44 L603.108 1061.09 L598.826 1061.09 L598.826 1045.58 Q598.826 1041.85 597.506 1040.05 Q596.187 1038.24 593.479 1038.24 Q590.168 1038.24 588.247 1040.44 Q586.326 1042.64 586.326 1046.44 L586.326 1061.09 L582.043 1061.09 L582.043 1045.58 Q582.043 1041.83 580.724 1040.05 Q579.405 1038.24 576.65 1038.24 Q573.386 1038.24 571.465 1040.46 Q569.544 1042.66 569.544 1046.44 L569.544 1061.09 L565.261 1061.09 L565.261 1035.16 L569.544 1035.16 L569.544 1039.19 Q571.002 1036.81 573.039 1035.67 Q575.076 1034.54 577.877 1034.54 Q580.701 1034.54 582.668 1035.97 Q584.659 1037.41 585.608 1040.14 Z" fill="#000000" fill-rule="nonzero" fill-opacity="1" /><path clip-path="url(#clip990)" d="M633.779 1047.06 L633.779 1049.14 L614.196 1049.14 Q614.474 1053.54 616.835 1055.86 Q619.219 1058.15 623.455 1058.15 Q625.909 1058.15 628.201 1057.55 Q630.515 1056.95 632.784 1055.74 L632.784 1059.77 Q630.492 1060.74 628.085 1061.25 Q625.678 1061.76 623.201 1061.76 Q616.997 1061.76 613.363 1058.15 Q609.752 1054.54 609.752 1048.38 Q609.752 1042.02 613.178 1038.29 Q616.627 1034.54 622.46 1034.54 Q627.691 1034.54 630.724 1037.92 Q633.779 1041.27 633.779 1047.06 M629.52 1045.81 Q629.474 1042.32 627.553 1040.23 Q625.654 1038.15 622.506 1038.15 Q618.941 1038.15 616.789 1040.16 Q614.659 1042.18 614.335 1045.83 L629.52 1045.81 Z" fill="#000000" fill-rule="nonzero" fill-opacity="1" /><path clip-path="url(#clip990)" d="M655.793 1039.14 Q655.076 1038.73 654.219 1038.54 Q653.386 1038.33 652.367 1038.33 Q648.756 1038.33 646.812 1040.7 Q644.89 1043.03 644.89 1047.43 L644.89 1061.09 L640.608 1061.09 L640.608 1035.16 L644.89 1035.16 L644.89 1039.19 Q646.233 1036.83 648.386 1035.7 Q650.538 1034.54 653.617 1034.54 Q654.057 1034.54 654.589 1034.61 Q655.122 1034.65 655.77 1034.77 L655.793 1039.14 Z" fill="#000000" fill-rule="nonzero" fill-opacity="1" /><path clip-path="url(#clip990)" d="M660.261 1035.16 L664.52 1035.16 L664.52 1061.09 L660.261 1061.09 L660.261 1035.16 M660.261 1025.07 L664.52 1025.07 L664.52 1030.46 L660.261 1030.46 L660.261 1025.07 Z" fill="#000000" fill-rule="nonzero" fill-opacity="1" /><path clip-path="url(#clip990)" d="M692.089 1036.16 L692.089 1040.14 Q690.284 1039.14 688.455 1038.66 Q686.649 1038.15 684.798 1038.15 Q680.654 1038.15 678.362 1040.79 Q676.071 1043.4 676.071 1048.15 Q676.071 1052.89 678.362 1055.53 Q680.654 1058.15 684.798 1058.15 Q686.649 1058.15 688.455 1057.66 Q690.284 1057.15 692.089 1056.16 L692.089 1060.09 Q690.307 1060.93 688.386 1061.34 Q686.487 1061.76 684.335 1061.76 Q678.478 1061.76 675.029 1058.08 Q671.58 1054.4 671.58 1048.15 Q671.58 1041.81 675.052 1038.17 Q678.548 1034.54 684.612 1034.54 Q686.58 1034.54 688.455 1034.95 Q690.33 1035.35 692.089 1036.16 Z" fill="#000000" fill-rule="nonzero" fill-opacity="1" /><path clip-path="url(#clip990)" d="M711.279 1048.06 Q706.117 1048.06 704.126 1049.24 Q702.135 1050.42 702.135 1053.27 Q702.135 1055.53 703.617 1056.88 Q705.122 1058.2 707.691 1058.2 Q711.233 1058.2 713.362 1055.7 Q715.515 1053.17 715.515 1049.01 L715.515 1048.06 L711.279 1048.06 M719.774 1046.3 L719.774 1061.09 L715.515 1061.09 L715.515 1057.15 Q714.057 1059.51 711.881 1060.65 Q709.705 1061.76 706.557 1061.76 Q702.575 1061.76 700.214 1059.54 Q697.876 1057.29 697.876 1053.54 Q697.876 1049.17 700.793 1046.95 Q703.733 1044.72 709.543 1044.72 L715.515 1044.72 L715.515 1044.31 Q715.515 1041.37 713.571 1039.77 Q711.649 1038.15 708.154 1038.15 Q705.932 1038.15 703.825 1038.68 Q701.719 1039.21 699.774 1040.28 L699.774 1036.34 Q702.112 1035.44 704.311 1035 Q706.51 1034.54 708.594 1034.54 Q714.219 1034.54 716.996 1037.45 Q719.774 1040.37 719.774 1046.3 Z" fill="#000000" fill-rule="nonzero" fill-opacity="1" /><path clip-path="url(#clip990)" d="M728.547 1025.07 L732.807 1025.07 L732.807 1061.09 L728.547 1061.09 L728.547 1025.07 Z" fill="#000000" fill-rule="nonzero" fill-opacity="1" /></svg>
