<?xml version="1.0" encoding="utf-8"?>
<svg xmlns="http://www.w3.org/2000/svg" xmlns:xlink="http://www.w3.org/1999/xlink" width="600" height="400" viewBox="0 0 2400 1600">
<defs>
  <clipPath id="clip900">
    <rect x="0" y="0" width="2400" height="1600"/>
  </clipPath>
</defs>
<path clip-path="url(#clip900)" d="M0 1600 L2400 1600 L2400 8.88178e-14 L0 8.88178e-14  Z" fill="#ffffff" fill-rule="evenodd" fill-opacity="1"/>
<defs>
  <clipPath id="clip901">
    <rect x="480" y="0" width="1681" height="1600"/>
  </clipPath>
</defs>
<path clip-path="url(#clip900)" d="M203.964 1423.18 L2352.76 1423.18 L2352.76 123.472 L203.964 123.472  Z" fill="#ffffff" fill-rule="evenodd" fill-opacity="1"/>
<defs>
  <clipPath id="clip902">
    <rect x="203" y="123" width="2150" height="1301"/>
  </clipPath>
</defs>
<polyline clip-path="url(#clip902)" style="stroke:#000000; stroke-linecap:round; stroke-linejoin:round; stroke-width:2; stroke-opacity:0.1; fill:none" points="480.165,1423.18 480.165,123.472 "/>
<polyline clip-path="url(#clip902)" style="stroke:#000000; stroke-linecap:round; stroke-linejoin:round; stroke-width:2; stroke-opacity:0.1; fill:none" points="879.262,1423.18 879.262,123.472 "/>
<polyline clip-path="url(#clip902)" style="stroke:#000000; stroke-linecap:round; stroke-linejoin:round; stroke-width:2; stroke-opacity:0.1; fill:none" points="1278.36,1423.18 1278.36,123.472 "/>
<polyline clip-path="url(#clip902)" style="stroke:#000000; stroke-linecap:round; stroke-linejoin:round; stroke-width:2; stroke-opacity:0.1; fill:none" points="1677.46,1423.18 1677.46,123.472 "/>
<polyline clip-path="url(#clip902)" style="stroke:#000000; stroke-linecap:round; stroke-linejoin:round; stroke-width:2; stroke-opacity:0.1; fill:none" points="2076.55,1423.18 2076.55,123.472 "/>
<polyline clip-path="url(#clip902)" style="stroke:#000000; stroke-linecap:round; stroke-linejoin:round; stroke-width:2; stroke-opacity:0.1; fill:none" points="203.964,1128.26 2352.76,1128.26 "/>
<polyline clip-path="url(#clip902)" style="stroke:#000000; stroke-linecap:round; stroke-linejoin:round; stroke-width:2; stroke-opacity:0.1; fill:none" points="203.964,805.593 2352.76,805.593 "/>
<polyline clip-path="url(#clip902)" style="stroke:#000000; stroke-linecap:round; stroke-linejoin:round; stroke-width:2; stroke-opacity:0.1; fill:none" points="203.964,482.925 2352.76,482.925 "/>
<polyline clip-path="url(#clip902)" style="stroke:#000000; stroke-linecap:round; stroke-linejoin:round; stroke-width:2; stroke-opacity:0.1; fill:none" points="203.964,160.256 2352.76,160.256 "/>
<polyline clip-path="url(#clip900)" style="stroke:#000000; stroke-linecap:round; stroke-linejoin:round; stroke-width:4; stroke-opacity:1; fill:none" points="203.964,1423.18 2352.76,1423.18 "/>
<polyline clip-path="url(#clip900)" style="stroke:#000000; stroke-linecap:round; stroke-linejoin:round; stroke-width:4; stroke-opacity:1; fill:none" points="480.165,1423.18 480.165,1404.28 "/>
<polyline clip-path="url(#clip900)" style="stroke:#000000; stroke-linecap:round; stroke-linejoin:round; stroke-width:4; stroke-opacity:1; fill:none" points="879.262,1423.18 879.262,1404.28 "/>
<polyline clip-path="url(#clip900)" style="stroke:#000000; stroke-linecap:round; stroke-linejoin:round; stroke-width:4; stroke-opacity:1; fill:none" points="1278.36,1423.18 1278.36,1404.28 "/>
<polyline clip-path="url(#clip900)" style="stroke:#000000; stroke-linecap:round; stroke-linejoin:round; stroke-width:4; stroke-opacity:1; fill:none" points="1677.46,1423.18 1677.46,1404.28 "/>
<polyline clip-path="url(#clip900)" style="stroke:#000000; stroke-linecap:round; stroke-linejoin:round; stroke-width:4; stroke-opacity:1; fill:none" points="2076.55,1423.18 2076.55,1404.28 "/>
<path clip-path="url(#clip900)" d="M449.227 1468.75 L478.903 1468.75 L478.903 1472.69 L449.227 1472.69 L449.227 1468.75 Z" fill="#000000" fill-rule="nonzero" fill-opacity="1" /><path clip-path="url(#clip900)" d="M499.574 1466.44 Q496.426 1466.44 494.574 1468.59 Q492.746 1470.74 492.746 1474.49 Q492.746 1478.22 494.574 1480.39 Q496.426 1482.55 499.574 1482.55 Q502.722 1482.55 504.551 1480.39 Q506.403 1478.22 506.403 1474.49 Q506.403 1470.74 504.551 1468.59 Q502.722 1466.44 499.574 1466.44 M508.857 1451.78 L508.857 1456.04 Q507.097 1455.21 505.292 1454.77 Q503.509 1454.33 501.75 1454.33 Q497.12 1454.33 494.667 1457.45 Q492.236 1460.58 491.889 1466.9 Q493.255 1464.89 495.315 1463.82 Q497.375 1462.73 499.852 1462.73 Q505.06 1462.73 508.07 1465.9 Q511.102 1469.05 511.102 1474.49 Q511.102 1479.82 507.954 1483.03 Q504.806 1486.25 499.574 1486.25 Q493.579 1486.25 490.408 1481.67 Q487.236 1477.06 487.236 1468.33 Q487.236 1460.14 491.125 1455.28 Q495.014 1450.39 501.565 1450.39 Q503.324 1450.39 505.107 1450.74 Q506.912 1451.09 508.857 1451.78 Z" fill="#000000" fill-rule="nonzero" fill-opacity="1" /><path clip-path="url(#clip900)" d="M848.73 1468.75 L878.406 1468.75 L878.406 1472.69 L848.73 1472.69 L848.73 1468.75 Z" fill="#000000" fill-rule="nonzero" fill-opacity="1" /><path clip-path="url(#clip900)" d="M902.665 1466.95 Q906.021 1467.66 907.896 1469.93 Q909.794 1472.2 909.794 1475.53 Q909.794 1480.65 906.276 1483.45 Q902.757 1486.25 896.276 1486.25 Q894.1 1486.25 891.785 1485.81 Q889.494 1485.39 887.04 1484.54 L887.04 1480.02 Q888.984 1481.16 891.299 1481.74 Q893.614 1482.32 896.137 1482.32 Q900.535 1482.32 902.827 1480.58 Q905.142 1478.84 905.142 1475.53 Q905.142 1472.48 902.989 1470.77 Q900.859 1469.03 897.04 1469.03 L893.012 1469.03 L893.012 1465.19 L897.225 1465.19 Q900.674 1465.19 902.503 1463.82 Q904.331 1462.43 904.331 1459.84 Q904.331 1457.18 902.433 1455.77 Q900.558 1454.33 897.04 1454.33 Q895.119 1454.33 892.919 1454.75 Q890.72 1455.16 888.082 1456.04 L888.082 1451.88 Q890.744 1451.14 893.058 1450.77 Q895.396 1450.39 897.457 1450.39 Q902.781 1450.39 905.882 1452.83 Q908.984 1455.23 908.984 1459.35 Q908.984 1462.22 907.341 1464.21 Q905.697 1466.18 902.665 1466.95 Z" fill="#000000" fill-rule="nonzero" fill-opacity="1" /><path clip-path="url(#clip900)" d="M1278.36 1454.1 Q1274.75 1454.1 1272.92 1457.66 Q1271.11 1461.2 1271.11 1468.33 Q1271.11 1475.44 1272.92 1479.01 Q1274.75 1482.55 1278.36 1482.55 Q1281.99 1482.55 1283.8 1479.01 Q1285.63 1475.44 1285.63 1468.33 Q1285.63 1461.2 1283.8 1457.66 Q1281.99 1454.1 1278.36 1454.1 M1278.36 1450.39 Q1284.17 1450.39 1287.23 1455 Q1290.3 1459.58 1290.3 1468.33 Q1290.3 1477.06 1287.23 1481.67 Q1284.17 1486.25 1278.36 1486.25 Q1272.55 1486.25 1269.47 1481.67 Q1266.42 1477.06 1266.42 1468.33 Q1266.42 1459.58 1269.47 1455 Q1272.55 1450.39 1278.36 1450.39 Z" fill="#000000" fill-rule="nonzero" fill-opacity="1" /><path clip-path="url(#clip900)" d="M1681.7 1466.95 Q1685.06 1467.66 1686.94 1469.93 Q1688.83 1472.2 1688.83 1475.53 Q1688.83 1480.65 1685.32 1483.45 Q1681.8 1486.25 1675.32 1486.25 Q1673.14 1486.25 1670.83 1485.81 Q1668.53 1485.39 1666.08 1484.54 L1666.08 1480.02 Q1668.02 1481.16 1670.34 1481.74 Q1672.65 1482.32 1675.18 1482.32 Q1679.58 1482.32 1681.87 1480.58 Q1684.18 1478.84 1684.18 1475.53 Q1684.18 1472.48 1682.03 1470.77 Q1679.9 1469.03 1676.08 1469.03 L1672.05 1469.03 L1672.05 1465.19 L1676.27 1465.19 Q1679.71 1465.19 1681.54 1463.82 Q1683.37 1462.43 1683.37 1459.84 Q1683.37 1457.18 1681.47 1455.77 Q1679.6 1454.33 1676.08 1454.33 Q1674.16 1454.33 1671.96 1454.75 Q1669.76 1455.16 1667.12 1456.04 L1667.12 1451.88 Q1669.78 1451.14 1672.1 1450.77 Q1674.44 1450.39 1676.5 1450.39 Q1681.82 1450.39 1684.92 1452.83 Q1688.02 1455.23 1688.02 1459.35 Q1688.02 1462.22 1686.38 1464.21 Q1684.74 1466.18 1681.7 1466.95 Z" fill="#000000" fill-rule="nonzero" fill-opacity="1" /><path clip-path="url(#clip900)" d="M2076.96 1466.44 Q2073.81 1466.44 2071.96 1468.59 Q2070.13 1470.74 2070.13 1474.49 Q2070.13 1478.22 2071.96 1480.39 Q2073.81 1482.55 2076.96 1482.55 Q2080.11 1482.55 2081.94 1480.39 Q2083.79 1478.22 2083.79 1474.49 Q2083.79 1470.74 2081.94 1468.59 Q2080.11 1466.44 2076.96 1466.44 M2086.24 1451.78 L2086.24 1456.04 Q2084.48 1455.21 2082.68 1454.77 Q2080.9 1454.33 2079.14 1454.33 Q2074.51 1454.33 2072.05 1457.45 Q2069.62 1460.58 2069.27 1466.9 Q2070.64 1464.89 2072.7 1463.82 Q2074.76 1462.73 2077.24 1462.73 Q2082.45 1462.73 2085.46 1465.9 Q2088.49 1469.05 2088.49 1474.49 Q2088.49 1479.82 2085.34 1483.03 Q2082.19 1486.25 2076.96 1486.25 Q2070.96 1486.25 2067.79 1481.67 Q2064.62 1477.06 2064.62 1468.33 Q2064.62 1460.14 2068.51 1455.28 Q2072.4 1450.39 2078.95 1450.39 Q2080.71 1450.39 2082.49 1450.74 Q2084.3 1451.09 2086.24 1451.78 Z" fill="#000000" fill-rule="nonzero" fill-opacity="1" /><path clip-path="url(#clip900)" d="M1214.86 1545.76 Q1216.93 1546.46 1218.87 1548.76 Q1220.85 1551.05 1222.82 1555.06 L1229.34 1568.04 L1222.44 1568.04 L1216.36 1555.85 Q1214 1551.08 1211.77 1549.52 Q1209.58 1547.96 1205.76 1547.96 L1198.76 1547.96 L1198.76 1568.04 L1192.33 1568.04 L1192.33 1520.52 L1206.84 1520.52 Q1214.99 1520.52 1219 1523.93 Q1223.01 1527.34 1223.01 1534.21 Q1223.01 1538.7 1220.91 1541.66 Q1218.84 1544.62 1214.86 1545.76 M1198.76 1525.81 L1198.76 1542.68 L1206.84 1542.68 Q1211.49 1542.68 1213.84 1540.54 Q1216.23 1538.38 1216.23 1534.21 Q1216.23 1530.04 1213.84 1527.94 Q1211.49 1525.81 1206.84 1525.81 L1198.76 1525.81 Z" fill="#000000" fill-rule="nonzero" fill-opacity="1" /><path clip-path="url(#clip900)" d="M1248.25 1536.5 Q1243.54 1536.5 1240.8 1540.19 Q1238.06 1543.85 1238.06 1550.25 Q1238.06 1556.65 1240.77 1560.34 Q1243.51 1564 1248.25 1564 Q1252.93 1564 1255.67 1560.31 Q1258.4 1556.62 1258.4 1550.25 Q1258.4 1543.92 1255.67 1540.23 Q1252.93 1536.5 1248.25 1536.5 M1248.25 1531.54 Q1255.89 1531.54 1260.25 1536.5 Q1264.61 1541.47 1264.61 1550.25 Q1264.61 1559 1260.25 1564 Q1255.89 1568.97 1248.25 1568.97 Q1240.58 1568.97 1236.22 1564 Q1231.89 1559 1231.89 1550.25 Q1231.89 1541.47 1236.22 1536.5 Q1240.58 1531.54 1248.25 1531.54 Z" fill="#000000" fill-rule="nonzero" fill-opacity="1" /><path clip-path="url(#clip900)" d="M1288.13 1536.5 Q1283.42 1536.5 1280.68 1540.19 Q1277.95 1543.85 1277.95 1550.25 Q1277.95 1556.65 1280.65 1560.34 Q1283.39 1564 1288.13 1564 Q1292.81 1564 1295.55 1560.31 Q1298.28 1556.62 1298.28 1550.25 Q1298.28 1543.92 1295.55 1540.23 Q1292.81 1536.5 1288.13 1536.5 M1288.13 1531.54 Q1295.77 1531.54 1300.13 1536.5 Q1304.49 1541.47 1304.49 1550.25 Q1304.49 1559 1300.13 1564 Q1295.77 1568.97 1288.13 1568.97 Q1280.46 1568.97 1276.1 1564 Q1271.77 1559 1271.77 1550.25 Q1271.77 1541.47 1276.1 1536.5 Q1280.46 1531.54 1288.13 1531.54 Z" fill="#000000" fill-rule="nonzero" fill-opacity="1" /><path clip-path="url(#clip900)" d="M1319.99 1522.27 L1319.99 1532.4 L1332.05 1532.4 L1332.05 1536.95 L1319.99 1536.95 L1319.99 1556.3 Q1319.99 1560.66 1321.17 1561.9 Q1322.38 1563.14 1326.04 1563.14 L1332.05 1563.14 L1332.05 1568.04 L1326.04 1568.04 Q1319.26 1568.04 1316.68 1565.53 Q1314.1 1562.98 1314.1 1556.3 L1314.1 1536.95 L1309.81 1536.95 L1309.81 1532.4 L1314.1 1532.4 L1314.1 1522.27 L1319.99 1522.27 Z" fill="#000000" fill-rule="nonzero" fill-opacity="1" /><path clip-path="url(#clip900)" d="M1362.48 1533.45 L1362.48 1538.98 Q1360 1537.71 1357.33 1537.07 Q1354.65 1536.44 1351.79 1536.44 Q1347.43 1536.44 1345.23 1537.77 Q1343.07 1539.11 1343.07 1541.79 Q1343.07 1543.82 1344.63 1545 Q1346.19 1546.15 1350.9 1547.2 L1352.9 1547.64 Q1359.14 1548.98 1361.75 1551.43 Q1364.39 1553.85 1364.39 1558.21 Q1364.39 1563.17 1360.45 1566.07 Q1356.53 1568.97 1349.66 1568.97 Q1346.79 1568.97 1343.67 1568.39 Q1340.58 1567.85 1337.15 1566.74 L1337.15 1560.69 Q1340.39 1562.38 1343.54 1563.24 Q1346.7 1564.07 1349.78 1564.07 Q1353.92 1564.07 1356.15 1562.66 Q1358.38 1561.23 1358.38 1558.65 Q1358.38 1556.27 1356.75 1554.99 Q1355.16 1553.72 1349.72 1552.54 L1347.68 1552.07 Q1342.24 1550.92 1339.82 1548.56 Q1337.4 1546.18 1337.4 1542.04 Q1337.4 1537.01 1340.97 1534.27 Q1344.53 1531.54 1351.09 1531.54 Q1354.33 1531.54 1357.2 1532.01 Q1360.06 1532.49 1362.48 1533.45 Z" fill="#000000" fill-rule="nonzero" fill-opacity="1" /><polyline clip-path="url(#clip900)" style="stroke:#000000; stroke-linecap:round; stroke-linejoin:round; stroke-width:4; stroke-opacity:1; fill:none" points="203.964,1423.18 203.964,123.472 "/>
<polyline clip-path="url(#clip900)" style="stroke:#000000; stroke-linecap:round; stroke-linejoin:round; stroke-width:4; stroke-opacity:1; fill:none" points="203.964,1128.26 222.861,1128.26 "/>
<polyline clip-path="url(#clip900)" style="stroke:#000000; stroke-linecap:round; stroke-linejoin:round; stroke-width:4; stroke-opacity:1; fill:none" points="203.964,805.593 222.861,805.593 "/>
<polyline clip-path="url(#clip900)" style="stroke:#000000; stroke-linecap:round; stroke-linejoin:round; stroke-width:4; stroke-opacity:1; fill:none" points="203.964,482.925 222.861,482.925 "/>
<polyline clip-path="url(#clip900)" style="stroke:#000000; stroke-linecap:round; stroke-linejoin:round; stroke-width:4; stroke-opacity:1; fill:none" points="203.964,160.256 222.861,160.256 "/>
<path clip-path="url(#clip900)" d="M147.061 1110.98 L165.417 1110.98 L165.417 1114.92 L151.343 1114.92 L151.343 1123.39 Q152.362 1123.04 153.38 1122.88 Q154.399 1122.69 155.417 1122.69 Q161.204 1122.69 164.584 1125.87 Q167.964 1129.04 167.964 1134.45 Q167.964 1140.03 164.491 1143.13 Q161.019 1146.21 154.7 1146.21 Q152.524 1146.21 150.255 1145.84 Q148.01 1145.47 145.603 1144.73 L145.603 1140.03 Q147.686 1141.17 149.908 1141.72 Q152.13 1142.28 154.607 1142.28 Q158.612 1142.28 160.95 1140.17 Q163.288 1138.06 163.288 1134.45 Q163.288 1130.84 160.95 1128.74 Q158.612 1126.63 154.607 1126.63 Q152.732 1126.63 150.857 1127.05 Q149.005 1127.46 147.061 1128.34 L147.061 1110.98 Z" fill="#000000" fill-rule="nonzero" fill-opacity="1" /><path clip-path="url(#clip900)" d="M116.668 818.938 L124.306 818.938 L124.306 792.572 L115.996 794.239 L115.996 789.979 L124.26 788.313 L128.936 788.313 L128.936 818.938 L136.575 818.938 L136.575 822.873 L116.668 822.873 L116.668 818.938 Z" fill="#000000" fill-rule="nonzero" fill-opacity="1" /><path clip-path="url(#clip900)" d="M156.019 791.391 Q152.408 791.391 150.579 794.956 Q148.774 798.498 148.774 805.628 Q148.774 812.734 150.579 816.299 Q152.408 819.84 156.019 819.84 Q159.653 819.84 161.459 816.299 Q163.288 812.734 163.288 805.628 Q163.288 798.498 161.459 794.956 Q159.653 791.391 156.019 791.391 M156.019 787.688 Q161.829 787.688 164.885 792.294 Q167.964 796.878 167.964 805.628 Q167.964 814.354 164.885 818.961 Q161.829 823.544 156.019 823.544 Q150.209 823.544 147.13 818.961 Q144.075 814.354 144.075 805.628 Q144.075 796.878 147.13 792.294 Q150.209 787.688 156.019 787.688 Z" fill="#000000" fill-rule="nonzero" fill-opacity="1" /><path clip-path="url(#clip900)" d="M117.663 496.269 L125.302 496.269 L125.302 469.904 L116.992 471.57 L116.992 467.311 L125.255 465.645 L129.931 465.645 L129.931 496.269 L137.57 496.269 L137.57 500.205 L117.663 500.205 L117.663 496.269 Z" fill="#000000" fill-rule="nonzero" fill-opacity="1" /><path clip-path="url(#clip900)" d="M147.061 465.645 L165.417 465.645 L165.417 469.58 L151.343 469.58 L151.343 478.052 Q152.362 477.705 153.38 477.543 Q154.399 477.357 155.417 477.357 Q161.204 477.357 164.584 480.529 Q167.964 483.7 167.964 489.117 Q167.964 494.695 164.491 497.797 Q161.019 500.876 154.7 500.876 Q152.524 500.876 150.255 500.505 Q148.01 500.135 145.603 499.394 L145.603 494.695 Q147.686 495.83 149.908 496.385 Q152.13 496.941 154.607 496.941 Q158.612 496.941 160.95 494.834 Q163.288 492.728 163.288 489.117 Q163.288 485.506 160.95 483.399 Q158.612 481.293 154.607 481.293 Q152.732 481.293 150.857 481.709 Q149.005 482.126 147.061 483.006 L147.061 465.645 Z" fill="#000000" fill-rule="nonzero" fill-opacity="1" /><path clip-path="url(#clip900)" d="M119.885 173.601 L136.204 173.601 L136.204 177.536 L114.26 177.536 L114.26 173.601 Q116.922 170.847 121.505 166.217 Q126.112 161.564 127.292 160.222 Q129.538 157.698 130.417 155.962 Q131.32 154.203 131.32 152.513 Q131.32 149.759 129.376 148.023 Q127.455 146.286 124.353 146.286 Q122.154 146.286 119.7 147.05 Q117.269 147.814 114.492 149.365 L114.492 144.643 Q117.316 143.509 119.769 142.93 Q122.223 142.351 124.26 142.351 Q129.63 142.351 132.825 145.036 Q136.019 147.722 136.019 152.212 Q136.019 154.342 135.209 156.263 Q134.422 158.161 132.316 160.754 Q131.737 161.425 128.635 164.643 Q125.533 167.837 119.885 173.601 Z" fill="#000000" fill-rule="nonzero" fill-opacity="1" /><path clip-path="url(#clip900)" d="M156.019 146.055 Q152.408 146.055 150.579 149.62 Q148.774 153.161 148.774 160.291 Q148.774 167.397 150.579 170.962 Q152.408 174.504 156.019 174.504 Q159.653 174.504 161.459 170.962 Q163.288 167.397 163.288 160.291 Q163.288 153.161 161.459 149.62 Q159.653 146.055 156.019 146.055 M156.019 142.351 Q161.829 142.351 164.885 146.958 Q167.964 151.541 167.964 160.291 Q167.964 169.018 164.885 173.624 Q161.829 178.208 156.019 178.208 Q150.209 178.208 147.13 173.624 Q144.075 169.018 144.075 160.291 Q144.075 151.541 147.13 146.958 Q150.209 142.351 156.019 142.351 Z" fill="#000000" fill-rule="nonzero" fill-opacity="1" /><path clip-path="url(#clip900)" d="M42.4881 758.398 L64.0042 758.398 L64.0042 764.255 L42.679 764.255 Q37.6183 764.255 35.1038 766.228 Q32.5894 768.202 32.5894 772.148 Q32.5894 776.891 35.6131 779.628 Q38.6368 782.365 43.8567 782.365 L64.0042 782.365 L64.0042 788.254 L28.3562 788.254 L28.3562 782.365 L33.8944 782.365 Q30.6797 780.265 29.0883 777.432 Q27.4968 774.567 27.4968 770.843 Q27.4968 764.7 31.3163 761.549 Q35.1038 758.398 42.4881 758.398 Z" fill="#000000" fill-rule="nonzero" fill-opacity="1" /><path clip-path="url(#clip900)" d="M209.245 44.2197 Q211.878 45.1109 214.349 48.0275 Q216.861 50.9442 219.372 56.0483 L227.677 72.576 L218.886 72.576 L211.149 57.061 Q208.151 50.9847 205.316 48.9997 Q202.521 47.0148 197.66 47.0148 L188.748 47.0148 L188.748 72.576 L180.565 72.576 L180.565 12.096 L199.037 12.096 Q209.407 12.096 214.511 16.4305 Q219.615 20.7649 219.615 29.5149 Q219.615 35.2267 216.942 38.994 Q214.309 42.7613 209.245 44.2197 M188.748 18.8205 L188.748 40.2903 L199.037 40.2903 Q204.951 40.2903 207.949 37.5762 Q210.987 34.8216 210.987 29.5149 Q210.987 24.2082 207.949 21.5346 Q204.951 18.8205 199.037 18.8205 L188.748 18.8205 Z" fill="#000000" fill-rule="nonzero" fill-opacity="1" /><path clip-path="url(#clip900)" d="M251.739 32.4315 Q245.744 32.4315 242.26 37.1306 Q238.776 41.7891 238.776 49.9314 Q238.776 58.0738 242.219 62.7728 Q245.703 67.4314 251.739 67.4314 Q257.694 67.4314 261.178 62.7323 Q264.661 58.0333 264.661 49.9314 Q264.661 41.8701 261.178 37.1711 Q257.694 32.4315 251.739 32.4315 M251.739 26.1121 Q261.461 26.1121 267.011 32.4315 Q272.561 38.7509 272.561 49.9314 Q272.561 61.0714 267.011 67.4314 Q261.461 73.7508 251.739 73.7508 Q241.976 73.7508 236.427 67.4314 Q230.917 61.0714 230.917 49.9314 Q230.917 38.7509 236.427 32.4315 Q241.976 26.1121 251.739 26.1121 Z" fill="#000000" fill-rule="nonzero" fill-opacity="1" /><path clip-path="url(#clip900)" d="M302.497 32.4315 Q296.502 32.4315 293.018 37.1306 Q289.534 41.7891 289.534 49.9314 Q289.534 58.0738 292.977 62.7728 Q296.461 67.4314 302.497 67.4314 Q308.452 67.4314 311.936 62.7323 Q315.419 58.0333 315.419 49.9314 Q315.419 41.8701 311.936 37.1711 Q308.452 32.4315 302.497 32.4315 M302.497 26.1121 Q312.219 26.1121 317.769 32.4315 Q323.319 38.7509 323.319 49.9314 Q323.319 61.0714 317.769 67.4314 Q312.219 73.7508 302.497 73.7508 Q292.734 73.7508 287.184 67.4314 Q281.675 61.0714 281.675 49.9314 Q281.675 38.7509 287.184 32.4315 Q292.734 26.1121 302.497 26.1121 Z" fill="#000000" fill-rule="nonzero" fill-opacity="1" /><path clip-path="url(#clip900)" d="M343.046 14.324 L343.046 27.2059 L358.399 27.2059 L358.399 32.9987 L343.046 32.9987 L343.046 57.6282 Q343.046 63.1779 344.545 64.7578 Q346.085 66.3376 350.743 66.3376 L358.399 66.3376 L358.399 72.576 L350.743 72.576 Q342.115 72.576 338.834 69.3758 Q335.552 66.1351 335.552 57.6282 L335.552 32.9987 L330.084 32.9987 L330.084 27.2059 L335.552 27.2059 L335.552 14.324 L343.046 14.324 Z" fill="#000000" fill-rule="nonzero" fill-opacity="1" /><path clip-path="url(#clip900)" d="M397.126 28.5427 L397.126 35.5912 Q393.966 33.9709 390.564 33.1607 Q387.161 32.3505 383.515 32.3505 Q377.965 32.3505 375.17 34.0519 Q372.416 35.7533 372.416 39.156 Q372.416 41.7486 374.4 43.2475 Q376.385 44.7058 382.381 46.0426 L384.933 46.6097 Q392.873 48.3111 396.194 51.4303 Q399.557 54.509 399.557 60.0587 Q399.557 66.3781 394.533 70.0644 Q389.551 73.7508 380.801 73.7508 Q377.155 73.7508 373.185 73.0216 Q369.256 72.3329 364.881 70.9151 L364.881 63.2184 Q369.013 65.3654 373.023 66.4591 Q377.034 67.5124 380.963 67.5124 Q386.229 67.5124 389.065 65.73 Q391.9 63.9071 391.9 60.6258 Q391.9 57.5877 389.834 55.9673 Q387.809 54.3469 380.882 52.8481 L378.289 52.2405 Q371.362 50.7821 368.284 47.7845 Q365.205 44.7463 365.205 39.4801 Q365.205 33.0797 369.742 29.5959 Q374.279 26.1121 382.624 26.1121 Q386.756 26.1121 390.402 26.7198 Q394.047 27.3274 397.126 28.5427 Z" fill="#000000" fill-rule="nonzero" fill-opacity="1" /><path clip-path="url(#clip900)" d="M446.304 18.8205 L446.304 65.8515 L456.188 65.8515 Q468.706 65.8515 474.498 60.1802 Q480.332 54.509 480.332 42.2752 Q480.332 30.1225 474.498 24.4918 Q468.706 18.8205 456.188 18.8205 L446.304 18.8205 M438.121 12.096 L454.932 12.096 Q472.513 12.096 480.737 19.4281 Q488.96 26.7198 488.96 42.2752 Q488.96 57.9117 480.696 65.2439 Q472.432 72.576 454.932 72.576 L438.121 72.576 L438.121 12.096 Z" fill="#000000" fill-rule="nonzero" fill-opacity="1" /><path clip-path="url(#clip900)" d="M501.68 27.2059 L509.134 27.2059 L509.134 72.576 L501.68 72.576 L501.68 27.2059 M501.68 9.54393 L509.134 9.54393 L509.134 18.9825 L501.68 18.9825 L501.68 9.54393 Z" fill="#000000" fill-rule="nonzero" fill-opacity="1" /><path clip-path="url(#clip900)" d="M553.653 28.5427 L553.653 35.5912 Q550.493 33.9709 547.091 33.1607 Q543.688 32.3505 540.042 32.3505 Q534.492 32.3505 531.697 34.0519 Q528.942 35.7533 528.942 39.156 Q528.942 41.7486 530.927 43.2475 Q532.912 44.7058 538.908 46.0426 L541.46 46.6097 Q549.4 48.3111 552.721 51.4303 Q556.084 54.509 556.084 60.0587 Q556.084 66.3781 551.06 70.0644 Q546.078 73.7508 537.328 73.7508 Q533.682 73.7508 529.712 73.0216 Q525.783 72.3329 521.408 70.9151 L521.408 63.2184 Q525.54 65.3654 529.55 66.4591 Q533.56 67.5124 537.49 67.5124 Q542.756 67.5124 545.592 65.73 Q548.427 63.9071 548.427 60.6258 Q548.427 57.5877 546.361 55.9673 Q544.336 54.3469 537.409 52.8481 L534.816 52.2405 Q527.889 50.7821 524.811 47.7845 Q521.732 44.7463 521.732 39.4801 Q521.732 33.0797 526.269 29.5959 Q530.806 26.1121 539.151 26.1121 Q543.283 26.1121 546.928 26.7198 Q550.574 27.3274 553.653 28.5427 Z" fill="#000000" fill-rule="nonzero" fill-opacity="1" /><path clip-path="url(#clip900)" d="M575.325 14.324 L575.325 27.2059 L590.678 27.2059 L590.678 32.9987 L575.325 32.9987 L575.325 57.6282 Q575.325 63.1779 576.824 64.7578 Q578.363 66.3376 583.022 66.3376 L590.678 66.3376 L590.678 72.576 L583.022 72.576 Q574.394 72.576 571.112 69.3758 Q567.831 66.1351 567.831 57.6282 L567.831 32.9987 L562.362 32.9987 L562.362 27.2059 L567.831 27.2059 L567.831 14.324 L575.325 14.324 Z" fill="#000000" fill-rule="nonzero" fill-opacity="1" /><path clip-path="url(#clip900)" d="M626.772 34.1734 Q625.516 33.4443 624.017 33.1202 Q622.559 32.7556 620.776 32.7556 Q614.457 32.7556 611.054 36.8875 Q607.692 40.9789 607.692 48.6757 L607.692 72.576 L600.198 72.576 L600.198 27.2059 L607.692 27.2059 L607.692 34.2544 Q610.042 30.1225 613.809 28.1376 Q617.576 26.1121 622.964 26.1121 Q623.734 26.1121 624.665 26.2337 Q625.597 26.3147 626.731 26.5172 L626.772 34.1734 Z" fill="#000000" fill-rule="nonzero" fill-opacity="1" /><path clip-path="url(#clip900)" d="M634.59 27.2059 L642.044 27.2059 L642.044 72.576 L634.59 72.576 L634.59 27.2059 M634.59 9.54393 L642.044 9.54393 L642.044 18.9825 L634.59 18.9825 L634.59 9.54393 Z" fill="#000000" fill-rule="nonzero" fill-opacity="1" /><path clip-path="url(#clip900)" d="M690.209 49.9314 Q690.209 41.7081 686.806 37.0496 Q683.444 32.3505 677.53 32.3505 Q671.615 32.3505 668.213 37.0496 Q664.85 41.7081 664.85 49.9314 Q664.85 58.1548 668.213 62.8538 Q671.615 67.5124 677.53 67.5124 Q683.444 67.5124 686.806 62.8538 Q690.209 58.1548 690.209 49.9314 M664.85 34.0924 Q667.2 30.0415 670.765 28.0971 Q674.37 26.1121 679.353 26.1121 Q687.616 26.1121 692.761 32.6746 Q697.946 39.2371 697.946 49.9314 Q697.946 60.6258 692.761 67.1883 Q687.616 73.7508 679.353 73.7508 Q674.37 73.7508 670.765 71.8063 Q667.2 69.8214 664.85 65.7705 L664.85 72.576 L657.356 72.576 L657.356 9.54393 L664.85 9.54393 L664.85 34.0924 Z" fill="#000000" fill-rule="nonzero" fill-opacity="1" /><path clip-path="url(#clip900)" d="M709.532 54.671 L709.532 27.2059 L716.985 27.2059 L716.985 54.3874 Q716.985 60.8284 719.497 64.0691 Q722.009 67.2693 727.032 67.2693 Q733.068 67.2693 736.551 63.421 Q740.076 59.5726 740.076 52.9291 L740.076 27.2059 L747.529 27.2059 L747.529 72.576 L740.076 72.576 L740.076 65.6084 Q737.361 69.7404 733.756 71.7658 Q730.191 73.7508 725.452 73.7508 Q717.634 73.7508 713.583 68.8897 Q709.532 64.0286 709.532 54.671 M728.287 26.1121 L728.287 26.1121 Z" fill="#000000" fill-rule="nonzero" fill-opacity="1" /><path clip-path="url(#clip900)" d="M770.255 14.324 L770.255 27.2059 L785.608 27.2059 L785.608 32.9987 L770.255 32.9987 L770.255 57.6282 Q770.255 63.1779 771.754 64.7578 Q773.293 66.3376 777.952 66.3376 L785.608 66.3376 L785.608 72.576 L777.952 72.576 Q769.323 72.576 766.042 69.3758 Q762.761 66.1351 762.761 57.6282 L762.761 32.9987 L757.292 32.9987 L757.292 27.2059 L762.761 27.2059 L762.761 14.324 L770.255 14.324 Z" fill="#000000" fill-rule="nonzero" fill-opacity="1" /><path clip-path="url(#clip900)" d="M795.411 27.2059 L802.865 27.2059 L802.865 72.576 L795.411 72.576 L795.411 27.2059 M795.411 9.54393 L802.865 9.54393 L802.865 18.9825 L795.411 18.9825 L795.411 9.54393 Z" fill="#000000" fill-rule="nonzero" fill-opacity="1" /><path clip-path="url(#clip900)" d="M836.042 32.4315 Q830.046 32.4315 826.562 37.1306 Q823.079 41.7891 823.079 49.9314 Q823.079 58.0738 826.522 62.7728 Q830.006 67.4314 836.042 67.4314 Q841.996 67.4314 845.48 62.7323 Q848.964 58.0333 848.964 49.9314 Q848.964 41.8701 845.48 37.1711 Q841.996 32.4315 836.042 32.4315 M836.042 26.1121 Q845.764 26.1121 851.313 32.4315 Q856.863 38.7509 856.863 49.9314 Q856.863 61.0714 851.313 67.4314 Q845.764 73.7508 836.042 73.7508 Q826.279 73.7508 820.729 67.4314 Q815.22 61.0714 815.22 49.9314 Q815.22 38.7509 820.729 32.4315 Q826.279 26.1121 836.042 26.1121 Z" fill="#000000" fill-rule="nonzero" fill-opacity="1" /><path clip-path="url(#clip900)" d="M906.932 45.1919 L906.932 72.576 L899.479 72.576 L899.479 45.4349 Q899.479 38.994 896.967 35.7938 Q894.456 32.5936 889.432 32.5936 Q883.397 32.5936 879.913 36.4419 Q876.429 40.2903 876.429 46.9338 L876.429 72.576 L868.935 72.576 L868.935 27.2059 L876.429 27.2059 L876.429 34.2544 Q879.103 30.163 882.708 28.1376 Q886.354 26.1121 891.093 26.1121 Q898.912 26.1121 902.922 30.9732 Q906.932 35.7938 906.932 45.1919 Z" fill="#000000" fill-rule="nonzero" fill-opacity="1" /><path clip-path="url(#clip900)" d="M965.751 32.4315 Q959.756 32.4315 956.272 37.1306 Q952.789 41.7891 952.789 49.9314 Q952.789 58.0738 956.232 62.7728 Q959.716 67.4314 965.751 67.4314 Q971.706 67.4314 975.19 62.7323 Q978.674 58.0333 978.674 49.9314 Q978.674 41.8701 975.19 37.1711 Q971.706 32.4315 965.751 32.4315 M965.751 26.1121 Q975.474 26.1121 981.023 32.4315 Q986.573 38.7509 986.573 49.9314 Q986.573 61.0714 981.023 67.4314 Q975.474 73.7508 965.751 73.7508 Q955.989 73.7508 950.439 67.4314 Q944.93 61.0714 944.93 49.9314 Q944.93 38.7509 950.439 32.4315 Q955.989 26.1121 965.751 26.1121 Z" fill="#000000" fill-rule="nonzero" fill-opacity="1" /><path clip-path="url(#clip900)" d="M1021.9 9.54393 L1021.9 15.7418 L1014.77 15.7418 Q1010.76 15.7418 1009.18 17.3622 Q1007.64 18.9825 1007.64 23.1955 L1007.64 27.2059 L1019.91 27.2059 L1019.91 32.9987 L1007.64 32.9987 L1007.64 72.576 L1000.14 72.576 L1000.14 32.9987 L993.014 32.9987 L993.014 27.2059 L1000.14 27.2059 L1000.14 24.0462 Q1000.14 16.471 1003.67 13.0277 Q1007.19 9.54393 1014.85 9.54393 L1021.9 9.54393 Z" fill="#000000" fill-rule="nonzero" fill-opacity="1" /><path clip-path="url(#clip900)" d="M1054.83 12.096 L1063.01 12.096 L1063.01 36.8875 L1092.75 36.8875 L1092.75 12.096 L1100.93 12.096 L1100.93 72.576 L1092.75 72.576 L1092.75 43.7741 L1063.01 43.7741 L1063.01 72.576 L1054.83 72.576 L1054.83 12.096 Z" fill="#000000" fill-rule="nonzero" fill-opacity="1" /><path clip-path="url(#clip900)" d="M1155.7 48.0275 L1155.7 51.6733 L1121.43 51.6733 Q1121.91 59.3701 1126.05 63.421 Q1130.22 67.4314 1137.63 67.4314 Q1141.93 67.4314 1145.94 66.3781 Q1149.99 65.3249 1153.96 63.2184 L1153.96 70.267 Q1149.95 71.9684 1145.73 72.8596 Q1141.52 73.7508 1137.19 73.7508 Q1126.33 73.7508 1119.97 67.4314 Q1113.65 61.1119 1113.65 50.3365 Q1113.65 39.1965 1119.65 32.6746 Q1125.68 26.1121 1135.89 26.1121 Q1145.04 26.1121 1150.35 32.0264 Q1155.7 37.9003 1155.7 48.0275 M1148.24 45.84 Q1148.16 39.7232 1144.8 36.0774 Q1141.48 32.4315 1135.97 32.4315 Q1129.73 32.4315 1125.96 35.9558 Q1122.24 39.4801 1121.67 45.8805 L1148.24 45.84 Z" fill="#000000" fill-rule="nonzero" fill-opacity="1" /><path clip-path="url(#clip900)" d="M1194.22 34.1734 Q1192.97 33.4443 1191.47 33.1202 Q1190.01 32.7556 1188.23 32.7556 Q1181.91 32.7556 1178.5 36.8875 Q1175.14 40.9789 1175.14 48.6757 L1175.14 72.576 L1167.65 72.576 L1167.65 27.2059 L1175.14 27.2059 L1175.14 34.2544 Q1177.49 30.1225 1181.26 28.1376 Q1185.03 26.1121 1190.41 26.1121 Q1191.18 26.1121 1192.12 26.2337 Q1193.05 26.3147 1194.18 26.5172 L1194.22 34.1734 Z" fill="#000000" fill-rule="nonzero" fill-opacity="1" /><path clip-path="url(#clip900)" d="M1235.91 35.9153 Q1238.7 30.8922 1242.59 28.5022 Q1246.48 26.1121 1251.75 26.1121 Q1258.83 26.1121 1262.68 31.0947 Q1266.53 36.0368 1266.53 45.1919 L1266.53 72.576 L1259.04 72.576 L1259.04 45.4349 Q1259.04 38.913 1256.73 35.7533 Q1254.42 32.5936 1249.68 32.5936 Q1243.89 32.5936 1240.52 36.4419 Q1237.16 40.2903 1237.16 46.9338 L1237.16 72.576 L1229.67 72.576 L1229.67 45.4349 Q1229.67 38.8725 1227.36 35.7533 Q1225.05 32.5936 1220.23 32.5936 Q1214.52 32.5936 1211.16 36.4824 Q1207.79 40.3308 1207.79 46.9338 L1207.79 72.576 L1200.3 72.576 L1200.3 27.2059 L1207.79 27.2059 L1207.79 34.2544 Q1210.35 30.082 1213.91 28.0971 Q1217.47 26.1121 1222.38 26.1121 Q1227.32 26.1121 1230.76 28.6237 Q1234.25 31.1352 1235.91 35.9153 Z" fill="#000000" fill-rule="nonzero" fill-opacity="1" /><path clip-path="url(#clip900)" d="M1281.4 27.2059 L1288.85 27.2059 L1288.85 72.576 L1281.4 72.576 L1281.4 27.2059 M1281.4 9.54393 L1288.85 9.54393 L1288.85 18.9825 L1281.4 18.9825 L1281.4 9.54393 Z" fill="#000000" fill-rule="nonzero" fill-opacity="1" /><path clip-path="url(#clip900)" d="M1311.82 14.324 L1311.82 27.2059 L1327.17 27.2059 L1327.17 32.9987 L1311.82 32.9987 L1311.82 57.6282 Q1311.82 63.1779 1313.32 64.7578 Q1314.86 66.3376 1319.52 66.3376 L1327.17 66.3376 L1327.17 72.576 L1319.52 72.576 Q1310.89 72.576 1307.61 69.3758 Q1304.33 66.1351 1304.33 57.6282 L1304.33 32.9987 L1298.86 32.9987 L1298.86 27.2059 L1304.33 27.2059 L1304.33 14.324 L1311.82 14.324 Z" fill="#000000" fill-rule="nonzero" fill-opacity="1" /><path clip-path="url(#clip900)" d="M1375.78 48.0275 L1375.78 51.6733 L1341.51 51.6733 Q1342 59.3701 1346.13 63.421 Q1350.3 67.4314 1357.72 67.4314 Q1362.01 67.4314 1366.02 66.3781 Q1370.07 65.3249 1374.04 63.2184 L1374.04 70.267 Q1370.03 71.9684 1365.82 72.8596 Q1361.61 73.7508 1357.27 73.7508 Q1346.41 73.7508 1340.06 67.4314 Q1333.74 61.1119 1333.74 50.3365 Q1333.74 39.1965 1339.73 32.6746 Q1345.77 26.1121 1355.98 26.1121 Q1365.13 26.1121 1370.44 32.0264 Q1375.78 37.9003 1375.78 48.0275 M1368.33 45.84 Q1368.25 39.7232 1364.89 36.0774 Q1361.57 32.4315 1356.06 32.4315 Q1349.82 32.4315 1346.05 35.9558 Q1342.32 39.4801 1341.76 45.8805 L1368.33 45.84 Z" fill="#000000" fill-rule="nonzero" fill-opacity="1" /><path clip-path="url(#clip900)" d="M1421.6 65.7705 L1421.6 89.8329 L1414.11 89.8329 L1414.11 27.2059 L1421.6 27.2059 L1421.6 34.0924 Q1423.95 30.0415 1427.51 28.0971 Q1431.12 26.1121 1436.1 26.1121 Q1444.37 26.1121 1449.51 32.6746 Q1454.7 39.2371 1454.7 49.9314 Q1454.7 60.6258 1449.51 67.1883 Q1444.37 73.7508 1436.1 73.7508 Q1431.12 73.7508 1427.51 71.8063 Q1423.95 69.8214 1421.6 65.7705 M1446.96 49.9314 Q1446.96 41.7081 1443.56 37.0496 Q1440.19 32.3505 1434.28 32.3505 Q1428.36 32.3505 1424.96 37.0496 Q1421.6 41.7081 1421.6 49.9314 Q1421.6 58.1548 1424.96 62.8538 Q1428.36 67.5124 1434.28 67.5124 Q1440.19 67.5124 1443.56 62.8538 Q1446.96 58.1548 1446.96 49.9314 Z" fill="#000000" fill-rule="nonzero" fill-opacity="1" /><path clip-path="url(#clip900)" d="M1484.63 32.4315 Q1478.64 32.4315 1475.15 37.1306 Q1471.67 41.7891 1471.67 49.9314 Q1471.67 58.0738 1475.11 62.7728 Q1478.6 67.4314 1484.63 67.4314 Q1490.59 67.4314 1494.07 62.7323 Q1497.55 58.0333 1497.55 49.9314 Q1497.55 41.8701 1494.07 37.1711 Q1490.59 32.4315 1484.63 32.4315 M1484.63 26.1121 Q1494.35 26.1121 1499.9 32.4315 Q1505.45 38.7509 1505.45 49.9314 Q1505.45 61.0714 1499.9 67.4314 Q1494.35 73.7508 1484.63 73.7508 Q1474.87 73.7508 1469.32 67.4314 Q1463.81 61.0714 1463.81 49.9314 Q1463.81 38.7509 1469.32 32.4315 Q1474.87 26.1121 1484.63 26.1121 Z" fill="#000000" fill-rule="nonzero" fill-opacity="1" /><path clip-path="url(#clip900)" d="M1517.81 9.54393 L1525.26 9.54393 L1525.26 72.576 L1517.81 72.576 L1517.81 9.54393 Z" fill="#000000" fill-rule="nonzero" fill-opacity="1" /><path clip-path="url(#clip900)" d="M1559.74 76.7889 Q1556.58 84.8907 1553.58 87.3618 Q1550.58 89.8329 1545.56 89.8329 L1539.6 89.8329 L1539.6 83.5945 L1543.98 83.5945 Q1547.06 83.5945 1548.76 82.1361 Q1550.46 80.6778 1552.52 75.2496 L1553.86 71.8468 L1535.51 27.2059 L1543.41 27.2059 L1557.59 62.6918 L1571.77 27.2059 L1579.67 27.2059 L1559.74 76.7889 Z" fill="#000000" fill-rule="nonzero" fill-opacity="1" /><path clip-path="url(#clip900)" d="M1627.67 45.1919 L1627.67 72.576 L1620.22 72.576 L1620.22 45.4349 Q1620.22 38.994 1617.7 35.7938 Q1615.19 32.5936 1610.17 32.5936 Q1604.13 32.5936 1600.65 36.4419 Q1597.17 40.2903 1597.17 46.9338 L1597.17 72.576 L1589.67 72.576 L1589.67 27.2059 L1597.17 27.2059 L1597.17 34.2544 Q1599.84 30.163 1603.44 28.1376 Q1607.09 26.1121 1611.83 26.1121 Q1619.65 26.1121 1623.66 30.9732 Q1627.67 35.7938 1627.67 45.1919 Z" fill="#000000" fill-rule="nonzero" fill-opacity="1" /><path clip-path="url(#clip900)" d="M1660.12 32.4315 Q1654.12 32.4315 1650.64 37.1306 Q1647.15 41.7891 1647.15 49.9314 Q1647.15 58.0738 1650.6 62.7728 Q1654.08 67.4314 1660.12 67.4314 Q1666.07 67.4314 1669.56 62.7323 Q1673.04 58.0333 1673.04 49.9314 Q1673.04 41.8701 1669.56 37.1711 Q1666.07 32.4315 1660.12 32.4315 M1660.12 26.1121 Q1669.84 26.1121 1675.39 32.4315 Q1680.94 38.7509 1680.94 49.9314 Q1680.94 61.0714 1675.39 67.4314 Q1669.84 73.7508 1660.12 73.7508 Q1650.35 73.7508 1644.8 67.4314 Q1639.3 61.0714 1639.3 49.9314 Q1639.3 38.7509 1644.8 32.4315 Q1650.35 26.1121 1660.12 26.1121 Z" fill="#000000" fill-rule="nonzero" fill-opacity="1" /><path clip-path="url(#clip900)" d="M1728.62 35.9153 Q1731.41 30.8922 1735.3 28.5022 Q1739.19 26.1121 1744.46 26.1121 Q1751.55 26.1121 1755.39 31.0947 Q1759.24 36.0368 1759.24 45.1919 L1759.24 72.576 L1751.75 72.576 L1751.75 45.4349 Q1751.75 38.913 1749.44 35.7533 Q1747.13 32.5936 1742.39 32.5936 Q1736.6 32.5936 1733.24 36.4419 Q1729.87 40.2903 1729.87 46.9338 L1729.87 72.576 L1722.38 72.576 L1722.38 45.4349 Q1722.38 38.8725 1720.07 35.7533 Q1717.76 32.5936 1712.94 32.5936 Q1707.23 32.5936 1703.87 36.4824 Q1700.5 40.3308 1700.5 46.9338 L1700.5 72.576 L1693.01 72.576 L1693.01 27.2059 L1700.5 27.2059 L1700.5 34.2544 Q1703.06 30.082 1706.62 28.0971 Q1710.19 26.1121 1715.09 26.1121 Q1720.03 26.1121 1723.47 28.6237 Q1726.96 31.1352 1728.62 35.9153 Z" fill="#000000" fill-rule="nonzero" fill-opacity="1" /><path clip-path="url(#clip900)" d="M1774.11 27.2059 L1781.56 27.2059 L1781.56 72.576 L1774.11 72.576 L1774.11 27.2059 M1774.11 9.54393 L1781.56 9.54393 L1781.56 18.9825 L1774.11 18.9825 L1774.11 9.54393 Z" fill="#000000" fill-rule="nonzero" fill-opacity="1" /><path clip-path="url(#clip900)" d="M1817.78 49.7694 Q1808.74 49.7694 1805.26 51.8354 Q1801.78 53.9013 1801.78 58.8839 Q1801.78 62.8538 1804.37 65.2034 Q1807 67.5124 1811.5 67.5124 Q1817.7 67.5124 1821.42 63.1374 Q1825.19 58.7219 1825.19 51.4303 L1825.19 49.7694 L1817.78 49.7694 M1832.64 46.6907 L1832.64 72.576 L1825.19 72.576 L1825.19 65.6895 Q1822.64 69.8214 1818.83 71.8063 Q1815.02 73.7508 1809.51 73.7508 Q1802.55 73.7508 1798.41 69.8619 Q1794.32 65.9325 1794.32 59.3701 Q1794.32 51.7138 1799.43 47.825 Q1804.57 43.9361 1814.74 43.9361 L1825.19 43.9361 L1825.19 43.2069 Q1825.19 38.0623 1821.79 35.2672 Q1818.43 32.4315 1812.31 32.4315 Q1808.42 32.4315 1804.73 33.3632 Q1801.05 34.295 1797.65 36.1584 L1797.65 29.2718 Q1801.74 27.692 1805.58 26.9223 Q1809.43 26.1121 1813.08 26.1121 Q1822.92 26.1121 1827.78 31.2163 Q1832.64 36.3204 1832.64 46.6907 Z" fill="#000000" fill-rule="nonzero" fill-opacity="1" /><path clip-path="url(#clip900)" d="M1848 9.54393 L1855.45 9.54393 L1855.45 72.576 L1848 72.576 L1848 9.54393 Z" fill="#000000" fill-rule="nonzero" fill-opacity="1" /><path clip-path="url(#clip900)" d="M1899.97 28.5427 L1899.97 35.5912 Q1896.81 33.9709 1893.41 33.1607 Q1890.01 32.3505 1886.36 32.3505 Q1880.81 32.3505 1878.02 34.0519 Q1875.26 35.7533 1875.26 39.156 Q1875.26 41.7486 1877.25 43.2475 Q1879.23 44.7058 1885.23 46.0426 L1887.78 46.6097 Q1895.72 48.3111 1899.04 51.4303 Q1902.4 54.509 1902.4 60.0587 Q1902.4 66.3781 1897.38 70.0644 Q1892.4 73.7508 1883.65 73.7508 Q1880 73.7508 1876.03 73.0216 Q1872.1 72.3329 1867.73 70.9151 L1867.73 63.2184 Q1871.86 65.3654 1875.87 66.4591 Q1879.88 67.5124 1883.81 67.5124 Q1889.07 67.5124 1891.91 65.73 Q1894.75 63.9071 1894.75 60.6258 Q1894.75 57.5877 1892.68 55.9673 Q1890.65 54.3469 1883.73 52.8481 L1881.13 52.2405 Q1874.21 50.7821 1871.13 47.7845 Q1868.05 44.7463 1868.05 39.4801 Q1868.05 33.0797 1872.59 29.5959 Q1877.12 26.1121 1885.47 26.1121 Q1889.6 26.1121 1893.25 26.7198 Q1896.89 27.3274 1899.97 28.5427 Z" fill="#000000" fill-rule="nonzero" fill-opacity="1" /><path clip-path="url(#clip900)" d="M1963.61 9.54393 L1963.61 15.7418 L1956.48 15.7418 Q1952.47 15.7418 1950.89 17.3622 Q1949.35 18.9825 1949.35 23.1955 L1949.35 27.2059 L1961.63 27.2059 L1961.63 32.9987 L1949.35 32.9987 L1949.35 72.576 L1941.86 72.576 L1941.86 32.9987 L1934.73 32.9987 L1934.73 27.2059 L1941.86 27.2059 L1941.86 24.0462 Q1941.86 16.471 1945.38 13.0277 Q1948.91 9.54393 1956.56 9.54393 L1963.61 9.54393 Z" fill="#000000" fill-rule="nonzero" fill-opacity="1" /><path clip-path="url(#clip900)" d="M1987.43 32.4315 Q1981.43 32.4315 1977.95 37.1306 Q1974.47 41.7891 1974.47 49.9314 Q1974.47 58.0738 1977.91 62.7728 Q1981.39 67.4314 1987.43 67.4314 Q1993.38 67.4314 1996.87 62.7323 Q2000.35 58.0333 2000.35 49.9314 Q2000.35 41.8701 1996.87 37.1711 Q1993.38 32.4315 1987.43 32.4315 M1987.43 26.1121 Q1997.15 26.1121 2002.7 32.4315 Q2008.25 38.7509 2008.25 49.9314 Q2008.25 61.0714 2002.7 67.4314 Q1997.15 73.7508 1987.43 73.7508 Q1977.67 73.7508 1972.12 67.4314 Q1966.61 61.0714 1966.61 49.9314 Q1966.61 38.7509 1972.12 32.4315 Q1977.67 26.1121 1987.43 26.1121 Z" fill="#000000" fill-rule="nonzero" fill-opacity="1" /><path clip-path="url(#clip900)" d="M2046.9 34.1734 Q2045.64 33.4443 2044.14 33.1202 Q2042.68 32.7556 2040.9 32.7556 Q2034.58 32.7556 2031.18 36.8875 Q2027.82 40.9789 2027.82 48.6757 L2027.82 72.576 L2020.32 72.576 L2020.32 27.2059 L2027.82 27.2059 L2027.82 34.2544 Q2030.17 30.1225 2033.93 28.1376 Q2037.7 26.1121 2043.09 26.1121 Q2043.86 26.1121 2044.79 26.2337 Q2045.72 26.3147 2046.86 26.5172 L2046.9 34.1734 Z" fill="#000000" fill-rule="nonzero" fill-opacity="1" /><path clip-path="url(#clip900)" d="M2118.8 45.1919 L2118.8 72.576 L2111.35 72.576 L2111.35 45.4349 Q2111.35 38.994 2108.84 35.7938 Q2106.32 32.5936 2101.3 32.5936 Q2095.27 32.5936 2091.78 36.4419 Q2088.3 40.2903 2088.3 46.9338 L2088.3 72.576 L2080.8 72.576 L2080.8 27.2059 L2088.3 27.2059 L2088.3 34.2544 Q2090.97 30.163 2094.58 28.1376 Q2098.22 26.1121 2102.96 26.1121 Q2110.78 26.1121 2114.79 30.9732 Q2118.8 35.7938 2118.8 45.1919 Z" fill="#000000" fill-rule="nonzero" fill-opacity="1" /><path clip-path="url(#clip900)" d="M2134.64 34.9026 L2186.57 34.9026 L2186.57 41.7081 L2134.64 41.7081 L2134.64 34.9026 M2134.64 51.4303 L2186.57 51.4303 L2186.57 58.3168 L2134.64 58.3168 L2134.64 51.4303 Z" fill="#000000" fill-rule="nonzero" fill-opacity="1" /><path clip-path="url(#clip900)" d="M2205.65 65.6895 L2219.02 65.6895 L2219.02 19.5497 L2204.48 22.4663 L2204.48 15.0127 L2218.94 12.096 L2227.12 12.096 L2227.12 65.6895 L2240.49 65.6895 L2240.49 72.576 L2205.65 72.576 L2205.65 65.6895 Z" fill="#000000" fill-rule="nonzero" fill-opacity="1" /><path clip-path="url(#clip900)" d="M2257.87 62.2867 L2266.42 62.2867 L2266.42 72.576 L2257.87 72.576 L2257.87 62.2867 M2257.87 29.6769 L2266.42 29.6769 L2266.42 39.9662 L2257.87 39.9662 L2257.87 29.6769 Z" fill="#000000" fill-rule="nonzero" fill-opacity="1" /><path clip-path="url(#clip900)" d="M2292.02 65.6895 L2320.58 65.6895 L2320.58 72.576 L2282.17 72.576 L2282.17 65.6895 Q2286.83 60.8689 2294.85 52.7671 Q2302.91 44.6248 2304.98 42.2752 Q2308.91 37.8598 2310.45 34.8216 Q2312.03 31.7429 2312.03 28.7857 Q2312.03 23.9651 2308.63 20.927 Q2305.26 17.8888 2299.84 17.8888 Q2295.99 17.8888 2291.69 19.2256 Q2287.44 20.5624 2282.58 23.2765 L2282.58 15.0127 Q2287.52 13.0277 2291.81 12.015 Q2296.11 11.0023 2299.67 11.0023 Q2309.07 11.0023 2314.66 15.7013 Q2320.25 20.4004 2320.25 28.2591 Q2320.25 31.9859 2318.83 35.3482 Q2317.46 38.6699 2313.77 43.2069 Q2312.76 44.3817 2307.33 50.0125 Q2301.9 55.6027 2292.02 65.6895 Z" fill="#000000" fill-rule="nonzero" fill-opacity="1" /><path clip-path="url(#clip900)" d="M2355.25 17.4837 Q2348.93 17.4837 2345.73 23.7221 Q2342.57 29.92 2342.57 42.3968 Q2342.57 54.833 2345.73 61.0714 Q2348.93 67.2693 2355.25 67.2693 Q2361.61 67.2693 2364.77 61.0714 Q2367.97 54.833 2367.97 42.3968 Q2367.97 29.92 2364.77 23.7221 Q2361.61 17.4837 2355.25 17.4837 M2355.25 11.0023 Q2365.42 11.0023 2370.77 19.0636 Q2376.15 27.0843 2376.15 42.3968 Q2376.15 57.6687 2370.77 65.73 Q2365.42 73.7508 2355.25 73.7508 Q2345.08 73.7508 2339.7 65.73 Q2334.35 57.6687 2334.35 42.3968 Q2334.35 27.0843 2339.7 19.0636 Q2345.08 11.0023 2355.25 11.0023 Z" fill="#000000" fill-rule="nonzero" fill-opacity="1" /><circle clip-path="url(#clip902)" cx="1278.36" cy="1386.4" r="14.4" fill="#009af9" fill-rule="evenodd" fill-opacity="1" stroke="#000000" stroke-opacity="1" stroke-width="3.2"/>
<circle clip-path="url(#clip902)" cx="1145.33" cy="1321.86" r="14.4" fill="#009af9" fill-rule="evenodd" fill-opacity="1" stroke="#000000" stroke-opacity="1" stroke-width="3.2"/>
<circle clip-path="url(#clip902)" cx="1411.39" cy="1321.86" r="14.4" fill="#009af9" fill-rule="evenodd" fill-opacity="1" stroke="#000000" stroke-opacity="1" stroke-width="3.2"/>
<circle clip-path="url(#clip902)" cx="1047.94" cy="1257.33" r="14.4" fill="#009af9" fill-rule="evenodd" fill-opacity="1" stroke="#000000" stroke-opacity="1" stroke-width="3.2"/>
<circle clip-path="url(#clip902)" cx="1508.78" cy="1257.33" r="14.4" fill="#009af9" fill-rule="evenodd" fill-opacity="1" stroke="#000000" stroke-opacity="1" stroke-width="3.2"/>
<circle clip-path="url(#clip902)" cx="1278.36" cy="1257.33" r="14.4" fill="#009af9" fill-rule="evenodd" fill-opacity="1" stroke="#000000" stroke-opacity="1" stroke-width="3.2"/>
<circle clip-path="url(#clip902)" cx="967.807" cy="1192.79" r="14.4" fill="#009af9" fill-rule="evenodd" fill-opacity="1" stroke="#000000" stroke-opacity="1" stroke-width="3.2"/>
<circle clip-path="url(#clip902)" cx="1179.65" cy="1192.79" r="14.4" fill="#009af9" fill-rule="evenodd" fill-opacity="1" stroke="#000000" stroke-opacity="1" stroke-width="3.2"/>
<circle clip-path="url(#clip902)" cx="1377.07" cy="1192.79" r="14.4" fill="#009af9" fill-rule="evenodd" fill-opacity="1" stroke="#000000" stroke-opacity="1" stroke-width="3.2"/>
<circle clip-path="url(#clip902)" cx="1588.91" cy="1192.79" r="14.4" fill="#009af9" fill-rule="evenodd" fill-opacity="1" stroke="#000000" stroke-opacity="1" stroke-width="3.2"/>
<circle clip-path="url(#clip902)" cx="898.29" cy="1128.26" r="14.4" fill="#009af9" fill-rule="evenodd" fill-opacity="1" stroke="#000000" stroke-opacity="1" stroke-width="3.2"/>
<circle clip-path="url(#clip902)" cx="1098.02" cy="1128.26" r="14.4" fill="#009af9" fill-rule="evenodd" fill-opacity="1" stroke="#000000" stroke-opacity="1" stroke-width="3.2"/>
<circle clip-path="url(#clip902)" cx="1458.7" cy="1128.26" r="14.4" fill="#009af9" fill-rule="evenodd" fill-opacity="1" stroke="#000000" stroke-opacity="1" stroke-width="3.2"/>
<circle clip-path="url(#clip902)" cx="1658.43" cy="1128.26" r="14.4" fill="#009af9" fill-rule="evenodd" fill-opacity="1" stroke="#000000" stroke-opacity="1" stroke-width="3.2"/>
<circle clip-path="url(#clip902)" cx="1278.36" cy="1128.26" r="14.4" fill="#009af9" fill-rule="evenodd" fill-opacity="1" stroke="#000000" stroke-opacity="1" stroke-width="3.2"/>
<circle clip-path="url(#clip902)" cx="836.125" cy="1063.73" r="14.4" fill="#009af9" fill-rule="evenodd" fill-opacity="1" stroke="#000000" stroke-opacity="1" stroke-width="3.2"/>
<circle clip-path="url(#clip902)" cx="1027.04" cy="1063.73" r="14.4" fill="#009af9" fill-rule="evenodd" fill-opacity="1" stroke="#000000" stroke-opacity="1" stroke-width="3.2"/>
<circle clip-path="url(#clip902)" cx="1196.32" cy="1063.73" r="14.4" fill="#009af9" fill-rule="evenodd" fill-opacity="1" stroke="#000000" stroke-opacity="1" stroke-width="3.2"/>
<circle clip-path="url(#clip902)" cx="1360.4" cy="1063.73" r="14.4" fill="#009af9" fill-rule="evenodd" fill-opacity="1" stroke="#000000" stroke-opacity="1" stroke-width="3.2"/>
<circle clip-path="url(#clip902)" cx="1529.68" cy="1063.73" r="14.4" fill="#009af9" fill-rule="evenodd" fill-opacity="1" stroke="#000000" stroke-opacity="1" stroke-width="3.2"/>
<circle clip-path="url(#clip902)" cx="1720.59" cy="1063.73" r="14.4" fill="#009af9" fill-rule="evenodd" fill-opacity="1" stroke="#000000" stroke-opacity="1" stroke-width="3.2"/>
<circle clip-path="url(#clip902)" cx="779.429" cy="999.194" r="14.4" fill="#009af9" fill-rule="evenodd" fill-opacity="1" stroke="#000000" stroke-opacity="1" stroke-width="3.2"/>
<circle clip-path="url(#clip902)" cx="963.504" cy="999.194" r="14.4" fill="#009af9" fill-rule="evenodd" fill-opacity="1" stroke="#000000" stroke-opacity="1" stroke-width="3.2"/>
<circle clip-path="url(#clip902)" cx="1124.79" cy="999.194" r="14.4" fill="#009af9" fill-rule="evenodd" fill-opacity="1" stroke="#000000" stroke-opacity="1" stroke-width="3.2"/>
<circle clip-path="url(#clip902)" cx="1431.93" cy="999.194" r="14.4" fill="#009af9" fill-rule="evenodd" fill-opacity="1" stroke="#000000" stroke-opacity="1" stroke-width="3.2"/>
<circle clip-path="url(#clip902)" cx="1593.22" cy="999.194" r="14.4" fill="#009af9" fill-rule="evenodd" fill-opacity="1" stroke="#000000" stroke-opacity="1" stroke-width="3.2"/>
<circle clip-path="url(#clip902)" cx="1777.29" cy="999.194" r="14.4" fill="#009af9" fill-rule="evenodd" fill-opacity="1" stroke="#000000" stroke-opacity="1" stroke-width="3.2"/>
<circle clip-path="url(#clip902)" cx="1278.36" cy="999.194" r="14.4" fill="#009af9" fill-rule="evenodd" fill-opacity="1" stroke="#000000" stroke-opacity="1" stroke-width="3.2"/>
<circle clip-path="url(#clip902)" cx="727" cy="934.66" r="14.4" fill="#009af9" fill-rule="evenodd" fill-opacity="1" stroke="#000000" stroke-opacity="1" stroke-width="3.2"/>
<circle clip-path="url(#clip902)" cx="905.538" cy="934.66" r="14.4" fill="#009af9" fill-rule="evenodd" fill-opacity="1" stroke="#000000" stroke-opacity="1" stroke-width="3.2"/>
<circle clip-path="url(#clip902)" cx="1060.65" cy="934.66" r="14.4" fill="#009af9" fill-rule="evenodd" fill-opacity="1" stroke="#000000" stroke-opacity="1" stroke-width="3.2"/>
<circle clip-path="url(#clip902)" cx="1206.64" cy="934.66" r="14.4" fill="#009af9" fill-rule="evenodd" fill-opacity="1" stroke="#000000" stroke-opacity="1" stroke-width="3.2"/>
<circle clip-path="url(#clip902)" cx="1350.07" cy="934.66" r="14.4" fill="#009af9" fill-rule="evenodd" fill-opacity="1" stroke="#000000" stroke-opacity="1" stroke-width="3.2"/>
<circle clip-path="url(#clip902)" cx="1496.07" cy="934.66" r="14.4" fill="#009af9" fill-rule="evenodd" fill-opacity="1" stroke="#000000" stroke-opacity="1" stroke-width="3.2"/>
<circle clip-path="url(#clip902)" cx="1651.18" cy="934.66" r="14.4" fill="#009af9" fill-rule="evenodd" fill-opacity="1" stroke="#000000" stroke-opacity="1" stroke-width="3.2"/>
<circle clip-path="url(#clip902)" cx="1829.72" cy="934.66" r="14.4" fill="#009af9" fill-rule="evenodd" fill-opacity="1" stroke="#000000" stroke-opacity="1" stroke-width="3.2"/>
<circle clip-path="url(#clip902)" cx="678.018" cy="870.126" r="14.4" fill="#009af9" fill-rule="evenodd" fill-opacity="1" stroke="#000000" stroke-opacity="1" stroke-width="3.2"/>
<circle clip-path="url(#clip902)" cx="851.933" cy="870.126" r="14.4" fill="#009af9" fill-rule="evenodd" fill-opacity="1" stroke="#000000" stroke-opacity="1" stroke-width="3.2"/>
<circle clip-path="url(#clip902)" cx="1002.07" cy="870.126" r="14.4" fill="#009af9" fill-rule="evenodd" fill-opacity="1" stroke="#000000" stroke-opacity="1" stroke-width="3.2"/>
<circle clip-path="url(#clip902)" cx="1142.23" cy="870.126" r="14.4" fill="#009af9" fill-rule="evenodd" fill-opacity="1" stroke="#000000" stroke-opacity="1" stroke-width="3.2"/>
<circle clip-path="url(#clip902)" cx="1414.49" cy="870.126" r="14.4" fill="#009af9" fill-rule="evenodd" fill-opacity="1" stroke="#000000" stroke-opacity="1" stroke-width="3.2"/>
<circle clip-path="url(#clip902)" cx="1554.65" cy="870.126" r="14.4" fill="#009af9" fill-rule="evenodd" fill-opacity="1" stroke="#000000" stroke-opacity="1" stroke-width="3.2"/>
<circle clip-path="url(#clip902)" cx="1704.79" cy="870.126" r="14.4" fill="#009af9" fill-rule="evenodd" fill-opacity="1" stroke="#000000" stroke-opacity="1" stroke-width="3.2"/>
<circle clip-path="url(#clip902)" cx="1878.7" cy="870.126" r="14.4" fill="#009af9" fill-rule="evenodd" fill-opacity="1" stroke="#000000" stroke-opacity="1" stroke-width="3.2"/>
<circle clip-path="url(#clip902)" cx="1278.36" cy="870.126" r="14.4" fill="#009af9" fill-rule="evenodd" fill-opacity="1" stroke="#000000" stroke-opacity="1" stroke-width="3.2"/>
<circle clip-path="url(#clip902)" cx="631.893" cy="805.593" r="14.4" fill="#009af9" fill-rule="evenodd" fill-opacity="1" stroke="#000000" stroke-opacity="1" stroke-width="3.2"/>
<circle clip-path="url(#clip902)" cx="801.861" cy="805.593" r="14.4" fill="#009af9" fill-rule="evenodd" fill-opacity="1" stroke="#000000" stroke-opacity="1" stroke-width="3.2"/>
<circle clip-path="url(#clip902)" cx="947.864" cy="805.593" r="14.4" fill="#009af9" fill-rule="evenodd" fill-opacity="1" stroke="#000000" stroke-opacity="1" stroke-width="3.2"/>
<circle clip-path="url(#clip902)" cx="1083.34" cy="805.593" r="14.4" fill="#009af9" fill-rule="evenodd" fill-opacity="1" stroke="#000000" stroke-opacity="1" stroke-width="3.2"/>
<circle clip-path="url(#clip902)" cx="1213.85" cy="805.593" r="14.4" fill="#009af9" fill-rule="evenodd" fill-opacity="1" stroke="#000000" stroke-opacity="1" stroke-width="3.2"/>
<circle clip-path="url(#clip902)" cx="1342.87" cy="805.593" r="14.4" fill="#009af9" fill-rule="evenodd" fill-opacity="1" stroke="#000000" stroke-opacity="1" stroke-width="3.2"/>
<circle clip-path="url(#clip902)" cx="1473.38" cy="805.593" r="14.4" fill="#009af9" fill-rule="evenodd" fill-opacity="1" stroke="#000000" stroke-opacity="1" stroke-width="3.2"/>
<circle clip-path="url(#clip902)" cx="1608.86" cy="805.593" r="14.4" fill="#009af9" fill-rule="evenodd" fill-opacity="1" stroke="#000000" stroke-opacity="1" stroke-width="3.2"/>
<circle clip-path="url(#clip902)" cx="1754.86" cy="805.593" r="14.4" fill="#009af9" fill-rule="evenodd" fill-opacity="1" stroke="#000000" stroke-opacity="1" stroke-width="3.2"/>
<circle clip-path="url(#clip902)" cx="1924.83" cy="805.593" r="14.4" fill="#009af9" fill-rule="evenodd" fill-opacity="1" stroke="#000000" stroke-opacity="1" stroke-width="3.2"/>
<circle clip-path="url(#clip902)" cx="588.187" cy="741.059" r="14.4" fill="#009af9" fill-rule="evenodd" fill-opacity="1" stroke="#000000" stroke-opacity="1" stroke-width="3.2"/>
<circle clip-path="url(#clip902)" cx="754.722" cy="741.059" r="14.4" fill="#009af9" fill-rule="evenodd" fill-opacity="1" stroke="#000000" stroke-opacity="1" stroke-width="3.2"/>
<circle clip-path="url(#clip902)" cx="897.205" cy="741.059" r="14.4" fill="#009af9" fill-rule="evenodd" fill-opacity="1" stroke="#000000" stroke-opacity="1" stroke-width="3.2"/>
<circle clip-path="url(#clip902)" cx="1028.79" cy="741.059" r="14.4" fill="#009af9" fill-rule="evenodd" fill-opacity="1" stroke="#000000" stroke-opacity="1" stroke-width="3.2"/>
<circle clip-path="url(#clip902)" cx="1154.79" cy="741.059" r="14.4" fill="#009af9" fill-rule="evenodd" fill-opacity="1" stroke="#000000" stroke-opacity="1" stroke-width="3.2"/>
<circle clip-path="url(#clip902)" cx="1401.93" cy="741.059" r="14.4" fill="#009af9" fill-rule="evenodd" fill-opacity="1" stroke="#000000" stroke-opacity="1" stroke-width="3.2"/>
<circle clip-path="url(#clip902)" cx="1527.93" cy="741.059" r="14.4" fill="#009af9" fill-rule="evenodd" fill-opacity="1" stroke="#000000" stroke-opacity="1" stroke-width="3.2"/>
<circle clip-path="url(#clip902)" cx="1659.51" cy="741.059" r="14.4" fill="#009af9" fill-rule="evenodd" fill-opacity="1" stroke="#000000" stroke-opacity="1" stroke-width="3.2"/>
<circle clip-path="url(#clip902)" cx="1802" cy="741.059" r="14.4" fill="#009af9" fill-rule="evenodd" fill-opacity="1" stroke="#000000" stroke-opacity="1" stroke-width="3.2"/>
<circle clip-path="url(#clip902)" cx="1968.53" cy="741.059" r="14.4" fill="#009af9" fill-rule="evenodd" fill-opacity="1" stroke="#000000" stroke-opacity="1" stroke-width="3.2"/>
<circle clip-path="url(#clip902)" cx="1278.36" cy="741.059" r="14.4" fill="#009af9" fill-rule="evenodd" fill-opacity="1" stroke="#000000" stroke-opacity="1" stroke-width="3.2"/>
<circle clip-path="url(#clip902)" cx="546.561" cy="676.526" r="14.4" fill="#009af9" fill-rule="evenodd" fill-opacity="1" stroke="#000000" stroke-opacity="1" stroke-width="3.2"/>
<circle clip-path="url(#clip902)" cx="710.068" cy="676.526" r="14.4" fill="#009af9" fill-rule="evenodd" fill-opacity="1" stroke="#000000" stroke-opacity="1" stroke-width="3.2"/>
<circle clip-path="url(#clip902)" cx="849.501" cy="676.526" r="14.4" fill="#009af9" fill-rule="evenodd" fill-opacity="1" stroke="#000000" stroke-opacity="1" stroke-width="3.2"/>
<circle clip-path="url(#clip902)" cx="977.777" cy="676.526" r="14.4" fill="#009af9" fill-rule="evenodd" fill-opacity="1" stroke="#000000" stroke-opacity="1" stroke-width="3.2"/>
<circle clip-path="url(#clip902)" cx="1100.05" cy="676.526" r="14.4" fill="#009af9" fill-rule="evenodd" fill-opacity="1" stroke="#000000" stroke-opacity="1" stroke-width="3.2"/>
<circle clip-path="url(#clip902)" cx="1219.24" cy="676.526" r="14.4" fill="#009af9" fill-rule="evenodd" fill-opacity="1" stroke="#000000" stroke-opacity="1" stroke-width="3.2"/>
<circle clip-path="url(#clip902)" cx="1337.48" cy="676.526" r="14.4" fill="#009af9" fill-rule="evenodd" fill-opacity="1" stroke="#000000" stroke-opacity="1" stroke-width="3.2"/>
<circle clip-path="url(#clip902)" cx="1456.67" cy="676.526" r="14.4" fill="#009af9" fill-rule="evenodd" fill-opacity="1" stroke="#000000" stroke-opacity="1" stroke-width="3.2"/>
<circle clip-path="url(#clip902)" cx="1578.94" cy="676.526" r="14.4" fill="#009af9" fill-rule="evenodd" fill-opacity="1" stroke="#000000" stroke-opacity="1" stroke-width="3.2"/>
<circle clip-path="url(#clip902)" cx="1707.22" cy="676.526" r="14.4" fill="#009af9" fill-rule="evenodd" fill-opacity="1" stroke="#000000" stroke-opacity="1" stroke-width="3.2"/>
<circle clip-path="url(#clip902)" cx="1846.65" cy="676.526" r="14.4" fill="#009af9" fill-rule="evenodd" fill-opacity="1" stroke="#000000" stroke-opacity="1" stroke-width="3.2"/>
<circle clip-path="url(#clip902)" cx="2010.16" cy="676.526" r="14.4" fill="#009af9" fill-rule="evenodd" fill-opacity="1" stroke="#000000" stroke-opacity="1" stroke-width="3.2"/>
<circle clip-path="url(#clip902)" cx="506.749" cy="611.992" r="14.4" fill="#009af9" fill-rule="evenodd" fill-opacity="1" stroke="#000000" stroke-opacity="1" stroke-width="3.2"/>
<circle clip-path="url(#clip902)" cx="667.554" cy="611.992" r="14.4" fill="#009af9" fill-rule="evenodd" fill-opacity="1" stroke="#000000" stroke-opacity="1" stroke-width="3.2"/>
<circle clip-path="url(#clip902)" cx="804.306" cy="611.992" r="14.4" fill="#009af9" fill-rule="evenodd" fill-opacity="1" stroke="#000000" stroke-opacity="1" stroke-width="3.2"/>
<circle clip-path="url(#clip902)" cx="929.723" cy="611.992" r="14.4" fill="#009af9" fill-rule="evenodd" fill-opacity="1" stroke="#000000" stroke-opacity="1" stroke-width="3.2"/>
<circle clip-path="url(#clip902)" cx="1048.82" cy="611.992" r="14.4" fill="#009af9" fill-rule="evenodd" fill-opacity="1" stroke="#000000" stroke-opacity="1" stroke-width="3.2"/>
<circle clip-path="url(#clip902)" cx="1164.39" cy="611.992" r="14.4" fill="#009af9" fill-rule="evenodd" fill-opacity="1" stroke="#000000" stroke-opacity="1" stroke-width="3.2"/>
<circle clip-path="url(#clip902)" cx="1392.33" cy="611.992" r="14.4" fill="#009af9" fill-rule="evenodd" fill-opacity="1" stroke="#000000" stroke-opacity="1" stroke-width="3.2"/>
<circle clip-path="url(#clip902)" cx="1507.9" cy="611.992" r="14.4" fill="#009af9" fill-rule="evenodd" fill-opacity="1" stroke="#000000" stroke-opacity="1" stroke-width="3.2"/>
<circle clip-path="url(#clip902)" cx="1627" cy="611.992" r="14.4" fill="#009af9" fill-rule="evenodd" fill-opacity="1" stroke="#000000" stroke-opacity="1" stroke-width="3.2"/>
<circle clip-path="url(#clip902)" cx="1752.41" cy="611.992" r="14.4" fill="#009af9" fill-rule="evenodd" fill-opacity="1" stroke="#000000" stroke-opacity="1" stroke-width="3.2"/>
<circle clip-path="url(#clip902)" cx="1889.17" cy="611.992" r="14.4" fill="#009af9" fill-rule="evenodd" fill-opacity="1" stroke="#000000" stroke-opacity="1" stroke-width="3.2"/>
<circle clip-path="url(#clip902)" cx="2049.97" cy="611.992" r="14.4" fill="#009af9" fill-rule="evenodd" fill-opacity="1" stroke="#000000" stroke-opacity="1" stroke-width="3.2"/>
<circle clip-path="url(#clip902)" cx="1278.36" cy="611.992" r="14.4" fill="#009af9" fill-rule="evenodd" fill-opacity="1" stroke="#000000" stroke-opacity="1" stroke-width="3.2"/>
<circle clip-path="url(#clip902)" cx="468.536" cy="547.458" r="14.4" fill="#009af9" fill-rule="evenodd" fill-opacity="1" stroke="#000000" stroke-opacity="1" stroke-width="3.2"/>
<circle clip-path="url(#clip902)" cx="626.908" cy="547.458" r="14.4" fill="#009af9" fill-rule="evenodd" fill-opacity="1" stroke="#000000" stroke-opacity="1" stroke-width="3.2"/>
<circle clip-path="url(#clip902)" cx="761.272" cy="547.458" r="14.4" fill="#009af9" fill-rule="evenodd" fill-opacity="1" stroke="#000000" stroke-opacity="1" stroke-width="3.2"/>
<circle clip-path="url(#clip902)" cx="884.179" cy="547.458" r="14.4" fill="#009af9" fill-rule="evenodd" fill-opacity="1" stroke="#000000" stroke-opacity="1" stroke-width="3.2"/>
<circle clip-path="url(#clip902)" cx="1000.54" cy="547.458" r="14.4" fill="#009af9" fill-rule="evenodd" fill-opacity="1" stroke="#000000" stroke-opacity="1" stroke-width="3.2"/>
<circle clip-path="url(#clip902)" cx="1113.04" cy="547.458" r="14.4" fill="#009af9" fill-rule="evenodd" fill-opacity="1" stroke="#000000" stroke-opacity="1" stroke-width="3.2"/>
<circle clip-path="url(#clip902)" cx="1223.47" cy="547.458" r="14.4" fill="#009af9" fill-rule="evenodd" fill-opacity="1" stroke="#000000" stroke-opacity="1" stroke-width="3.2"/>
<circle clip-path="url(#clip902)" cx="1333.25" cy="547.458" r="14.4" fill="#009af9" fill-rule="evenodd" fill-opacity="1" stroke="#000000" stroke-opacity="1" stroke-width="3.2"/>
<circle clip-path="url(#clip902)" cx="1443.68" cy="547.458" r="14.4" fill="#009af9" fill-rule="evenodd" fill-opacity="1" stroke="#000000" stroke-opacity="1" stroke-width="3.2"/>
<circle clip-path="url(#clip902)" cx="1556.18" cy="547.458" r="14.4" fill="#009af9" fill-rule="evenodd" fill-opacity="1" stroke="#000000" stroke-opacity="1" stroke-width="3.2"/>
<circle clip-path="url(#clip902)" cx="1672.54" cy="547.458" r="14.4" fill="#009af9" fill-rule="evenodd" fill-opacity="1" stroke="#000000" stroke-opacity="1" stroke-width="3.2"/>
<circle clip-path="url(#clip902)" cx="1795.45" cy="547.458" r="14.4" fill="#009af9" fill-rule="evenodd" fill-opacity="1" stroke="#000000" stroke-opacity="1" stroke-width="3.2"/>
<circle clip-path="url(#clip902)" cx="1929.81" cy="547.458" r="14.4" fill="#009af9" fill-rule="evenodd" fill-opacity="1" stroke="#000000" stroke-opacity="1" stroke-width="3.2"/>
<circle clip-path="url(#clip902)" cx="2088.18" cy="547.458" r="14.4" fill="#009af9" fill-rule="evenodd" fill-opacity="1" stroke="#000000" stroke-opacity="1" stroke-width="3.2"/>
<circle clip-path="url(#clip902)" cx="431.748" cy="482.925" r="14.4" fill="#009af9" fill-rule="evenodd" fill-opacity="1" stroke="#000000" stroke-opacity="1" stroke-width="3.2"/>
<circle clip-path="url(#clip902)" cx="587.908" cy="482.925" r="14.4" fill="#009af9" fill-rule="evenodd" fill-opacity="1" stroke="#000000" stroke-opacity="1" stroke-width="3.2"/>
<circle clip-path="url(#clip902)" cx="720.128" cy="482.925" r="14.4" fill="#009af9" fill-rule="evenodd" fill-opacity="1" stroke="#000000" stroke-opacity="1" stroke-width="3.2"/>
<circle clip-path="url(#clip902)" cx="840.805" cy="482.925" r="14.4" fill="#009af9" fill-rule="evenodd" fill-opacity="1" stroke="#000000" stroke-opacity="1" stroke-width="3.2"/>
<circle clip-path="url(#clip902)" cx="954.767" cy="482.925" r="14.4" fill="#009af9" fill-rule="evenodd" fill-opacity="1" stroke="#000000" stroke-opacity="1" stroke-width="3.2"/>
<circle clip-path="url(#clip902)" cx="1064.62" cy="482.925" r="14.4" fill="#009af9" fill-rule="evenodd" fill-opacity="1" stroke="#000000" stroke-opacity="1" stroke-width="3.2"/>
<circle clip-path="url(#clip902)" cx="1172.05" cy="482.925" r="14.4" fill="#009af9" fill-rule="evenodd" fill-opacity="1" stroke="#000000" stroke-opacity="1" stroke-width="3.2"/>
<circle clip-path="url(#clip902)" cx="1384.67" cy="482.925" r="14.4" fill="#009af9" fill-rule="evenodd" fill-opacity="1" stroke="#000000" stroke-opacity="1" stroke-width="3.2"/>
<circle clip-path="url(#clip902)" cx="1492.1" cy="482.925" r="14.4" fill="#009af9" fill-rule="evenodd" fill-opacity="1" stroke="#000000" stroke-opacity="1" stroke-width="3.2"/>
<circle clip-path="url(#clip902)" cx="1601.95" cy="482.925" r="14.4" fill="#009af9" fill-rule="evenodd" fill-opacity="1" stroke="#000000" stroke-opacity="1" stroke-width="3.2"/>
<circle clip-path="url(#clip902)" cx="1715.91" cy="482.925" r="14.4" fill="#009af9" fill-rule="evenodd" fill-opacity="1" stroke="#000000" stroke-opacity="1" stroke-width="3.2"/>
<circle clip-path="url(#clip902)" cx="1836.59" cy="482.925" r="14.4" fill="#009af9" fill-rule="evenodd" fill-opacity="1" stroke="#000000" stroke-opacity="1" stroke-width="3.2"/>
<circle clip-path="url(#clip902)" cx="1968.81" cy="482.925" r="14.4" fill="#009af9" fill-rule="evenodd" fill-opacity="1" stroke="#000000" stroke-opacity="1" stroke-width="3.2"/>
<circle clip-path="url(#clip902)" cx="2124.97" cy="482.925" r="14.4" fill="#009af9" fill-rule="evenodd" fill-opacity="1" stroke="#000000" stroke-opacity="1" stroke-width="3.2"/>
<circle clip-path="url(#clip902)" cx="1278.36" cy="482.925" r="14.4" fill="#009af9" fill-rule="evenodd" fill-opacity="1" stroke="#000000" stroke-opacity="1" stroke-width="3.2"/>
<circle clip-path="url(#clip902)" cx="396.237" cy="418.391" r="14.4" fill="#009af9" fill-rule="evenodd" fill-opacity="1" stroke="#000000" stroke-opacity="1" stroke-width="3.2"/>
<circle clip-path="url(#clip902)" cx="550.376" cy="418.391" r="14.4" fill="#009af9" fill-rule="evenodd" fill-opacity="1" stroke="#000000" stroke-opacity="1" stroke-width="3.2"/>
<circle clip-path="url(#clip902)" cx="680.651" cy="418.391" r="14.4" fill="#009af9" fill-rule="evenodd" fill-opacity="1" stroke="#000000" stroke-opacity="1" stroke-width="3.2"/>
<circle clip-path="url(#clip902)" cx="799.326" cy="418.391" r="14.4" fill="#009af9" fill-rule="evenodd" fill-opacity="1" stroke="#000000" stroke-opacity="1" stroke-width="3.2"/>
<circle clip-path="url(#clip902)" cx="911.157" cy="418.391" r="14.4" fill="#009af9" fill-rule="evenodd" fill-opacity="1" stroke="#000000" stroke-opacity="1" stroke-width="3.2"/>
<circle clip-path="url(#clip902)" cx="1018.68" cy="418.391" r="14.4" fill="#009af9" fill-rule="evenodd" fill-opacity="1" stroke="#000000" stroke-opacity="1" stroke-width="3.2"/>
<circle clip-path="url(#clip902)" cx="1123.53" cy="418.391" r="14.4" fill="#009af9" fill-rule="evenodd" fill-opacity="1" stroke="#000000" stroke-opacity="1" stroke-width="3.2"/>
<circle clip-path="url(#clip902)" cx="1226.91" cy="418.391" r="14.4" fill="#009af9" fill-rule="evenodd" fill-opacity="1" stroke="#000000" stroke-opacity="1" stroke-width="3.2"/>
<circle clip-path="url(#clip902)" cx="1329.81" cy="418.391" r="14.4" fill="#009af9" fill-rule="evenodd" fill-opacity="1" stroke="#000000" stroke-opacity="1" stroke-width="3.2"/>
<circle clip-path="url(#clip902)" cx="1433.19" cy="418.391" r="14.4" fill="#009af9" fill-rule="evenodd" fill-opacity="1" stroke="#000000" stroke-opacity="1" stroke-width="3.2"/>
<circle clip-path="url(#clip902)" cx="1538.04" cy="418.391" r="14.4" fill="#009af9" fill-rule="evenodd" fill-opacity="1" stroke="#000000" stroke-opacity="1" stroke-width="3.2"/>
<circle clip-path="url(#clip902)" cx="1645.56" cy="418.391" r="14.4" fill="#009af9" fill-rule="evenodd" fill-opacity="1" stroke="#000000" stroke-opacity="1" stroke-width="3.2"/>
<circle clip-path="url(#clip902)" cx="1757.39" cy="418.391" r="14.4" fill="#009af9" fill-rule="evenodd" fill-opacity="1" stroke="#000000" stroke-opacity="1" stroke-width="3.2"/>
<circle clip-path="url(#clip902)" cx="1876.07" cy="418.391" r="14.4" fill="#009af9" fill-rule="evenodd" fill-opacity="1" stroke="#000000" stroke-opacity="1" stroke-width="3.2"/>
<circle clip-path="url(#clip902)" cx="2006.34" cy="418.391" r="14.4" fill="#009af9" fill-rule="evenodd" fill-opacity="1" stroke="#000000" stroke-opacity="1" stroke-width="3.2"/>
<circle clip-path="url(#clip902)" cx="2160.48" cy="418.391" r="14.4" fill="#009af9" fill-rule="evenodd" fill-opacity="1" stroke="#000000" stroke-opacity="1" stroke-width="3.2"/>
<circle clip-path="url(#clip902)" cx="361.882" cy="353.857" r="14.4" fill="#009af9" fill-rule="evenodd" fill-opacity="1" stroke="#000000" stroke-opacity="1" stroke-width="3.2"/>
<circle clip-path="url(#clip902)" cx="514.16" cy="353.857" r="14.4" fill="#009af9" fill-rule="evenodd" fill-opacity="1" stroke="#000000" stroke-opacity="1" stroke-width="3.2"/>
<circle clip-path="url(#clip902)" cx="642.66" cy="353.857" r="14.4" fill="#009af9" fill-rule="evenodd" fill-opacity="1" stroke="#000000" stroke-opacity="1" stroke-width="3.2"/>
<circle clip-path="url(#clip902)" cx="759.524" cy="353.857" r="14.4" fill="#009af9" fill-rule="evenodd" fill-opacity="1" stroke="#000000" stroke-opacity="1" stroke-width="3.2"/>
<circle clip-path="url(#clip902)" cx="869.445" cy="353.857" r="14.4" fill="#009af9" fill-rule="evenodd" fill-opacity="1" stroke="#000000" stroke-opacity="1" stroke-width="3.2"/>
<circle clip-path="url(#clip902)" cx="974.91" cy="353.857" r="14.4" fill="#009af9" fill-rule="evenodd" fill-opacity="1" stroke="#000000" stroke-opacity="1" stroke-width="3.2"/>
<circle clip-path="url(#clip902)" cx="1077.5" cy="353.857" r="14.4" fill="#009af9" fill-rule="evenodd" fill-opacity="1" stroke="#000000" stroke-opacity="1" stroke-width="3.2"/>
<circle clip-path="url(#clip902)" cx="1178.34" cy="353.857" r="14.4" fill="#009af9" fill-rule="evenodd" fill-opacity="1" stroke="#000000" stroke-opacity="1" stroke-width="3.2"/>
<circle clip-path="url(#clip902)" cx="1378.38" cy="353.857" r="14.4" fill="#009af9" fill-rule="evenodd" fill-opacity="1" stroke="#000000" stroke-opacity="1" stroke-width="3.2"/>
<circle clip-path="url(#clip902)" cx="1479.22" cy="353.857" r="14.4" fill="#009af9" fill-rule="evenodd" fill-opacity="1" stroke="#000000" stroke-opacity="1" stroke-width="3.2"/>
<circle clip-path="url(#clip902)" cx="1581.81" cy="353.857" r="14.4" fill="#009af9" fill-rule="evenodd" fill-opacity="1" stroke="#000000" stroke-opacity="1" stroke-width="3.2"/>
<circle clip-path="url(#clip902)" cx="1687.27" cy="353.857" r="14.4" fill="#009af9" fill-rule="evenodd" fill-opacity="1" stroke="#000000" stroke-opacity="1" stroke-width="3.2"/>
<circle clip-path="url(#clip902)" cx="1797.2" cy="353.857" r="14.4" fill="#009af9" fill-rule="evenodd" fill-opacity="1" stroke="#000000" stroke-opacity="1" stroke-width="3.2"/>
<circle clip-path="url(#clip902)" cx="1914.06" cy="353.857" r="14.4" fill="#009af9" fill-rule="evenodd" fill-opacity="1" stroke="#000000" stroke-opacity="1" stroke-width="3.2"/>
<circle clip-path="url(#clip902)" cx="2042.56" cy="353.857" r="14.4" fill="#009af9" fill-rule="evenodd" fill-opacity="1" stroke="#000000" stroke-opacity="1" stroke-width="3.2"/>
<circle clip-path="url(#clip902)" cx="2194.84" cy="353.857" r="14.4" fill="#009af9" fill-rule="evenodd" fill-opacity="1" stroke="#000000" stroke-opacity="1" stroke-width="3.2"/>
<circle clip-path="url(#clip902)" cx="1278.36" cy="353.857" r="14.4" fill="#009af9" fill-rule="evenodd" fill-opacity="1" stroke="#000000" stroke-opacity="1" stroke-width="3.2"/>
<circle clip-path="url(#clip902)" cx="328.579" cy="289.324" r="14.4" fill="#009af9" fill-rule="evenodd" fill-opacity="1" stroke="#000000" stroke-opacity="1" stroke-width="3.2"/>
<circle clip-path="url(#clip902)" cx="479.134" cy="289.324" r="14.4" fill="#009af9" fill-rule="evenodd" fill-opacity="1" stroke="#000000" stroke-opacity="1" stroke-width="3.2"/>
<circle clip-path="url(#clip902)" cx="606.004" cy="289.324" r="14.4" fill="#009af9" fill-rule="evenodd" fill-opacity="1" stroke="#000000" stroke-opacity="1" stroke-width="3.2"/>
<circle clip-path="url(#clip902)" cx="721.217" cy="289.324" r="14.4" fill="#009af9" fill-rule="evenodd" fill-opacity="1" stroke="#000000" stroke-opacity="1" stroke-width="3.2"/>
<circle clip-path="url(#clip902)" cx="829.41" cy="289.324" r="14.4" fill="#009af9" fill-rule="evenodd" fill-opacity="1" stroke="#000000" stroke-opacity="1" stroke-width="3.2"/>
<circle clip-path="url(#clip902)" cx="933.029" cy="289.324" r="14.4" fill="#009af9" fill-rule="evenodd" fill-opacity="1" stroke="#000000" stroke-opacity="1" stroke-width="3.2"/>
<circle clip-path="url(#clip902)" cx="1033.61" cy="289.324" r="14.4" fill="#009af9" fill-rule="evenodd" fill-opacity="1" stroke="#000000" stroke-opacity="1" stroke-width="3.2"/>
<circle clip-path="url(#clip902)" cx="1132.24" cy="289.324" r="14.4" fill="#009af9" fill-rule="evenodd" fill-opacity="1" stroke="#000000" stroke-opacity="1" stroke-width="3.2"/>
<circle clip-path="url(#clip902)" cx="1229.77" cy="289.324" r="14.4" fill="#009af9" fill-rule="evenodd" fill-opacity="1" stroke="#000000" stroke-opacity="1" stroke-width="3.2"/>
<circle clip-path="url(#clip902)" cx="1326.95" cy="289.324" r="14.4" fill="#009af9" fill-rule="evenodd" fill-opacity="1" stroke="#000000" stroke-opacity="1" stroke-width="3.2"/>
<circle clip-path="url(#clip902)" cx="1424.48" cy="289.324" r="14.4" fill="#009af9" fill-rule="evenodd" fill-opacity="1" stroke="#000000" stroke-opacity="1" stroke-width="3.2"/>
<circle clip-path="url(#clip902)" cx="1523.11" cy="289.324" r="14.4" fill="#009af9" fill-rule="evenodd" fill-opacity="1" stroke="#000000" stroke-opacity="1" stroke-width="3.2"/>
<circle clip-path="url(#clip902)" cx="1623.69" cy="289.324" r="14.4" fill="#009af9" fill-rule="evenodd" fill-opacity="1" stroke="#000000" stroke-opacity="1" stroke-width="3.2"/>
<circle clip-path="url(#clip902)" cx="1727.31" cy="289.324" r="14.4" fill="#009af9" fill-rule="evenodd" fill-opacity="1" stroke="#000000" stroke-opacity="1" stroke-width="3.2"/>
<circle clip-path="url(#clip902)" cx="1835.5" cy="289.324" r="14.4" fill="#009af9" fill-rule="evenodd" fill-opacity="1" stroke="#000000" stroke-opacity="1" stroke-width="3.2"/>
<circle clip-path="url(#clip902)" cx="1950.72" cy="289.324" r="14.4" fill="#009af9" fill-rule="evenodd" fill-opacity="1" stroke="#000000" stroke-opacity="1" stroke-width="3.2"/>
<circle clip-path="url(#clip902)" cx="2077.59" cy="289.324" r="14.4" fill="#009af9" fill-rule="evenodd" fill-opacity="1" stroke="#000000" stroke-opacity="1" stroke-width="3.2"/>
<circle clip-path="url(#clip902)" cx="2228.14" cy="289.324" r="14.4" fill="#009af9" fill-rule="evenodd" fill-opacity="1" stroke="#000000" stroke-opacity="1" stroke-width="3.2"/>
<circle clip-path="url(#clip902)" cx="296.237" cy="224.79" r="14.4" fill="#009af9" fill-rule="evenodd" fill-opacity="1" stroke="#000000" stroke-opacity="1" stroke-width="3.2"/>
<circle clip-path="url(#clip902)" cx="445.191" cy="224.79" r="14.4" fill="#009af9" fill-rule="evenodd" fill-opacity="1" stroke="#000000" stroke-opacity="1" stroke-width="3.2"/>
<circle clip-path="url(#clip902)" cx="570.555" cy="224.79" r="14.4" fill="#009af9" fill-rule="evenodd" fill-opacity="1" stroke="#000000" stroke-opacity="1" stroke-width="3.2"/>
<circle clip-path="url(#clip902)" cx="684.253" cy="224.79" r="14.4" fill="#009af9" fill-rule="evenodd" fill-opacity="1" stroke="#000000" stroke-opacity="1" stroke-width="3.2"/>
<circle clip-path="url(#clip902)" cx="790.873" cy="224.79" r="14.4" fill="#009af9" fill-rule="evenodd" fill-opacity="1" stroke="#000000" stroke-opacity="1" stroke-width="3.2"/>
<circle clip-path="url(#clip902)" cx="892.825" cy="224.79" r="14.4" fill="#009af9" fill-rule="evenodd" fill-opacity="1" stroke="#000000" stroke-opacity="1" stroke-width="3.2"/>
<circle clip-path="url(#clip902)" cx="991.608" cy="224.79" r="14.4" fill="#009af9" fill-rule="evenodd" fill-opacity="1" stroke="#000000" stroke-opacity="1" stroke-width="3.2"/>
<circle clip-path="url(#clip902)" cx="1088.27" cy="224.79" r="14.4" fill="#009af9" fill-rule="evenodd" fill-opacity="1" stroke="#000000" stroke-opacity="1" stroke-width="3.2"/>
<circle clip-path="url(#clip902)" cx="1183.63" cy="224.79" r="14.4" fill="#009af9" fill-rule="evenodd" fill-opacity="1" stroke="#000000" stroke-opacity="1" stroke-width="3.2"/>
<circle clip-path="url(#clip902)" cx="1373.09" cy="224.79" r="14.4" fill="#009af9" fill-rule="evenodd" fill-opacity="1" stroke="#000000" stroke-opacity="1" stroke-width="3.2"/>
<circle clip-path="url(#clip902)" cx="1468.45" cy="224.79" r="14.4" fill="#009af9" fill-rule="evenodd" fill-opacity="1" stroke="#000000" stroke-opacity="1" stroke-width="3.2"/>
<circle clip-path="url(#clip902)" cx="1565.11" cy="224.79" r="14.4" fill="#009af9" fill-rule="evenodd" fill-opacity="1" stroke="#000000" stroke-opacity="1" stroke-width="3.2"/>
<circle clip-path="url(#clip902)" cx="1663.89" cy="224.79" r="14.4" fill="#009af9" fill-rule="evenodd" fill-opacity="1" stroke="#000000" stroke-opacity="1" stroke-width="3.2"/>
<circle clip-path="url(#clip902)" cx="1765.85" cy="224.79" r="14.4" fill="#009af9" fill-rule="evenodd" fill-opacity="1" stroke="#000000" stroke-opacity="1" stroke-width="3.2"/>
<circle clip-path="url(#clip902)" cx="1872.47" cy="224.79" r="14.4" fill="#009af9" fill-rule="evenodd" fill-opacity="1" stroke="#000000" stroke-opacity="1" stroke-width="3.2"/>
<circle clip-path="url(#clip902)" cx="1986.16" cy="224.79" r="14.4" fill="#009af9" fill-rule="evenodd" fill-opacity="1" stroke="#000000" stroke-opacity="1" stroke-width="3.2"/>
<circle clip-path="url(#clip902)" cx="2111.53" cy="224.79" r="14.4" fill="#009af9" fill-rule="evenodd" fill-opacity="1" stroke="#000000" stroke-opacity="1" stroke-width="3.2"/>
<circle clip-path="url(#clip902)" cx="2260.48" cy="224.79" r="14.4" fill="#009af9" fill-rule="evenodd" fill-opacity="1" stroke="#000000" stroke-opacity="1" stroke-width="3.2"/>
<circle clip-path="url(#clip902)" cx="1278.36" cy="224.79" r="14.4" fill="#009af9" fill-rule="evenodd" fill-opacity="1" stroke="#000000" stroke-opacity="1" stroke-width="3.2"/>
<circle clip-path="url(#clip902)" cx="264.778" cy="160.256" r="14.4" fill="#009af9" fill-rule="evenodd" fill-opacity="1" stroke="#000000" stroke-opacity="1" stroke-width="3.2"/>
<circle clip-path="url(#clip902)" cx="412.239" cy="160.256" r="14.4" fill="#009af9" fill-rule="evenodd" fill-opacity="1" stroke="#000000" stroke-opacity="1" stroke-width="3.2"/>
<circle clip-path="url(#clip902)" cx="536.206" cy="160.256" r="14.4" fill="#009af9" fill-rule="evenodd" fill-opacity="1" stroke="#000000" stroke-opacity="1" stroke-width="3.2"/>
<circle clip-path="url(#clip902)" cx="648.506" cy="160.256" r="14.4" fill="#009af9" fill-rule="evenodd" fill-opacity="1" stroke="#000000" stroke-opacity="1" stroke-width="3.2"/>
<circle clip-path="url(#clip902)" cx="753.684" cy="160.256" r="14.4" fill="#009af9" fill-rule="evenodd" fill-opacity="1" stroke="#000000" stroke-opacity="1" stroke-width="3.2"/>
<circle clip-path="url(#clip902)" cx="854.117" cy="160.256" r="14.4" fill="#009af9" fill-rule="evenodd" fill-opacity="1" stroke="#000000" stroke-opacity="1" stroke-width="3.2"/>
<circle clip-path="url(#clip902)" cx="951.278" cy="160.256" r="14.4" fill="#009af9" fill-rule="evenodd" fill-opacity="1" stroke="#000000" stroke-opacity="1" stroke-width="3.2"/>
<circle clip-path="url(#clip902)" cx="1046.19" cy="160.256" r="14.4" fill="#009af9" fill-rule="evenodd" fill-opacity="1" stroke="#000000" stroke-opacity="1" stroke-width="3.2"/>
<circle clip-path="url(#clip902)" cx="1139.61" cy="160.256" r="14.4" fill="#009af9" fill-rule="evenodd" fill-opacity="1" stroke="#000000" stroke-opacity="1" stroke-width="3.2"/>
<circle clip-path="url(#clip902)" cx="1232.2" cy="160.256" r="14.4" fill="#009af9" fill-rule="evenodd" fill-opacity="1" stroke="#000000" stroke-opacity="1" stroke-width="3.2"/>
<circle clip-path="url(#clip902)" cx="1324.52" cy="160.256" r="14.4" fill="#009af9" fill-rule="evenodd" fill-opacity="1" stroke="#000000" stroke-opacity="1" stroke-width="3.2"/>
<circle clip-path="url(#clip902)" cx="1417.11" cy="160.256" r="14.4" fill="#009af9" fill-rule="evenodd" fill-opacity="1" stroke="#000000" stroke-opacity="1" stroke-width="3.2"/>
<circle clip-path="url(#clip902)" cx="1510.53" cy="160.256" r="14.4" fill="#009af9" fill-rule="evenodd" fill-opacity="1" stroke="#000000" stroke-opacity="1" stroke-width="3.2"/>
<circle clip-path="url(#clip902)" cx="1605.44" cy="160.256" r="14.4" fill="#009af9" fill-rule="evenodd" fill-opacity="1" stroke="#000000" stroke-opacity="1" stroke-width="3.2"/>
<circle clip-path="url(#clip902)" cx="1702.6" cy="160.256" r="14.4" fill="#009af9" fill-rule="evenodd" fill-opacity="1" stroke="#000000" stroke-opacity="1" stroke-width="3.2"/>
<circle clip-path="url(#clip902)" cx="1803.04" cy="160.256" r="14.4" fill="#009af9" fill-rule="evenodd" fill-opacity="1" stroke="#000000" stroke-opacity="1" stroke-width="3.2"/>
<circle clip-path="url(#clip902)" cx="1908.21" cy="160.256" r="14.4" fill="#009af9" fill-rule="evenodd" fill-opacity="1" stroke="#000000" stroke-opacity="1" stroke-width="3.2"/>
<circle clip-path="url(#clip902)" cx="2020.51" cy="160.256" r="14.4" fill="#009af9" fill-rule="evenodd" fill-opacity="1" stroke="#000000" stroke-opacity="1" stroke-width="3.2"/>
<circle clip-path="url(#clip902)" cx="2144.48" cy="160.256" r="14.4" fill="#009af9" fill-rule="evenodd" fill-opacity="1" stroke="#000000" stroke-opacity="1" stroke-width="3.2"/>
<circle clip-path="url(#clip902)" cx="2291.94" cy="160.256" r="14.4" fill="#009af9" fill-rule="evenodd" fill-opacity="1" stroke="#000000" stroke-opacity="1" stroke-width="3.2"/>
</svg>
